{
.formatVersion = 3;
axes = (
{
name = Weight;
tag = wght;
}
);
classes = (
{
code = "eight five four nine one seven six three two zero Imacron imacron Scedilla scedilla Tcedilla tcedilla eight.prop eight.oldstyle eight.taboldstyle five.prop five.oldstyle five.taboldstyle four.prop four.oldstyle four.taboldstyle nine.prop nine.oldstyle nine.taboldstyle one.prop one.oldstyle one.taboldstyle seven.prop seven.oldstyle seven.taboldstyle six.prop six.oldstyle six.taboldstyle three.prop three.oldstyle three.taboldstyle two.prop two.oldstyle two.taboldstyle zero.prop zero.oldstyle zero.taboldstyle";
name = aalt1;
},
{

glyphs = (
{
glyphname = acute.dup;
layers = (
{
layerId = "68A22FE7-C8F3-439C-857C-EB17D6453AAF";
name = "#instance";
width = 333;
},
{
layerId = "E4F5910F-7A79-4870-ADFC-893AC9D78200";
shapes = (
{
closed = 1;
nodes = (
(342,763,l),
(164,763,l),
(107,606,l),
(227,606,l)
);
}
);
width = 333;
},
{
layerId = "0486BCA8-F793-4B15-B8A2-0882358C0736";
shapes = (
{
closed = 1;
nodes = (
(343,752,l),
(187,752,l),
(117,598,l),
(217,598,l)
);
}
);
width = 333;
},
{
layerId = "B4AF9C66-4182-4BB3-8260-B15F342CB5AD";
shapes = (
{
closed = 1;
nodes = (
(346,729,l),
(233,729,l),
(137,581,l),
(197,581,l)
);
}
);
width = 333;
},
{
layerId = "72302C92-9F48-4323-B731-8A9E50B35526";
shapes = (
{
closed = 1;
nodes = (
(348,720,l),
(252,720,l),
(145,574,l),
(189,574,l)
);
}
);
width = 333;
}
);
},
{
glyphname = AE.dup;
layers = (
{
layerId = "68A22FE7-C8F3-439C-857C-EB17D6453AAF";
name = "#instance";
width = 1000;
},
{
layerId = "E4F5910F-7A79-4870-ADFC-893AC9D78200";
shapes = (
{
closed = 1;
nodes = (
(955,0,l),
(955,141,l),
(586,141,l),
(586,293,l),
(905,293,l),
(905,434,l),
(586,434,l),
(586,559,l),
(936,559,l),
(936,700,l),
(252,700,l),
(16,0,l),
(187,0,l),
(223,117,l),
(415,117,l),
(415,0,l)
);
},
{
closed = 1;
nodes = (
(415,257,l),
(269,257,l),
(366,559,l),
(415,559,l)
);
}
);
width = 1000;
},
{
layerId = "0486BCA8-F793-4B15-B8A2-0882358C0736";
shapes = (
{
closed = 1;
nodes = (
(947,0,l),
(947,120,l),
(577,120,l),
(577,301,l),
(902,301,l),
(902,421,l),
(577,421,l),
(577,580,l),
(928,580,l),
(928,700,l),
(273,700,l),
(21,0,l),
(168,0,l),
(219,146,l),
(433,146,l),
(433,0,l)
);
},
{
closed = 1;
nodes = (
(433,266,l),
(259,266,l),
(368,580,l),
(433,580,l)
);
}
);
width = 1000;
},
{
layerId = "B4AF9C66-4182-4BB3-8260-B15F342CB5AD";
shapes = (
{
closed = 1;
nodes = (
(932,0,l),
(932,79,l),
(559,79,l),
(559,319,l),
(896,319,l),
(896,397,l),
(559,397,l),
(559,621,l),
(915,621,l),
(915,700,l),
(318,700,l),
(31,0,l),
(129,0,l),
(211,205,l),
(469,205,l),
(469,0,l)
);
},
{
closed = 1;
nodes = (
(469,284,l),
(241,284,l),
(373,621,l),
(469,621,l)
);
}
);
width = 1000;
},
{
layerId = "72302C92-9F48-4323-B731-8A9E50B35526";
shapes = (
{
closed = 1;
nodes = (
(927,0,l),
(927,62,l),
(552,62,l),
(552,326,l),
(896,326,l),
(896,388,l),
(552,388,l),
(552,638,l),
(910,638,l),
(910,700,l),
(336,700,l),
(35,0,l),
(114,0,l),
(208,230,l),
(485,230,l),
(485,0,l)
);
},
{
closed = 1;
nodes = (
(485,292,l),
(234,292,l),
(376,638,l),
(485,638,l)
);
}
);
width = 1000;
}
);
},
{
glyphname = ae.dup;
layers = (
{
layerId = "68A22FE7-C8F3-439C-857C-EB17D6453AAF";
name = "#instance";
width = 889;
},
{
layerId = "E4F5910F-7A79-4870-ADFC-893AC9D78200";
shapes = (
{
closed = 1;
nodes = (
(862,222,l),
(871,427,o),
(777,554,o),
(596,554,cs),
(540,554,o),
(493,544,o),
(450,520,c),
(408,542,o),
(349,554,o),
(274,554,cs),
(112,554,o),
(36,484,o),
(35,359,c),
(189,359,l),
(196,408,o),
(215,423,o),
(272,423,cs),
(317,423,o),
(341,410,o),
(341,384,cs),
(341,334,o),
(288,348,o),
(176,322,cs),
(81,302,o),
(23,260,o),
(23,156,cs),
(23,51,o),
(87,-6,o),
(191,-6,cs),
(274,-6,o),
(336,26,o),
(392,97,c),
(432,29,o),
(513,-4,o),
(595,-4,cs),
(717,-4,o),
(822,64,o),
(858,149,c),
(693,149,l),
(687,143,o),
(645,118,o),
(606,118,cs),
(549,118,o),
(511,149,o),
(512,222,c)
);
},
{
closed = 1;
nodes = (
(341,246,ls),
(341,168,o),
(324,127,o),
(253,127,cs),
(214,127,o),
(189,140,o),
(189,175,cs),
(189,219,o),
(229,229,o),
(285,233,c),
(314,236,o),
(325,241,o),
(341,252,c)
);
},
{
closed = 1;
nodes = (
(512,328,l),
(518,401,o),
(544,432,o),
(598,432,cs),
(653,432,o),
(680,401,o),
(690,328,c)
);
}
);
width = 889;
},
{
layerId = "0486BCA8-F793-4B15-B8A2-0882358C0736";
shapes = (
{
closed = 1;
nodes = (
(856,226,l),
(870,395,o),
(787,549,o),
(601,549,cs),
(540,549,o),
(487,532,o),
(446,499,c),
(408,532,o),
(349,549,o),
(271,549,cs),
(122,549,o),
(45,486,o),
(43,362,c),
(174,362,l),
(181,416,o),
(206,436,o),
(269,436,cs),
(326,436,o),
(354,419,o),
(354,383,cs),
(354,323,o),
(225,318,o),
(186,312,cs),
(78,293,o),
(27,248,o),
(27,149,cs),
(27,48,o),
(92,-9,o),
(195,-9,cs),
(276,-9,o),
(338,23,o),
(400,96,c),
(440,28,o),
(514,-8,o),
(600,-8,cs),
(721,-8,o),
(819,60,o),
(850,152,c),
(712,152,l),
(700,128,o),
(656,99,o),
(608,99,cs),
(541,99,o),
(494,140,o),
(494,226,c)
);
},
{
closed = 1;
nodes = (
(354,231,ls),
(354,149,o),
(315,104,o),
(243,104,cs),
(196,104,o),
(167,122,o),
(167,163,cs),
(167,216,o),
(212,225,o),
(295,235,cs),
(325,239,o),
(337,244,o),
(354,254,c)
);
},
{
closed = 1;
nodes = (
(495,319,l),
(501,400,o),
(538,442,o),
(602,442,cs),
(667,442,o),
(704,400,o),
(711,319,c)
);
}
);
width = 889;
},
{
layerId = "B4AF9C66-4182-4BB3-8260-B15F342CB5AD";
shapes = (
{
closed = 1;
nodes = (
(845,234,l),
(845,387,o),
(801,539,o),
(613,539,cs),
(541,539,o),
(476,508,o),
(440,457,c),
(409,511,o),
(350,539,o),
(265,539,cs),
(141,539,o),
(62,490,o),
(57,369,c),
(141,369,l),
(148,433,o),
(186,462,o),
(263,462,cs),
(345,462,o),
(381,443,o),
(381,362,cs),
(381,301,o),
(337,313,o),
(204,292,cs),
(73,271,o),
(34,225,o),
(34,136,cs),
(34,42,o),
(100,-15,o),
(202,-15,cs),
(280,-15,o),
(343,17,o),
(418,95,c),
(456,27,o),
(517,-15,o),
(612,-15,cs),
(730,-15,o),
(814,53,o),
(835,159,c),
(751,159,l),
(727,98,o),
(680,62,o),
(613,62,cs),
(526,62,o),
(461,122,o),
(459,234,c)
);
},
{
closed = 1;
nodes = (
(381,165,ls),
(381,121,o),
(297,58,o),
(221,58,cs),
(159,58,o),
(121,86,o),
(121,138,cs),
(121,211,o),
(177,216,o),
(315,240,cs),
(348,246,o),
(362,250,o),
(381,258,c)
);
},
{
closed = 1;
nodes = (
(461,302,l),
(468,399,o),
(527,462,o),
(611,462,cs),
(696,462,o),
(755,397,o),
(755,302,c)
);
}
);
width = 889;
},
{
layerId = "72302C92-9F48-4323-B731-8A9E50B35526";
shapes = (
{
closed = 1;
nodes = (
(841,237,l),
(850,384,o),
(803,535,o),
(619,535,cs),
(542,535,o),
(472,498,o),
(438,440,c),
(410,503,o),
(351,535,o),
(263,535,cs),
(149,535,o),
(69,492,o),
(63,372,c),
(127,372,l),
(134,441,o),
(178,473,o),
(261,473,cs),
(359,473,o),
(393,446,o),
(393,374,cs),
(393,317,o),
(380,310,o),
(212,283,cs),
(71,262,o),
(37,216,o),
(37,131,cs),
(37,40,o),
(103,-17,o),
(205,-17,cs),
(300,-17,o),
(386,26,o),
(426,95,c),
(464,27,o),
(519,-18,o),
(618,-18,cs),
(734,-18,o),
(812,51,o),
(829,162,c),
(768,162,l),
(739,86,o),
(691,47,o),
(616,47,cs),
(520,47,o),
(448,115,o),
(445,237,c)
);
},
{
closed = 1;
nodes = (
(393,162,ls),
(393,95,o),
(318,45,o),
(212,45,cs),
(143,45,o),
(102,71,o),
(102,128,cs),
(102,209,o),
(162,220,o),
(324,250,cs),
(358,256,o),
(373,260,o),
(393,268,c)
);
},
{
closed = 1;
nodes = (
(448,295,l),
(455,399,o),
(523,471,o),
(615,471,cs),
(708,471,o),
(777,396,o),
(774,295,c)
);
}
);
width = 889;
}
);
},
{
glyphname = cedilla.dup;
layers = (
{
layerId = "68A22FE7-C8F3-439C-857C-EB17D6453AAF";
name = "#instance";
width = 333;
},
{
layerId = "E4F5910F-7A79-4870-ADFC-893AC9D78200";
shapes = (
{
closed = 1;
nodes = (
(228,-228,o),
(274,-184,o),
(274,-123,cs),
(274,-78,o),
(245,-48,o),
(199,-48,cs),
(153,-48,l),
(182,6,l),
(113,6,l),
(61,-100,l),
(118,-104,l),
(120,-99,o),
(131,-97,o),
(145,-97,cs),
(163,-97,o),
(184,-103,o),
(184,-123,cs),
(184,-145,o),
(158,-162,o),
(126,-162,cs),
(97,-162,o),
(71,-155,o),
(18,-134,c),
(0,-202,l),
(66,-223,o),
(97,-228,o),
(143,-228,cs)
);
}
);
width = 333;
},
{
layerId = "0486BCA8-F793-4B15-B8A2-0882358C0736";
shapes = (
{
closed = 1;
nodes = (
(221,-229,o),
(267,-187,o),
(267,-127,cs),
(267,-83,o),
(238,-50,o),
(191,-50,cs),
(151,-50,l),
(178,5,l),
(115,5,l),
(66,-98,l),
(112,-104,l),
(117,-100,o),
(127,-98,o),
(140,-98,cs),
(161,-98,o),
(181,-108,o),
(181,-129,cs),
(181,-152,o),
(156,-170,o),
(124,-170,cs),
(96,-170,o),
(72,-163,o),
(19,-140,c),
(0,-201,l),
(65,-223,o),
(94,-229,o),
(138,-229,cs)
);
}
);
width = 333;
},
{
layerId = "B4AF9C66-4182-4BB3-8260-B15F342CB5AD";
shapes = (
{
closed = 1;
nodes = (
(201,-230,o),
(248,-194,o),
(248,-137,cs),
(248,-94,o),
(219,-54,o),
(169,-54,cs),
(146,-54,l),
(169,5,l),
(121,5,l),
(79,-92,l),
(96,-104,l),
(109,-101,o),
(115,-100,o),
(127,-100,cs),
(156,-100,o),
(173,-121,o),
(173,-144,cs),
(173,-170,o),
(150,-189,o),
(119,-189,cs),
(93,-189,o),
(76,-183,o),
(21,-156,c),
(0,-196,l),
(62,-223,o),
(86,-230,o),
(125,-230,cs)
);
}
);
width = 333;
},
{
layerId = "72302C92-9F48-4323-B731-8A9E50B35526";
shapes = (
{
closed = 1;
nodes = (
(193,-231,o),
(240,-197,o),
(240,-141,cs),
(240,-99,o),
(211,-56,o),
(160,-56,cs),
(144,-56,l),
(165,5,l),
(123,5,l),
(85,-90,l),
(89,-104,l),
(106,-101,o),
(110,-101,o),
(121,-101,cs),
(154,-101,o),
(170,-127,o),
(170,-151,cs),
(170,-177,o),
(148,-197,o),
(117,-197,cs),
(91,-197,o),
(78,-191,o),
(22,-163,c),
(0,-194,l),
(60,-223,o),
(83,-231,o),
(119,-231,cs)
);
}
);
width = 333;
}
);
},
{
glyphname = circumflex.dup;
layers = (
{
layerId = "68A22FE7-C8F3-439C-857C-EB17D6453AAF";
name = "#instance";
width = 333;
},
{
layerId = "E4F5910F-7A79-4870-ADFC-893AC9D78200";
shapes = (
{
closed = 1;
nodes = (
(349,607,l),
(243,763,l),
(99,763,l),
(-15,607,l),
(83,607,l),
(166,674,l),
(249,607,l)
);
}
);
width = 333;
},
{
layerId = "0486BCA8-F793-4B15-B8A2-0882358C0736";
shapes = (
{
closed = 1;
nodes = (
(336,598,l),
(233,752,l),
(106,752,l),
(-2,598,l),
(84,598,l),
(166,675,l),
(248,598,l)
);
}
);
width = 333;
},
{
layerId = "B4AF9C66-4182-4BB3-8260-B15F342CB5AD";
shapes = (
{
closed = 1;
nodes = (
(310,580,l),
(214,730,l),
(119,730,l),
(23,580,l),
(87,580,l),
(166,676,l),
(247,580,l)
);
}
);
width = 333;
},
{
layerId = "72302C92-9F48-4323-B731-8A9E50B35526";
shapes = (
{
closed = 1;
nodes = (
(299,573,l),
(207,721,l),
(125,721,l),
(34,573,l),
(89,573,l),
(166,677,l),
(247,573,l)
);
}
);
width = 333;
}
);
},
{
glyphname = dieresis.dup;
layers = (
{
layerId = "68A22FE7-C8F3-439C-857C-EB17D6453AAF";
name = "#instance";
width = 333;
},
{
layerId = "E4F5910F-7A79-4870-ADFC-893AC9D78200";
shapes = (
{
closed = 1;
nodes = (
(132,625,l),
(132,747,l),
(-11,747,l),
(-11,625,l)
);
},
{
closed = 1;
nodes = (
(343,625,l),
(343,747,l),
(200,747,l),
(200,625,l)
);
}
);
width = 333;
},
{
layerId = "0486BCA8-F793-4B15-B8A2-0882358C0736";
shapes = (
{
closed = 1;
nodes = (
(132,618,l),
(132,733,l),
(6,733,l),
(6,618,l)
);
},
{
closed = 1;
nodes = (
(327,618,l),
(327,733,l),
(201,733,l),
(201,618,l)
);
}
);
width = 333;
},
{
layerId = "B4AF9C66-4182-4BB3-8260-B15F342CB5AD";
shapes = (
{
closed = 1;
nodes = (
(131,604,l),
(131,706,l),
(40,706,l),
(40,604,l)
);
},
{
closed = 1;
nodes = (
(293,604,l),
(293,706,l),
(202,706,l),
(202,604,l)
);
}
);
width = 333;
},
{
layerId = "72302C92-9F48-4323-B731-8A9E50B35526";
shapes = (
{
closed = 1;
nodes = (
(131,598,l),
(131,695,l),
(54,695,l),
(54,598,l)
);
},
{
closed = 1;
nodes = (
(280,598,l),
(280,695,l),
(203,695,l),
(203,598,l)
);
}
);
width = 333;
}
);
},
{
glyphname = l.script.dup;
layers = (
{
layerId = "68A22FE7-C8F3-439C-857C-EB17D6453AAF";
name = "#instance";
width = 387;
},
{
layerId = "E4F5910F-7A79-4870-ADFC-893AC9D78200";
shapes = (
{
closed = 1;
nodes = (
(432,145,l),
(419,128,o),
(392,112,o),
(376,112,cs),
(333,112,o),
(310,125,o),
(310,149,cs),
(310,290,l),
(402,371,o),
(483,462,o),
(483,583,cs),
(483,667,o),
(405,729,o),
(319,729,cs),
(231,729,o),
(154,667,o),
(154,583,cs),
(154,281,l),
(116,248,o),
(74,217,o),
(37,182,c),
(106,108,l),
(122,121,o),
(139,135,o),
(154,148,c),
(154,122,ls),
(154,36,o),
(238,-23,o),
(331,-23,cs),
(401,-23,o),
(466,13,o),
(506,73,c)
);
},
{
closed = 1;
nodes = (
(364,522,o),
(343,470,o),
(310,422,c),
(310,583,ls),
(310,603,o),
(320,621,o),
(337,621,cs),
(354,621,o),
(364,603,o),
(364,583,cs)
);
}
);
width = 544;
},
{
layerId = "0486BCA8-F793-4B15-B8A2-0882358C0736";
shapes = (
{
closed = 1;
nodes = (
(404,126,l),
(391,106,o),
(364,90,o),
(343,90,cs),
(301,90,o),
(275,110,o),
(275,140,cs),
(275,289,l),
(365,372,o),
(445,462,o),
(445,583,cs),
(445,665,o),
(376,729,o),
(294,729,cs),
(212,729,o),
(143,665,o),
(143,583,cs),
(143,280,l),
(107,247,o),
(69,216,o),
(35,182,c),
(94,122,l),
(110,137,o),
(127,152,o),
(143,167,c),
(143,122,ls),
(143,38,o),
(219,-23,o),
(306,-23,cs),
(373,-23,o),
(435,14,o),
(468,73,c)
);
},
{
closed = 1;
nodes = (
(343,514,o),
(315,456,o),
(275,403,c),
(275,583,ls),
(275,609,o),
(286,634,o),
(309,634,cs),
(332,634,o),
(343,609,o),
(343,583,cs)
);
}
);
width = 503;
},
{
layerId = "B4AF9C66-4182-4BB3-8260-B15F342CB5AD";
shapes = (
{
closed = 1;
nodes = (
(349,88,l),
(334,61,o),
(306,45,o),
(276,45,cs),
(235,45,o),
(203,80,o),
(203,122,cs),
(203,287,l),
(290,373,o),
(368,462,o),
(368,583,cs),
(368,660,o),
(317,729,o),
(244,729,cs),
(172,729,o),
(120,660,o),
(120,583,cs),
(120,278,l),
(89,246,o),
(58,215,o),
(30,182,c),
(69,149,l),
(85,168,o),
(102,187,o),
(120,205,c),
(120,122,ls),
(120,43,o),
(179,-23,o),
(256,-23,cs),
(317,-23,o),
(371,15,o),
(391,73,c)
);
},
{
closed = 1;
nodes = (
(300,497,o),
(259,428,o),
(203,364,c),
(203,583,ls),
(203,622,o),
(218,661,o),
(252,661,cs),
(286,661,o),
(300,622,o),
(300,583,cs)
);
}
);
width = 421;
},
{
layerId = "72302C92-9F48-4323-B731-8A9E50B35526";
shapes = (
{
closed = 1;
nodes = (
(328,80,l),
(314,47,o),
(282,27,o),
(249,27,cs),
(203,27,o),
(171,74,o),
(171,123,cs),
(171,287,l),
(256,374,o),
(337,463,o),
(337,584,cs),
(337,658,o),
(293,730,o),
(224,730,cs),
(157,730,o),
(111,658,o),
(111,584,cs),
(111,278,l),
(82,246,o),
(54,215,o),
(28,183,c),
(59,161,l),
(75,181,o),
(92,202,o),
(111,222,c),
(111,123,ls),
(111,46,o),
(164,-23,o),
(236,-23,cs),
(294,-23,o),
(346,16,o),
(360,74,c)
);
},
{
closed = 1;
nodes = (
(287,486,o),
(237,409,o),
(171,338,c),
(171,584,ls),
(171,632,o),
(188,680,o),
(229,680,cs),
(271,680,o),
(287,632,o),
(287,584,cs)
);
}
);
width = 387;
}
);
},
{
glyphname = Gcedilla;
layers = (
{
layerId = "68A22FE7-C8F3-439C-857C-EB17D6453AAF";
name = "#instance";
width = 778;
},
{
layerId = "E4F5910F-7A79-4870-ADFC-893AC9D78200";
shapes = (
{
closed = 1;
nodes = (
(700,0,l),
(700,380,l),
(426,380,l),
(426,239,l),
(559,239,l),
(545,176,o),
(458,136,o),
(402,136,cs),
(307,136,o),
(227,224,o),
(227,355,cs),
(227,495,o),
(288,563,o),
(398,563,cs),
(463,563,o),
(515,547,o),
(547,470,c),
(705,470,l),
(691,614,o),
(569,708,o),
(396,708,cs),
(201,708,o),
(55,576,o),
(55,355,cs),
(55,144,o),
(197,-9,o),
(387,-9,cs),
(480,-9,o),
(537,25,o),
(584,98,c),
(599,0,l)
);
},
{
closed = 1;
nodes = (
(451,-58,l),
(323,-58,l),
(323,-171,l),
(393,-171,l),
(393,-218,o),
(372,-245,o),
(323,-258,c),
(323,-305,l),
(395,-303,o),
(451,-238,o),
(451,-156,cs)
);
}
);
width = 778;
},
{
layerId = "0486BCA8-F793-4B15-B8A2-0882358C0736";
shapes = (
{
closed = 1;
nodes = (
(699,0,l),
(699,376,l),
(418,376,l),
(418,256,l),
(578,256,l),
(569,169,o),
(484,111,o),
(400,111,cs),
(284,111,o),
(200,208,o),
(200,352,cs),
(200,503,o),
(274,588,o),
(396,588,cs),
(475,588,o),
(535,558,o),
(563,476,c),
(699,476,l),
(681,620,o),
(564,711,o),
(395,711,cs),
(194,711,o),
(56,568,o),
(56,350,cs),
(56,138,o),
(195,-12,o),
(384,-12,cs),
(478,-12,o),
(541,22,o),
(595,96,c),
(612,0,l)
);
},
{
closed = 1;
nodes = (
(448,-58,l),
(331,-58,l),
(331,-165,l),
(395,-165,l),
(395,-214,o),
(376,-242,o),
(331,-251,c),
(331,-295,l),
(399,-293,o),
(448,-235,o),
(448,-156,c)
);
}
);
width = 778;
},
{
layerId = "B4AF9C66-4182-4BB3-8260-B15F342CB5AD";
shapes = (
{
closed = 1;
nodes = (
(697,0,l),
(697,370,l),
(405,370,l),
(405,291,l),
(618,291,l),
(618,156,o),
(539,61,o),
(398,61,cs),
(240,61,o),
(148,177,o),
(148,348,cs),
(148,519,o),
(245,638,o),
(393,638,cs),
(500,638,o),
(577,578,o),
(596,488,c),
(687,488,l),
(662,630,o),
(555,717,o),
(394,717,cs),
(180,717,o),
(58,552,o),
(58,343,cs),
(58,128,o),
(190,-17,o),
(379,-17,cs),
(474,-17,o),
(550,16,o),
(618,92,c),
(640,0,l)
);
},
{
closed = 1;
nodes = (
(443,-58,l),
(347,-58,l),
(347,-154,l),
(400,-154,l),
(400,-206,o),
(385,-236,o),
(347,-236,c),
(347,-273,l),
(407,-273,o),
(443,-229,o),
(443,-156,c)
);
}
);
width = 778;
},
{
layerId = "72302C92-9F48-4323-B731-8A9E50B35526";
shapes = (
{
closed = 1;
nodes = (
(697,1,l),
(697,367,l),
(400,367,l),
(400,305,l),
(635,305,l),
(638,151,o),
(562,41,o),
(398,41,cs),
(223,41,o),
(127,164,o),
(127,346,cs),
(127,526,o),
(234,659,o),
(392,659,cs),
(510,659,o),
(594,586,o),
(610,492,c),
(683,492,l),
(654,634,o),
(551,720,o),
(394,720,cs),
(175,720,o),
(59,545,o),
(59,339,cs),
(59,124,o),
(189,-19,o),
(377,-19,cs),
(473,-19,o),
(554,14,o),
(628,91,c),
(651,1,l)
);
},
{
closed = 1;
nodes = (
(441,-58,l),
(354,-58,l),
(354,-149,l),
(402,-149,l),
(402,-203,o),
(388,-233,o),
(354,-230,c),
(354,-264,l),
(411,-265,o),
(441,-227,o),
(441,-156,cs)
);
}
);
width = 778;
}
);
unicode = 290;
},
{
glyphname = gcedilla;
layers = (
{
hints = (
{
horizontal = 1;
origin = (1,25);
target = (1,18);
type = Stem;
},
{
horizontal = 1;
origin = (1,11);
target = (2,2);
type = Stem;
},
{
horizontal = 1;
origin = (2,8);
target = (1,5);
type = Stem;
},
{
horizontal = 1;
origin = (0,0);
target = (0,1);
type = Stem;
},
{
horizontal = 1;
origin = (0,6);
target = down;
type = TopGhost;
},
{
origin = (1,8);
target = (2,5);
type = Stem;
},
{
origin = (0,9);
target = (0,1);
type = Stem;
},
{
origin = (1,1);
target = (1,0);
type = Stem;
}
);
layerId = "E4F5910F-7A79-4870-ADFC-893AC9D78200";
shapes = (
{
closed = 1;
nodes = (
(387,594,l),
(387,712,l),
(314,712,l),
(311,758,o),
(336,787,o),
(387,802,c),
(387,852,l),
(312,849,o),
(254,782,o),
(254,697,cs),
(254,594,l)
);
},
{
closed = 1;
nodes = (
(567,548,l),
(406,548,l),
(406,461,l),
(363,527,o),
(320,554,o),
(261,554,cs),
(135,554,o),
(36,433,o),
(36,268,cs),
(36,98,o),
(122,-6,o),
(259,-6,cs),
(321,-6,o),
(355,9,o),
(406,54,c),
(406,-18,ls),
(406,-80,o),
(367,-118,o),
(304,-118,cs),
(257,-118,o),
(231,-97,o),
(219,-68,c),
(44,-68,l),
(42,-150,o),
(137,-218,o),
(298,-218,cs),
(482,-218,o),
(567,-155,o),
(567,-18,cs)
);
},
{
closed = 1;
nodes = (
(413,185,o),
(363,131,o),
(298,131,cs),
(244,131,o),
(202,184,o),
(202,268,cs),
(202,358,o),
(244,417,o),
(301,417,cs),
(361,417,o),
(413,356,o),
(413,270,cs)
);
}
);
width = 639;
},
{
hints = (
{
horizontal = 1;
origin = (1,25);
target = (1,18);
type = Stem;
},
{
horizontal = 1;
origin = (1,11);
target = (2,2);
type = Stem;
},
{
horizontal = 1;
origin = (2,8);
target = (1,5);
type = Stem;
},
{
horizontal = 1;
origin = (0,0);
target = (0,1);
type = Stem;
},
{
horizontal = 1;
origin = (0,6);
target = down;
type = TopGhost;
},
{
origin = (1,8);
target = (2,5);
type = Stem;
},
{
origin = (0,9);
target = (0,1);
type = Stem;
},
{
origin = (1,1);
target = (1,0);
type = Stem;
}
);
layerId = "0486BCA8-F793-4B15-B8A2-0882358C0736";
shapes = (
{
closed = 1;
nodes = (
(368,589,l),
(368,701,l),
(301,701,l),
(299,750,o),
(321,780,o),
(368,790,c),
(368,836,l),
(297,834,o),
(246,774,o),
(246,692,cs),
(246,589,l)
);
},
{
closed = 1;
nodes = (
(541,540,l),
(408,540,l),
(408,457,l),
(366,521,o),
(320,549,o),
(258,549,cs),
(130,549,o),
(34,431,o),
(34,264,cs),
(34,96,o),
(122,-9,o),
(255,-9,cs),
(318,-9,o),
(356,10,o),
(408,62,c),
(408,-18,ls),
(408,-83,o),
(359,-128,o),
(289,-128,cs),
(236,-128,o),
(201,-106,o),
(190,-65,c),
(45,-65,l),
(47,-153,o),
(136,-218,o),
(284,-218,cs),
(447,-218,o),
(541,-145,o),
(541,-18,c)
);
},
{
closed = 1;
nodes = (
(410,168,o),
(359,108,o),
(286,108,cs),
(220,108,o),
(174,168,o),
(174,266,cs),
(174,368,o),
(220,432,o),
(288,432,cs),
(358,432,o),
(410,366,o),
(410,266,cs)
);
}
);
width = 611;
},
{
hints = (
{
horizontal = 1;
origin = (1,25);
target = (1,18);
type = Stem;
},
{
horizontal = 1;
origin = (1,11);
target = (2,2);
type = Stem;
},
{
horizontal = 1;
origin = (2,8);
target = (1,5);
type = Stem;
},
{
horizontal = 1;
origin = (0,0);
target = (0,1);
type = Stem;
},
{
horizontal = 1;
origin = (0,6);
target = down;
type = TopGhost;
},
{
origin = (1,8);
target = (2,5);
type = Stem;
},
{
origin = (0,9);
target = (0,1);
type = Stem;
},
{
origin = (1,1);
target = (1,0);
type = Stem;
}
);
layerId = "B4AF9C66-4182-4BB3-8260-B15F342CB5AD";
shapes = (
{
closed = 1;
nodes = (
(329,579,l),
(329,679,l),
(274,679,l),
(274,734,o),
(290,765,o),
(329,765,c),
(329,803,l),
(267,803,o),
(229,758,o),
(229,682,cs),
(229,579,l)
);
},
{
closed = 1;
nodes = (
(489,524,l),
(412,524,l),
(412,448,l),
(370,510,o),
(319,539,o),
(252,539,cs),
(119,539,o),
(29,427,o),
(29,257,cs),
(29,92,o),
(122,-15,o),
(245,-15,cs),
(311,-15,o),
(357,13,o),
(412,79,c),
(412,44,ls),
(412,-95,o),
(355,-148,o),
(258,-148,cs),
(192,-148,o),
(141,-124,o),
(131,-60,c),
(46,-60,l),
(55,-159,o),
(132,-218,o),
(255,-218,cs),
(419,-218,o),
(489,-145,o),
(489,86,c)
);
},
{
closed = 1;
nodes = (
(404,134,o),
(350,62,o),
(262,62,cs),
(171,62,o),
(116,135,o),
(116,262,cs),
(116,388,o),
(172,462,o),
(261,462,cs),
(351,462,o),
(404,386,o),
(404,259,cs)
);
}
);
width = 556;
},
{
hints = (
{
horizontal = 1;
origin = (1,25);
target = (1,18);
type = Stem;
},
{
horizontal = 1;
origin = (1,11);
target = (2,2);
type = Stem;
},
{
horizontal = 1;
origin = (2,8);
target = (1,5);
type = Stem;
},
{
horizontal = 1;
origin = (0,0);
target = (0,1);
type = Stem;
},
{
horizontal = 1;
origin = (0,6);
target = down;
type = TopGhost;
},
{
origin = (1,8);
target = (2,5);
type = Stem;
},
{
origin = (0,9);
target = (0,1);
type = Stem;
},
{
origin = (1,1);
target = (1,0);
type = Stem;
}
);
layerId = "72302C92-9F48-4323-B731-8A9E50B35526";
shapes = (
{
closed = 1;
nodes = (
(313,575,l),
(313,670,l),
(263,670,l),
(264,728,o),
(277,759,o),
(313,755,c),
(313,790,l),
(255,791,o),
(222,752,o),
(222,678,cs),
(222,575,l)
);
},
{
closed = 1;
nodes = (
(468,517,l),
(414,517,l),
(414,424,l),
(386,496,o),
(329,534,o),
(250,534,cs),
(114,534,o),
(27,425,o),
(27,254,cs),
(27,90,o),
(122,-17,o),
(241,-17,cs),
(325,-17,o),
(387,24,o),
(414,96,c),
(414,70,ls),
(414,-100,o),
(353,-156,o),
(245,-156,cs),
(174,-156,o),
(116,-131,o),
(106,-58,c),
(46,-58,l),
(59,-161,o),
(130,-218,o),
(243,-218,cs),
(408,-218,o),
(468,-145,o),
(468,129,cs)
);
},
{
closed = 1;
nodes = (
(402,120,o),
(347,43,o),
(253,43,cs),
(151,43,o),
(92,122,o),
(92,260,cs),
(92,396,o),
(152,474,o),
(250,474,cs),
(348,474,o),
(402,394,o),
(402,256,cs)
);
}
);
width = 534;
}
);
unicode = 291;
},
{
glyphname = germandbls.dup;
layers = (
{
hints = (
{
horizontal = 1;
origin = (0,12);
target = up;
type = BottomGhost;
},
{
horizontal = 1;
origin = (0,24);
target = (0,23);
type = Stem;
},
{
horizontal = 1;
origin = (0,17);
target = (0,8);
type = Stem;
},
{
origin = (0,11);
target = (0,14);
type = Stem;
},
{
origin = (0,20);
target = (0,5);
type = Stem;
},
{
origin = (0,27);
target = (0,40);
type = Stem;
}
);
layerId = "E4F5910F-7A79-4870-ADFC-893AC9D78200";
shapes = (
{
closed = 1;
nodes = (
(579,342,o),
(537,402,o),
(454,416,c),
(509,438,o),
(535,480,o),
(535,549,cs),
(535,653,o),
(450,729,o),
(309,729,cs),
(149,729,o),
(66,680,o),
(66,509,cs),
(66,0,l),
(234,0,l),
(234,537,ls),
(234,578,o),
(249,599,o),
(295,599,cs),
(349,599,o),
(369,573,o),
(369,529,cs),
(369,477,o),
(342,451,o),
(281,451,c),
(281,349,l),
(362,349,o),
(413,303,o),
(413,233,cs),
(413,167,o),
(371,128,o),
(310,123,c),
(305,123,o),
(314,124,o),
(299,118,c),
(299,-9,l),
(334,-13,o),
(346,-16,o),
(365,-16,cs),
(492,-16,o),
(579,90,o),
(579,244,cs)
);
}
);
width = 611;
},
{
hints = (
{
horizontal = 1;
origin = (0,12);
target = up;
type = BottomGhost;
},
{
horizontal = 1;
origin = (0,24);
target = (0,23);
type = Stem;
},
{
horizontal = 1;
origin = (0,17);
target = (0,8);
type = Stem;
},
{
origin = (0,11);
target = (0,14);
type = Stem;
},
{
origin = (0,20);
target = (0,5);
type = Stem;
},
{
origin = (0,27);
target = (0,40);
type = Stem;
}
);
layerId = "0486BCA8-F793-4B15-B8A2-0882358C0736";
shapes = (
{
closed = 1;
nodes = (
(575,329,o),
(528,394,o),
(445,411,c),
(502,433,o),
(532,480,o),
(532,547,cs),
(532,654,o),
(438,729,o),
(303,729,cs),
(157,729,o),
(67,670,o),
(67,518,cs),
(67,0,l),
(207,0,l),
(207,537,ls),
(207,587,o),
(239,616,o),
(294,616,cs),
(355,616,o),
(392,585,o),
(392,533,cs),
(392,475,o),
(350,444,o),
(285,444,c),
(285,349,l),
(378,349,o),
(435,309,o),
(435,226,cs),
(435,153,o),
(387,106,o),
(318,103,c),
(306,103,o),
(303,104,o),
(285,101,c),
(285,-11,l),
(318,-15,o),
(335,-17,o),
(357,-17,cs),
(488,-17,o),
(575,84,o),
(575,236,cs)
);
}
);
width = 611;
},
{
hints = (
{
horizontal = 1;
origin = (0,12);
target = up;
type = BottomGhost;
},
{
horizontal = 1;
origin = (0,24);
target = (0,23);
type = Stem;
},
{
horizontal = 1;
origin = (0,17);
target = (0,8);
type = Stem;
},
{
origin = (0,11);
target = (0,14);
type = Stem;
},
{
origin = (0,20);
target = (0,5);
type = Stem;
},
{
origin = (0,27);
target = (0,40);
type = Stem;
}
);
layerId = "B4AF9C66-4182-4BB3-8260-B15F342CB5AD";
shapes = (
{
closed = 1;
nodes = (
(566,304,o),
(509,379,o),
(426,401,c),
(486,424,o),
(525,481,o),
(525,545,cs),
(525,657,o),
(412,729,o),
(291,729,cs),
(174,729,o),
(70,649,o),
(70,538,cs),
(70,0,l),
(153,0,l),
(153,538,ls),
(153,606,o),
(220,651,o),
(293,651,cs),
(367,651,o),
(438,610,o),
(438,542,cs),
(438,472,o),
(366,431,o),
(292,431,c),
(292,349,l),
(409,349,o),
(479,321,o),
(479,213,cs),
(479,124,o),
(420,62,o),
(334,62,cs),
(309,62,o),
(282,63,o),
(258,67,c),
(258,-16,l),
(286,-19,o),
(314,-20,o),
(342,-20,cs),
(479,-20,o),
(566,72,o),
(566,219,cs)
);
}
);
width = 611;
},
{
hints = (
{
horizontal = 1;
origin = (0,12);
target = up;
type = BottomGhost;
},
{
horizontal = 1;
origin = (0,24);
target = (0,23);
type = Stem;
},
{
horizontal = 1;
origin = (0,17);
target = (0,8);
type = Stem;
},
{
origin = (0,11);
target = (0,14);
type = Stem;
},
{
origin = (0,20);
target = (0,5);
type = Stem;
},
{
origin = (0,27);
target = (0,40);
type = Stem;
}
);
layerId = "72302C92-9F48-4323-B731-8A9E50B35526";
shapes = (
{
closed = 1;
nodes = (
(562,294,o),
(501,373,o),
(419,396,c),
(479,420,o),
(522,481,o),
(522,545,cs),
(522,661,o),
(432,730,o),
(287,730,cs),
(160,730,o),
(72,657,o),
(72,547,cs),
(72,0,l),
(132,0,l),
(132,538,ls),
(132,618,o),
(195,666,o),
(293,666,cs),
(392,666,o),
(457,621,o),
(457,546,cs),
(457,471,o),
(373,417,o),
(296,417,c),
(296,357,l),
(435,357,o),
(497,316,o),
(497,208,cs),
(497,112,o),
(434,44,o),
(341,45,cs),
(311,45,o),
(274,46,o),
(248,53,c),
(248,-18,l),
(274,-21,o),
(306,-22,o),
(336,-22,cs),
(476,-22,o),
(562,67,o),
(562,212,cs)
);
}
);
width = 611;
}
);
},
{
glyphname = hyphen.dup;
layers = (
{
layerId = "68A22FE7-C8F3-439C-857C-EB17D6453AAF";
name = "#instance";
shapes = (
{
closed = 1;
nodes = (
(278,254,l),
(278,300,l),
(54,300,l),
(54,254,l)
);
}
);
width = 333;
},
{
layerId = "E4F5910F-7A79-4870-ADFC-893AC9D78200";
shapes = (
{
closed = 1;
nodes = (
(305,191,l),
(305,357,l),
(16,357,l),
(16,191,l)
);
}
);
width = 333;
},
{
layerId = "0486BCA8-F793-4B15-B8A2-0882358C0736";
shapes = (
{
closed = 1;
nodes = (
(298,207,l),
(298,342,l),
(26,342,l),
(26,207,l)
);
}
);
width = 333;
},
{
layerId = "B4AF9C66-4182-4BB3-8260-B15F342CB5AD";
shapes = (
{
closed = 1;
nodes = (
(284,240,l),
(284,312,l),
(46,312,l),
(46,240,l)
);
}
);
width = 333;
},
{
layerId = "72302C92-9F48-4323-B731-8A9E50B35526";
shapes = (
{
closed = 1;
nodes = (
(278,254,l),
(278,300,l),
(54,300,l),
(54,254,l)
);
}
);
width = 333;
}
);
},
{
glyphname = Kcedilla;
layers = (
{
layerId = "68A22FE7-C8F3-439C-857C-EB17D6453AAF";
name = "#instance";
shapes = (
{
closed = 1;
nodes = (
(622,0,l),
(342,422,l),
(630,700,l),
(538,700,l),
(158,327,l),
(158,700,l),
(91,700,l),
(91,0,l),
(158,0,l),
(158,250,l),
(290,380,l),
(544,0,l)
);
},
{
closed = 1;
nodes = (
(404,-58,l),
(316,-58,l),
(316,-149,l),
(364,-149,l),
(364,-203,o),
(351,-233,o),
(316,-230,c),
(316,-264,l),
(373,-265,o),
(404,-227,o),
(404,-156,cs)
);
}
);
width = 645;
},
{
layerId = "E4F5910F-7A79-4870-ADFC-893AC9D78200";
shapes = (
{
closed = 1;
nodes = (
(731,0,l),
(411,391,l),
(688,700,l),
(491,700,l),
(256,416,l),
(256,700,l),
(84,700,l),
(84,0,l),
(256,0,l),
(256,230,l),
(305,284,l),
(527,0,l)
);
},
{
closed = 1;
nodes = (
(417,-58,l),
(290,-58,l),
(290,-171,l),
(360,-171,l),
(360,-218,o),
(339,-245,o),
(290,-258,c),
(290,-305,l),
(362,-303,o),
(417,-238,o),
(417,-156,cs)
);
}
);
width = 750;
},
{
layerId = "0486BCA8-F793-4B15-B8A2-0882358C0736";
shapes = (
{
closed = 1;
nodes = (
(702,0,l),
(393,398,l),
(673,700,l),
(503,700,l),
(229,393,l),
(229,700,l),
(85,700,l),
(85,0,l),
(229,0,l),
(229,234,l),
(301,309,l),
(530,0,l)
);
},
{
closed = 1;
nodes = (
(413,-58,l),
(296,-58,l),
(296,-165,l),
(361,-165,l),
(361,-214,o),
(341,-242,o),
(296,-251,c),
(296,-295,l),
(364,-293,o),
(413,-235,o),
(413,-156,c)
);
}
);
width = 722;
},
{
layerId = "B4AF9C66-4182-4BB3-8260-B15F342CB5AD";
shapes = (
{
closed = 1;
nodes = (
(645,0,l),
(357,415,l),
(642,700,l),
(527,700,l),
(178,346,l),
(178,700,l),
(89,700,l),
(89,0,l),
(178,0,l),
(178,245,l),
(292,359,l),
(539,0,l)
);
},
{
closed = 1;
nodes = (
(406,-58,l),
(310,-58,l),
(310,-154,l),
(362,-154,l),
(362,-206,o),
(347,-236,o),
(310,-236,c),
(310,-273,l),
(369,-273,o),
(406,-229,o),
(406,-156,c)
);
}
);
width = 667;
},
{
layerId = "72302C92-9F48-4323-B731-8A9E50B35526";
shapes = (
{
closed = 1;
nodes = (
(622,0,l),
(342,422,l),
(630,700,l),
(538,700,l),
(158,327,l),
(158,700,l),
(91,700,l),
(91,0,l),
(158,0,l),
(158,250,l),
(290,380,l),
(544,0,l)
);
},
{
closed = 1;
nodes = (
(404,-58,l),
(316,-58,l),
(316,-149,l),
(364,-149,l),
(364,-203,o),
(351,-233,o),
(316,-230,c),
(316,-264,l),
(373,-265,o),
(404,-227,o),
(404,-156,cs)
);
}
);
width = 645;
}
);
unicode = 310;
},
{
glyphname = kcedilla;
layers = (
{
layerId = "68A22FE7-C8F3-439C-857C-EB17D6453AAF";
name = "#instance";
shapes = (
{
closed = 1;
nodes = (
(483,0,l),
(263,346,l),
(444,517,l),
(358,517,l),
(118,290,l),
(118,729,l),
(58,729,l),
(58,0,l),
(118,0,l),
(118,215,l),
(209,303,l),
(406,0,l)
);
},
{
closed = 1;
nodes = (
(288,-60,l),
(197,-60,l),
(197,-155,l),
(247,-155,l),
(247,-212,o),
(233,-243,o),
(197,-240,c),
(197,-275,l),
(256,-276,o),
(288,-236,o),
(288,-163,cs)
);
}
);
width = 477;
},
{
layerId = "E4F5910F-7A79-4870-ADFC-893AC9D78200";
shapes = (
{
closed = 1;
nodes = (
(571,0,l),
(383,333,l),
(567,548,l),
(382,548,l),
(228,344,l),
(228,729,l),
(60,729,l),
(60,0,l),
(228,0,l),
(228,164,l),
(271,215,l),
(377,0,l)
);
},
{
closed = 1;
nodes = (
(349,-60,l),
(216,-60,l),
(216,-178,l),
(289,-178,l),
(289,-227,o),
(267,-255,o),
(216,-268,c),
(216,-318,l),
(291,-315,o),
(349,-248,o),
(349,-163,cs)
);
}
);
width = 584;
},
{
layerId = "0486BCA8-F793-4B15-B8A2-0882358C0736";
shapes = (
{
closed = 1;
nodes = (
(548,0,l),
(351,336,l),
(535,540,l),
(376,540,l),
(199,330,l),
(199,729,l),
(59,729,l),
(59,0,l),
(199,0,l),
(199,177,l),
(255,238,l),
(384,0,l)
);
},
{
closed = 1;
nodes = (
(333,-60,l),
(211,-60,l),
(211,-172,l),
(278,-172,l),
(278,-223,o),
(258,-252,o),
(211,-261,c),
(211,-307,l),
(282,-305,o),
(333,-245,o),
(333,-163,c)
);
}
);
width = 556;
},
{
layerId = "B4AF9C66-4182-4BB3-8260-B15F342CB5AD";
shapes = (
{
closed = 1;
nodes = (
(502,0,l),
(288,343,l),
(470,524,l),
(363,524,l),
(141,302,l),
(141,729,l),
(58,729,l),
(58,0,l),
(141,0,l),
(141,204,l),
(222,284,l),
(399,0,l)
);
},
{
closed = 1;
nodes = (
(301,-60,l),
(201,-60,l),
(201,-160,l),
(256,-160,l),
(256,-215,o),
(240,-246,o),
(201,-246,c),
(201,-284,l),
(263,-284,o),
(301,-239,o),
(301,-163,c)
);
}
);
width = 500;
},
{
layerId = "72302C92-9F48-4323-B731-8A9E50B35526";
shapes = (
{
closed = 1;
nodes = (
(483,0,l),
(263,346,l),
(444,517,l),
(358,517,l),
(118,290,l),
(118,729,l),
(58,729,l),
(58,0,l),
(118,0,l),
(118,215,l),
(209,303,l),
(406,0,l)
);
},
{
closed = 1;
nodes = (
(288,-60,l),
(197,-60,l),
(197,-155,l),
(247,-155,l),
(247,-212,o),
(233,-243,o),
(197,-240,c),
(197,-275,l),
(256,-276,o),
(288,-236,o),
(288,-163,cs)
);
}
);
width = 477;
}
);
unicode = 311;
},
{
glyphname = Lcedilla;
layers = (
{
layerId = "68A22FE7-C8F3-439C-857C-EB17D6453AAF";
name = "#instance";
shapes = (
{
closed = 1;
nodes = (
(505,0,l),
(505,62,l),
(155,62,l),
(155,700,l),
(88,700,l),
(88,0,l)
);
},
{
closed = 1;
nodes = (
(344,-58,l),
(257,-58,l),
(257,-149,l),
(305,-149,l),
(305,-203,o),
(291,-233,o),
(257,-230,c),
(257,-264,l),
(313,-265,o),
(344,-227,o),
(344,-156,cs)
);
}
);
width = 534;
},
{
layerId = "E4F5910F-7A79-4870-ADFC-893AC9D78200";
shapes = (
{
closed = 1;
nodes = (
(591,0,l),
(591,141,l),
(261,141,l),
(261,700,l),
(90,700,l),
(90,0,l)
);
},
{
closed = 1;
nodes = (
(395,-58,l),
(267,-58,l),
(267,-171,l),
(337,-171,l),
(337,-218,o),
(317,-245,o),
(267,-258,c),
(267,-305,l),
(339,-303,o),
(395,-238,o),
(395,-156,cs)
);
}
);
width = 639;
},
{
layerId = "0486BCA8-F793-4B15-B8A2-0882358C0736";
shapes = (
{
closed = 1;
nodes = (
(568,0,l),
(568,120,l),
(233,120,l),
(233,700,l),
(89,700,l),
(89,0,l)
);
},
{
closed = 1;
nodes = (
(382,-58,l),
(264,-58,l),
(264,-165,l),
(329,-165,l),
(329,-214,o),
(310,-242,o),
(264,-251,c),
(264,-295,l),
(333,-293,o),
(382,-235,o),
(382,-156,c)
);
}
);
width = 611;
},
{
layerId = "B4AF9C66-4182-4BB3-8260-B15F342CB5AD";
shapes = (
{
closed = 1;
nodes = (
(523,0,l),
(523,79,l),
(177,79,l),
(177,700,l),
(88,700,l),
(88,0,l)
);
},
{
closed = 1;
nodes = (
(355,-58,l),
(259,-58,l),
(259,-154,l),
(311,-154,l),
(311,-206,o),
(296,-236,o),
(259,-236,c),
(259,-273,l),
(318,-273,o),
(355,-229,o),
(355,-156,c)
);
}
);
width = 556;
},
{
layerId = "72302C92-9F48-4323-B731-8A9E50B35526";
shapes = (
{
closed = 1;
nodes = (
(505,0,l),
(505,62,l),
(155,62,l),
(155,700,l),
(88,700,l),
(88,0,l)
);
},
{
closed = 1;
nodes = (
(344,-58,l),
(257,-58,l),
(257,-149,l),
(305,-149,l),
(305,-203,o),
(291,-233,o),
(257,-230,c),
(257,-264,l),
(313,-265,o),
(344,-227,o),
(344,-156,cs)
);
}
);
width = 534;
}
);
unicode = 315;
},
{
glyphname = lcedilla;
layers = (
{
layerId = "68A22FE7-C8F3-439C-857C-EB17D6453AAF";
name = "#instance";
shapes = (
{
closed = 1;
nodes = (
(129,0,l),
(129,729,l),
(69,729,l),
(69,0,l)
);
},
{
closed = 1;
nodes = (
(149,-60,l),
(58,-60,l),
(58,-155,l),
(109,-155,l),
(109,-212,o),
(95,-243,o),
(58,-240,c),
(58,-275,l),
(117,-276,o),
(149,-236,o),
(149,-163,cs)
);
}
);
width = 199;
},
{
layerId = "E4F5910F-7A79-4870-ADFC-893AC9D78200";
shapes = (
{
closed = 1;
nodes = (
(234,0,l),
(234,729,l),
(66,729,l),
(66,0,l)
);
},
{
closed = 1;
nodes = (
(210,-60,l),
(77,-60,l),
(77,-178,l),
(150,-178,l),
(150,-227,o),
(128,-255,o),
(77,-268,c),
(77,-318,l),
(152,-315,o),
(210,-248,o),
(210,-163,cs)
);
}
);
width = 306;
},
{
layerId = "0486BCA8-F793-4B15-B8A2-0882358C0736";
shapes = (
{
closed = 1;
nodes = (
(207,0,l),
(207,729,l),
(67,729,l),
(67,0,l)
);
},
{
closed = 1;
nodes = (
(194,-60,l),
(72,-60,l),
(72,-172,l),
(139,-172,l),
(139,-223,o),
(119,-252,o),
(72,-261,c),
(72,-307,l),
(143,-305,o),
(194,-245,o),
(194,-163,c)
);
}
);
width = 278;
},
{
layerId = "B4AF9C66-4182-4BB3-8260-B15F342CB5AD";
shapes = (
{
closed = 1;
nodes = (
(151,0,l),
(151,729,l),
(68,729,l),
(68,0,l)
);
},
{
closed = 1;
nodes = (
(162,-60,l),
(62,-60,l),
(62,-160,l),
(117,-160,l),
(117,-215,o),
(101,-246,o),
(62,-246,c),
(62,-284,l),
(124,-284,o),
(162,-239,o),
(162,-163,c)
);
}
);
width = 222;
},
{
layerId = "72302C92-9F48-4323-B731-8A9E50B35526";
shapes = (
{
closed = 1;
nodes = (
(129,0,l),
(129,729,l),
(69,729,l),
(69,0,l)
);
},
{
closed = 1;
nodes = (
(149,-60,l),
(58,-60,l),
(58,-155,l),
(109,-155,l),
(109,-212,o),
(95,-243,o),
(58,-240,c),
(58,-275,l),
(117,-276,o),
(149,-236,o),
(149,-163,cs)
);
}
);
width = 199;
}
);
unicode = 316;
},
{
glyphname = macron.dup;
layers = (
{
layerId = "68A22FE7-C8F3-439C-857C-EB17D6453AAF";
name = "#instance";
shapes = (
{
closed = 1;
nodes = (
(297,613,l),
(297,680,l),
(33,680,l),
(33,613,l)
);
}
);
width = 333;
},
{
layerId = "E4F5910F-7A79-4870-ADFC-893AC9D78200";
shapes = (
{
closed = 1;
nodes = (
(322,644,l),
(322,727,l),
(10,727,l),
(10,644,l)
);
}
);
width = 333;
},
{
layerId = "0486BCA8-F793-4B15-B8A2-0882358C0736";
shapes = (
{
closed = 1;
nodes = (
(315,636,l),
(315,715,l),
(16,715,l),
(16,636,l)
);
}
);
width = 333;
},
{
layerId = "B4AF9C66-4182-4BB3-8260-B15F342CB5AD";
shapes = (
{
closed = 1;
nodes = (
(302,620,l),
(302,690,l),
(28,690,l),
(28,620,l)
);
}
);
width = 333;
},
{
layerId = "72302C92-9F48-4323-B731-8A9E50B35526";
shapes = (
{
closed = 1;
nodes = (
(297,613,l),
(297,680,l),
(33,680,l),
(33,613,l)
);
}
);
width = 333;
}
);
},
{
glyphname = Ncedilla;
layers = (
{
layerId = "68A22FE7-C8F3-439C-857C-EB17D6453AAF";
name = "#instance";
shapes = (
{
closed = 1;
nodes = (
(628,0,l),
(628,700,l),
(569,700,l),
(569,88,l),
(166,700,l),
(90,700,l),
(90,0,l),
(150,0,l),
(150,603,l),
(545,0,l)
);
},
{
closed = 1;
nodes = (
(409,-58,l),
(321,-58,l),
(321,-149,l),
(369,-149,l),
(369,-203,o),
(356,-233,o),
(321,-230,c),
(321,-264,l),
(378,-265,o),
(409,-227,o),
(409,-156,cs)
);
}
);
width = 722;
},
{
layerId = "E4F5910F-7A79-4870-ADFC-893AC9D78200";
shapes = (
{
closed = 1;
nodes = (
(656,0,l),
(656,700,l),
(483,700,l),
(483,272,l),
(249,700,l),
(75,700,l),
(75,0,l),
(249,0,l),
(249,442,l),
(490,0,l)
);
},
{
closed = 1;
nodes = (
(415,-58,l),
(288,-58,l),
(288,-171,l),
(358,-171,l),
(358,-218,o),
(337,-245,o),
(288,-258,c),
(288,-305,l),
(360,-303,o),
(415,-238,o),
(415,-156,cs)
);
}
);
width = 722;
},
{
layerId = "0486BCA8-F793-4B15-B8A2-0882358C0736";
shapes = (
{
closed = 1;
nodes = (
(649,0,l),
(649,700,l),
(505,700,l),
(505,224,l),
(227,700,l),
(79,700,l),
(79,0,l),
(223,0,l),
(223,484,l),
(505,0,l)
);
},
{
closed = 1;
nodes = (
(413,-58,l),
(296,-58,l),
(296,-165,l),
(361,-165,l),
(361,-214,o),
(341,-242,o),
(296,-251,c),
(296,-295,l),
(364,-293,o),
(413,-235,o),
(413,-156,c)
);
}
);
width = 722;
},
{
layerId = "B4AF9C66-4182-4BB3-8260-B15F342CB5AD";
shapes = (
{
closed = 1;
nodes = (
(634,0,l),
(634,700,l),
(550,700,l),
(550,128,l),
(184,700,l),
(87,700,l),
(87,0,l),
(171,0,l),
(171,567,l),
(533,0,l)
);
},
{
closed = 1;
nodes = (
(410,-58,l),
(314,-58,l),
(314,-154,l),
(366,-154,l),
(366,-206,o),
(351,-236,o),
(314,-236,c),
(314,-273,l),
(373,-273,o),
(410,-229,o),
(410,-156,c)
);
}
);
width = 722;
},
{
layerId = "72302C92-9F48-4323-B731-8A9E50B35526";
shapes = (
{
closed = 1;
nodes = (
(628,0,l),
(628,700,l),
(569,700,l),
(569,88,l),
(166,700,l),
(90,700,l),
(90,0,l),
(150,0,l),
(150,603,l),
(545,0,l)
);
},
{
closed = 1;
nodes = (
(409,-58,l),
(321,-58,l),
(321,-149,l),
(369,-149,l),
(369,-203,o),
(356,-233,o),
(321,-230,c),
(321,-264,l),
(378,-265,o),
(409,-227,o),
(409,-156,cs)
);
}
);
width = 722;
}
);
unicode = 325;
},
{
glyphname = ncedilla;
layers = (
{
layerId = "68A22FE7-C8F3-439C-857C-EB17D6453AAF";
name = "#instance";
shapes = (
{
closed = 1;
nodes = (
(463,0,l),
(463,410,ls),
(463,484,o),
(398,535,o),
(303,535,cs),
(223,535,o),
(173,504,o),
(124,425,c),
(124,518,l),
(73,518,l),
(73,0,l),
(133,0,l),
(133,275,ls),
(133,399,o),
(196,481,o),
(288,481,cs),
(356,481,o),
(403,439,o),
(403,375,cs),
(403,0,l)
);
},
{
closed = 1;
nodes = (
(316,-60,l),
(225,-60,l),
(225,-155,l),
(275,-155,l),
(275,-212,o),
(261,-243,o),
(225,-240,c),
(225,-275,l),
(284,-276,o),
(316,-236,o),
(316,-163,cs)
);
}
);
width = 534;
},
{
layerId = "E4F5910F-7A79-4870-ADFC-893AC9D78200";
shapes = (
{
closed = 1;
nodes = (
(575,0,l),
(575,345,ls),
(575,480,o),
(508,554,o),
(387,554,cs),
(316,554,o),
(268,529,o),
(230,475,c),
(230,548,l),
(59,548,l),
(59,0,l),
(227,0,l),
(227,341,ls),
(227,384,o),
(266,412,o),
(326,412,cs),
(383,412,o),
(407,383,o),
(407,318,cs),
(407,0,l)
);
},
{
closed = 1;
nodes = (
(377,-60,l),
(244,-60,l),
(244,-178,l),
(317,-178,l),
(317,-227,o),
(295,-255,o),
(244,-268,c),
(244,-318,l),
(319,-315,o),
(377,-248,o),
(377,-163,cs)
);
}
);
width = 639;
},
{
layerId = "0486BCA8-F793-4B15-B8A2-0882358C0736";
shapes = (
{
closed = 1;
nodes = (
(546,0,l),
(546,362,ls),
(546,481,o),
(480,549,o),
(365,549,cs),
(292,549,o),
(243,522,o),
(203,462,c),
(203,540,l),
(63,540,l),
(63,0,l),
(203,0,l),
(203,324,ls),
(203,388,o),
(248,430,o),
(316,430,cs),
(376,430,o),
(406,397,o),
(406,333,cs),
(406,0,l)
);
},
{
closed = 1;
nodes = (
(361,-60,l),
(239,-60,l),
(239,-172,l),
(306,-172,l),
(306,-223,o),
(286,-252,o),
(239,-261,c),
(239,-307,l),
(310,-305,o),
(361,-245,o),
(361,-163,c)
);
}
);
width = 611;
},
{
layerId = "B4AF9C66-4182-4BB3-8260-B15F342CB5AD";
shapes = (
{
closed = 1;
nodes = (
(487,0,l),
(487,396,ls),
(487,483,o),
(422,539,o),
(321,539,cs),
(243,539,o),
(193,509,o),
(147,436,c),
(147,524,l),
(70,524,l),
(70,0,l),
(153,0,l),
(153,289,ls),
(153,396,o),
(211,466,o),
(296,466,cs),
(362,466,o),
(404,426,o),
(404,363,cs),
(404,0,l)
);
},
{
closed = 1;
nodes = (
(329,-60,l),
(229,-60,l),
(229,-160,l),
(284,-160,l),
(284,-215,o),
(268,-246,o),
(229,-246,c),
(229,-284,l),
(291,-284,o),
(329,-239,o),
(329,-163,c)
);
}
);
width = 556;
},
{
layerId = "72302C92-9F48-4323-B731-8A9E50B35526";
shapes = (
{
closed = 1;
nodes = (
(463,0,l),
(463,410,ls),
(463,484,o),
(398,535,o),
(303,535,cs),
(223,535,o),
(173,504,o),
(124,425,c),
(124,518,l),
(73,518,l),
(73,0,l),
(133,0,l),
(133,275,ls),
(133,399,o),
(196,481,o),
(288,481,cs),
(356,481,o),
(403,439,o),
(403,375,cs),
(403,0,l)
);
},
{
closed = 1;
nodes = (
(316,-60,l),
(225,-60,l),
(225,-155,l),
(275,-155,l),
(275,-212,o),
(261,-243,o),
(225,-240,c),
(225,-275,l),
(284,-276,o),
(316,-236,o),
(316,-163,cs)
);
}
);
width = 534;
}
);
unicode = 326;
},
{
glyphname = OE.dup;
layers = (
{
layerId = "68A22FE7-C8F3-439C-857C-EB17D6453AAF";
name = "#instance";
shapes = (
{
closed = 1;
nodes = (
(938,0,l),
(938,62,l),
(612,62,l),
(612,320,l),
(939,320,l),
(939,382,l),
(612,382,l),
(612,638,l),
(939,638,l),
(939,700,l),
(543,700,l),
(543,618,l),
(505,680,o),
(440,711,o),
(354,711,cs),
(177,711,o),
(68,575,o),
(68,342,cs),
(68,115,o),
(173,-16,o),
(355,-16,cs),
(438,-16,o),
(500,15,o),
(543,79,c),
(543,0,l)
);
},
{
closed = 1;
nodes = (
(545,178,l),
(503,88,o),
(436,44,o),
(343,44,cs),
(204,44,o),
(135,145,o),
(135,347,cs),
(135,550,o),
(202,652,o),
(344,652,cs),
(437,652,o),
(503,607,o),
(545,517,c)
);
}
);
width = 1000;
},
{
layerId = "E4F5910F-7A79-4870-ADFC-893AC9D78200";
shapes = (
{
closed = 1;
nodes = (
(956,0,l),
(956,141,l),
(622,141,l),
(622,295,l),
(896,295,l),
(896,436,l),
(622,436,l),
(622,559,l),
(932,559,l),
(932,700,l),
(459,700,l),
(459,661,l),
(410,700,o),
(382,711,o),
(330,711,cs),
(162,711,o),
(40,556,o),
(40,347,cs),
(40,136,o),
(165,-6,o),
(324,-6,cs),
(384,-6,o),
(411,9,o),
(459,67,c),
(459,0,l)
);
},
{
closed = 1;
nodes = (
(450,186,l),
(427,152,o),
(405,139,o),
(367,139,cs),
(280,139,o),
(212,218,o),
(212,344,cs),
(212,471,o),
(280,566,o),
(368,566,cs),
(406,566,o),
(427,553,o),
(450,518,c)
);
}
);
width = 1000;
},
{
layerId = "0486BCA8-F793-4B15-B8A2-0882358C0736";
shapes = (
{
closed = 1;
nodes = (
(951,0,l),
(951,120,l),
(619,120,l),
(619,301,l),
(906,301,l),
(906,421,l),
(619,421,l),
(619,580,l),
(933,580,l),
(933,700,l),
(481,700,l),
(481,650,l),
(435,695,o),
(397,711,o),
(336,711,cs),
(165,711,o),
(47,561,o),
(47,345,cs),
(47,131,o),
(166,-9,o),
(332,-9,cs),
(397,-9,o),
(434,11,o),
(481,70,c),
(481,0,l)
);
},
{
closed = 1;
nodes = (
(475,184,l),
(447,135,o),
(413,114,o),
(361,114,cs),
(259,114,o),
(191,199,o),
(191,345,cs),
(191,492,o),
(259,588,o),
(362,588,cs),
(414,588,o),
(447,567,o),
(475,518,c)
);
}
);
width = 1000;
},
{
layerId = "B4AF9C66-4182-4BB3-8260-B15F342CB5AD";
shapes = (
{
closed = 1;
nodes = (
(941,0,l),
(941,79,l),
(613,79,l),
(613,314,l),
(928,314,l),
(928,393,l),
(613,393,l),
(613,621,l),
(936,621,l),
(936,700,l),
(524,700,l),
(524,627,l),
(484,684,o),
(427,711,o),
(348,711,cs),
(173,711,o),
(61,570,o),
(61,342,cs),
(61,119,o),
(170,-14,o),
(347,-14,cs),
(425,-14,o),
(480,13,o),
(524,76,c),
(524,0,l)
);
},
{
closed = 1;
nodes = (
(524,180,l),
(486,102,o),
(428,64,o),
(347,64,cs),
(219,64,o),
(151,160,o),
(151,346,cs),
(151,533,o),
(218,633,o),
(348,633,cs),
(429,633,o),
(486,595,o),
(524,517,c)
);
}
);
width = 1000;
},
{
layerId = "72302C92-9F48-4323-B731-8A9E50B35526";
shapes = (
{
closed = 1;
nodes = (
(938,0,l),
(938,62,l),
(612,62,l),
(612,320,l),
(939,320,l),
(939,382,l),
(612,382,l),
(612,638,l),
(939,638,l),
(939,700,l),
(543,700,l),
(543,618,l),
(505,680,o),
(440,711,o),
(354,711,cs),
(177,711,o),
(68,575,o),
(68,342,cs),
(68,115,o),
(173,-16,o),
(355,-16,cs),
(438,-16,o),
(500,15,o),
(543,79,c),
(543,0,l)
);
},
{
closed = 1;
nodes = (
(545,178,l),
(503,88,o),
(436,44,o),
(343,44,cs),
(204,44,o),
(135,145,o),
(135,347,cs),
(135,550,o),
(202,652,o),
(344,652,cs),
(437,652,o),
(503,607,o),
(545,517,c)
);
}
);
width = 1000;
}
);
},
{
glyphname = oe.dup;
layers = (
{
layerId = "68A22FE7-C8F3-439C-857C-EB17D6453AAF";
name = "#instance";
shapes = (
{
closed = 1;
nodes = (
(891,237,l),
(891,442,o),
(821,535,o),
(667,535,cs),
(583,535,o),
(508,491,o),
(468,416,c),
(432,495,o),
(364,535,o),
(272,535,cs),
(127,535,o),
(47,437,o),
(47,257,cs),
(47,82,o),
(127,-17,o),
(272,-17,cs),
(363,-17,o),
(427,21,o),
(465,97,c),
(504,25,o),
(575,-17,o),
(666,-17,cs),
(784,-17,o),
(861,51,o),
(877,162,c),
(815,162,l),
(788,87,o),
(740,47,o),
(665,47,cs),
(572,47,o),
(497,120,o),
(495,237,c)
);
},
{
closed = 1;
nodes = (
(431,125,o),
(371,45,o),
(272,45,cs),
(171,45,o),
(112,125,o),
(112,257,cs),
(112,393,o),
(171,473,o),
(272,473,cs),
(373,473,o),
(431,392,o),
(431,254,cs)
);
},
{
closed = 1;
nodes = (
(497,295,l),
(504,399,o),
(572,471,o),
(665,471,cs),
(761,471,o),
(827,394,o),
(824,295,c)
);
}
);
width = 944;
},
{
layerId = "E4F5910F-7A79-4870-ADFC-893AC9D78200";
shapes = (
{
closed = 1;
nodes = (
(929,222,l),
(942,439,o),
(848,554,o),
(664,554,cs),
(592,554,o),
(535,535,o),
(491,493,c),
(438,534,o),
(372,554,o),
(297,554,cs),
(123,554,o),
(15,442,o),
(15,265,cs),
(15,105,o),
(123,-6,o),
(297,-6,cs),
(372,-6,o),
(436,15,o),
(492,55,c),
(536,15,o),
(598,-6,o),
(663,-6,cs),
(786,-6,o),
(890,64,o),
(927,148,c),
(762,148,l),
(754,140,o),
(713,116,o),
(673,116,cs),
(610,116,o),
(581,129,o),
(579,222,c)
);
},
{
closed = 1;
nodes = (
(412,192,o),
(363,125,o),
(297,125,cs),
(229,125,o),
(181,192,o),
(181,265,cs),
(181,357,o),
(229,423,o),
(297,423,cs),
(365,423,o),
(412,359,o),
(412,264,cs)
);
},
{
closed = 1;
nodes = (
(581,328,l),
(588,399,o),
(614,432,o),
(667,432,cs),
(710,432,o),
(744,407,o),
(757,328,c)
);
}
);
width = 944;
},
{
layerId = "0486BCA8-F793-4B15-B8A2-0882358C0736";
shapes = (
{
closed = 1;
nodes = (
(919,226,l),
(935,417,o),
(831,549,o),
(665,549,cs),
(590,549,o),
(528,523,o),
(485,473,c),
(436,524,o),
(370,549,o),
(290,549,cs),
(124,549,o),
(23,441,o),
(23,263,cs),
(23,99,o),
(124,-9,o),
(290,-9,cs),
(370,-9,o),
(434,16,o),
(485,66,c),
(528,17,o),
(592,-9,o),
(664,-9,cs),
(785,-9,o),
(882,60,o),
(914,152,c),
(776,152,l),
(763,126,o),
(720,98,o),
(671,98,cs),
(600,98,o),
(559,127,o),
(557,226,c)
);
},
{
closed = 1;
nodes = (
(417,174,o),
(365,104,o),
(290,104,cs),
(214,104,o),
(163,174,o),
(163,263,cs),
(163,366,o),
(214,436,o),
(290,436,cs),
(367,436,o),
(417,367,o),
(417,261,cs)
);
},
{
closed = 1;
nodes = (
(559,319,l),
(566,399,o),
(603,442,o),
(666,442,cs),
(723,442,o),
(765,404,o),
(774,319,c)
);
}
);
width = 944;
},
{
layerId = "B4AF9C66-4182-4BB3-8260-B15F342CB5AD";
shapes = (
{
closed = 1;
nodes = (
(899,234,l),
(899,436,o),
(820,539,o),
(666,539,cs),
(585,539,o),
(514,500,o),
(473,433,c),
(433,503,o),
(366,539,o),
(277,539,cs),
(126,539,o),
(40,438,o),
(40,259,cs),
(40,87,o),
(126,-15,o),
(277,-15,cs),
(365,-15,o),
(429,19,o),
(471,88,c),
(511,22,o),
(580,-15,o),
(665,-15,cs),
(784,-15,o),
(867,53,o),
(888,159,c),
(804,159,l),
(781,98,o),
(734,62,o),
(667,62,cs),
(580,62,o),
(515,122,o),
(513,234,c)
);
},
{
closed = 1;
nodes = (
(427,139,o),
(369,62,o),
(277,62,cs),
(184,62,o),
(127,139,o),
(127,259,cs),
(127,385,o),
(184,462,o),
(277,462,cs),
(371,462,o),
(427,385,o),
(427,256,cs)
);
},
{
closed = 1;
nodes = (
(515,302,l),
(522,399,o),
(581,462,o),
(665,462,cs),
(750,462,o),
(809,397,o),
(809,302,c)
);
}
);
width = 944;
},
{
layerId = "72302C92-9F48-4323-B731-8A9E50B35526";
shapes = (
{
closed = 1;
nodes = (
(891,237,l),
(891,442,o),
(821,535,o),
(667,535,cs),
(583,535,o),
(508,491,o),
(468,416,c),
(432,495,o),
(364,535,o),
(272,535,cs),
(127,535,o),
(47,437,o),
(47,257,cs),
(47,82,o),
(127,-17,o),
(272,-17,cs),
(363,-17,o),
(427,21,o),
(465,97,c),
(504,25,o),
(575,-17,o),
(666,-17,cs),
(784,-17,o),
(861,51,o),
(877,162,c),
(815,162,l),
(788,87,o),
(740,47,o),
(665,47,cs),
(572,47,o),
(497,120,o),
(495,237,c)
);
},
{
closed = 1;
nodes = (
(431,125,o),
(371,45,o),
(272,45,cs),
(171,45,o),
(112,125,o),
(112,257,cs),
(112,393,o),
(171,473,o),
(272,473,cs),
(373,473,o),
(431,392,o),
(431,254,cs)
);
},
{
closed = 1;
nodes = (
(497,295,l),
(504,399,o),
(572,471,o),
(665,471,cs),
(761,471,o),
(827,394,o),
(824,295,c)
);
}
);
width = 944;
}
);
},
{
glyphname = Oslash.dup;
layers = (
{
layerId = "68A22FE7-C8F3-439C-857C-EB17D6453AAF";
name = "#instance";
shapes = (
{
closed = 1;
nodes = (
(729,445,o),
(700,537,o),
(647,604,c),
(730,694,l),
(701,719,l),
(622,631,l),
(563,688,o),
(484,720,o),
(389,720,cs),
(192,720,o),
(52,569,o),
(52,343,cs),
(52,241,o),
(80,157,o),
(132,95,c),
(52,7,l),
(80,-18,l),
(157,66,l),
(216,12,o),
(296,-19,o),
(390,-19,cs),
(597,-19,o),
(729,131,o),
(729,337,cs)
);
},
{
closed = 1;
nodes = (
(662,159,o),
(552,41,o),
(390,41,cs),
(314,41,o),
(248,67,o),
(201,116,c),
(601,554,l),
(641,499,o),
(662,425,o),
(662,339,cs)
);
},
{
closed = 1;
nodes = (
(175,143,l),
(139,194,o),
(119,263,o),
(119,343,cs),
(119,529,o),
(228,659,o),
(389,659,cs),
(466,659,o),
(530,633,o),
(577,583,c)
);
}
);
width = 778;
},
{
layerId = "E4F5910F-7A79-4870-ADFC-893AC9D78200";
shapes = (
{
closed = 1;
nodes = (
(728,431,o),
(706,506,o),
(666,566,c),
(726,630,l),
(649,704,l),
(592,644,l),
(538,684,o),
(469,708,o),
(390,708,cs),
(183,708,o),
(55,544,o),
(55,353,cs),
(55,270,o),
(77,194,o),
(117,132,c),
(57,69,l),
(136,-5,l),
(192,55,l),
(244,14,o),
(313,-9,o),
(392,-9,cs),
(594,-9,o),
(728,145,o),
(728,349,cs)
);
},
{
closed = 1;
nodes = (
(557,219,o),
(491,136,o),
(392,136,cs),
(356,136,o),
(323,148,o),
(296,169,c),
(548,440,l),
(554,411,o),
(557,381,o),
(557,349,cs)
);
},
{
closed = 1;
nodes = (
(236,261,l),
(231,289,o),
(227,319,o),
(227,353,cs),
(227,478,o),
(292,563,o),
(392,563,cs),
(429,563,o),
(462,552,o),
(487,532,c)
);
}
);
width = 778;
},
{
layerId = "0486BCA8-F793-4B15-B8A2-0882358C0736";
shapes = (
{
closed = 1;
nodes = (
(728,435,o),
(704,515,o),
(661,576,c),
(727,647,l),
(662,708,l),
(600,641,l),
(545,685,o),
(473,711,o),
(390,711,cs),
(185,711,o),
(54,551,o),
(54,350,cs),
(54,262,o),
(77,184,o),
(121,123,c),
(55,53,l),
(121,-9,l),
(182,58,l),
(237,13,o),
(308,-12,o),
(391,-12,cs),
(595,-12,o),
(728,141,o),
(728,346,cs)
);
},
{
closed = 1;
nodes = (
(584,204,o),
(507,111,o),
(391,111,cs),
(344,111,o),
(303,127,o),
(271,155,c),
(562,469,l),
(577,434,o),
(584,393,o),
(584,347,cs)
);
},
{
closed = 1;
nodes = (
(220,230,l),
(206,264,o),
(198,304,o),
(198,350,cs),
(198,492,o),
(275,588,o),
(391,588,cs),
(438,588,o),
(480,573,o),
(510,545,c)
);
}
);
width = 778;
},
{
layerId = "B4AF9C66-4182-4BB3-8260-B15F342CB5AD";
shapes = (
{
closed = 1;
nodes = (
(728,442,o),
(700,530,o),
(651,595,c),
(728,680,l),
(689,715,l),
(615,634,l),
(557,687,o),
(481,717,o),
(389,717,cs),
(189,717,o),
(52,564,o),
(52,345,cs),
(52,247,o),
(79,164,o),
(128,103,c),
(52,20,l),
(92,-15,l),
(164,63,l),
(221,12,o),
(299,-17,o),
(390,-17,cs),
(596,-17,o),
(728,133,o),
(728,339,cs)
);
},
{
closed = 1;
nodes = (
(639,172,o),
(538,61,o),
(390,61,cs),
(322,61,o),
(264,84,o),
(221,127,c),
(590,529,l),
(622,480,o),
(639,415,o),
(639,341,cs)
);
},
{
closed = 1;
nodes = (
(188,168,l),
(158,214,o),
(142,275,o),
(142,345,cs),
(142,517,o),
(242,638,o),
(389,638,cs),
(458,638,o),
(515,614,o),
(557,571,c)
);
}
);
width = 778;
},
{
layerId = "72302C92-9F48-4323-B731-8A9E50B35526";
shapes = (
{
closed = 1;
nodes = (
(729,445,o),
(700,537,o),
(647,604,c),
(730,694,l),
(701,719,l),
(622,631,l),
(563,688,o),
(484,720,o),
(389,720,cs),
(192,720,o),
(52,569,o),
(52,343,cs),
(52,241,o),
(80,157,o),
(132,95,c),
(52,7,l),
(80,-18,l),
(157,66,l),
(216,12,o),
(296,-19,o),
(390,-19,cs),
(597,-19,o),
(729,131,o),
(729,337,cs)
);
},
{
closed = 1;
nodes = (
(662,159,o),
(552,41,o),
(390,41,cs),
(314,41,o),
(248,67,o),
(201,116,c),
(601,554,l),
(641,499,o),
(662,425,o),
(662,339,cs)
);
},
{
closed = 1;
nodes = (
(175,143,l),
(139,194,o),
(119,263,o),
(119,343,cs),
(119,529,o),
(228,659,o),
(389,659,cs),
(466,659,o),
(530,633,o),
(577,583,c)
);
}
);
width = 778;
}
);
},
{
glyphname = oslash.dup;
layers = (
{
layerId = "68A22FE7-C8F3-439C-857C-EB17D6453AAF";
name = "#instance";
shapes = (
{
closed = 1;
nodes = (
(486,337,o),
(468,403,o),
(437,451,c),
(485,511,l),
(458,531,l),
(415,478,l),
(377,516,o),
(325,535,o),
(260,535,cs),
(121,535,o),
(37,435,o),
(37,259,cs),
(37,180,o),
(55,116,o),
(86,68,c),
(38,7,l),
(65,-13,l),
(108,40,l),
(146,4,o),
(198,-17,o),
(262,-17,cs),
(401,-17,o),
(486,84,o),
(486,255,cs)
);
},
{
closed = 1;
nodes = (
(421,124,o),
(360,45,o),
(262,45,cs),
(214,45,o),
(176,62,o),
(149,94,c),
(395,395,l),
(412,358,o),
(421,312,o),
(421,256,cs)
);
},
{
closed = 1;
nodes = (
(128,123,l),
(111,159,o),
(102,206,o),
(102,259,cs),
(102,395,o),
(162,473,o),
(262,473,cs),
(309,473,o),
(346,457,o),
(374,424,c)
);
}
);
width = 534;
},
{
layerId = "E4F5910F-7A79-4870-ADFC-893AC9D78200";
shapes = (
{
closed = 1;
nodes = (
(598,339,o),
(584,396,o),
(555,440,c),
(592,476,l),
(520,547,l),
(485,513,l),
(439,540,o),
(382,554,o),
(315,554,cs),
(141,554,o),
(34,451,o),
(34,274,cs),
(34,207,o),
(49,152,o),
(77,108,c),
(40,72,l),
(112,1,l),
(147,36,l),
(193,9,o),
(250,-6,o),
(316,-6,cs),
(489,-6,o),
(598,97,o),
(598,270,cs)
);
},
{
closed = 1;
nodes = (
(432,183,o),
(383,125,o),
(316,125,cs),
(294,125,o),
(273,131,o),
(254,143,c),
(431,313,l),
(431,300,o),
(432,287,o),
(432,272,cs)
);
},
{
closed = 1;
nodes = (
(201,235,l),
(201,248,o),
(200,260,o),
(200,274,cs),
(200,365,o),
(248,423,o),
(316,423,cs),
(338,423,o),
(361,416,o),
(378,405,c)
);
}
);
width = 639;
},
{
layerId = "0486BCA8-F793-4B15-B8A2-0882358C0736";
shapes = (
{
closed = 1;
nodes = (
(569,338,o),
(554,398,o),
(524,443,c),
(564,485,l),
(504,543,l),
(466,504,l),
(423,534,o),
(367,549,o),
(301,549,cs),
(136,549,o),
(35,447,o),
(35,270,cs),
(35,200,o),
(51,142,o),
(80,97,c),
(40,55,l),
(100,-3,l),
(138,37,l),
(181,7,o),
(237,-9,o),
(302,-9,cs),
(466,-9,o),
(569,93,o),
(569,266,cs)
);
},
{
closed = 1;
nodes = (
(429,167,o),
(377,104,o),
(302,104,cs),
(273,104,o),
(248,113,o),
(227,130,c),
(421,334,l),
(426,315,o),
(429,293,o),
(429,268,cs)
);
},
{
closed = 1;
nodes = (
(183,206,l),
(178,225,o),
(175,246,o),
(175,270,cs),
(175,373,o),
(226,436,o),
(302,436,cs),
(331,436,o),
(357,427,o),
(377,410,c)
);
}
);
width = 611;
},
{
layerId = "B4AF9C66-4182-4BB3-8260-B15F342CB5AD";
shapes = (
{
closed = 1;
nodes = (
(510,337,o),
(493,401,o),
(462,448,c),
(508,503,l),
(471,534,l),
(429,485,l),
(390,521,o),
(337,539,o),
(272,539,cs),
(125,539,o),
(36,438,o),
(36,262,cs),
(36,185,o),
(53,123,o),
(84,76,c),
(38,21,l),
(75,-10,l),
(117,39,l),
(156,4,o),
(209,-15,o),
(273,-15,cs),
(420,-15,o),
(510,86,o),
(510,258,cs)
);
},
{
closed = 1;
nodes = (
(423,136,o),
(365,62,o),
(273,62,cs),
(231,62,o),
(197,77,o),
(172,104,c),
(402,377,l),
(416,345,o),
(423,306,o),
(423,259,cs)
);
},
{
closed = 1;
nodes = (
(144,147,l),
(130,178,o),
(123,217,o),
(123,262,cs),
(123,388,o),
(180,462,o),
(273,462,cs),
(315,462,o),
(349,448,o),
(374,420,c)
);
}
);
width = 556;
},
{
layerId = "72302C92-9F48-4323-B731-8A9E50B35526";
shapes = (
{
closed = 1;
nodes = (
(486,337,o),
(468,403,o),
(437,451,c),
(485,511,l),
(458,531,l),
(415,478,l),
(377,516,o),
(325,535,o),
(260,535,cs),
(121,535,o),
(37,435,o),
(37,259,cs),
(37,180,o),
(55,116,o),
(86,68,c),
(38,7,l),
(65,-13,l),
(108,40,l),
(146,4,o),
(198,-17,o),
(262,-17,cs),
(401,-17,o),
(486,84,o),
(486,255,cs)
);
},
{
closed = 1;
nodes = (
(421,124,o),
(360,45,o),
(262,45,cs),
(214,45,o),
(176,62,o),
(149,94,c),
(395,395,l),
(412,358,o),
(421,312,o),
(421,256,cs)
);
},
{
closed = 1;
nodes = (
(128,123,l),
(111,159,o),
(102,206,o),
(102,259,cs),
(102,395,o),
(162,473,o),
(262,473,cs),
(309,473,o),
(346,457,o),
(374,424,c)
);
}
);
width = 534;
}
);
},
{
glyphname = quoteleft.dup;
layers = (
{
layerId = "68A22FE7-C8F3-439C-857C-EB17D6453AAF";
name = "#instance";
shapes = (
{
closed = 1;
nodes = (
(140,480,l),
(140,576,l),
(105,576,l),
(106,636,o),
(114,664,o),
(140,666,c),
(140,701,l),
(89,695,o),
(64,650,o),
(64,578,cs),
(64,480,l)
);
}
);
width = 199;
},
{
layerId = "E4F5910F-7A79-4870-ADFC-893AC9D78200";
shapes = (
{
closed = 1;
nodes = (
(224,465,l),
(224,600,l),
(128,600,l),
(125,647,o),
(158,677,o),
(224,689,c),
(224,739,l),
(131,735,o),
(68,681,o),
(68,577,cs),
(68,465,l)
);
}
);
width = 306;
},
{
layerId = "0486BCA8-F793-4B15-B8A2-0882358C0736";
shapes = (
{
closed = 1;
nodes = (
(202,469,l),
(202,594,l),
(122,594,l),
(120,644,o),
(146,673,o),
(202,683,c),
(202,729,l),
(120,724,o),
(67,673,o),
(67,578,cs),
(67,469,l)
);
}
);
width = 278;
},
{
layerId = "B4AF9C66-4182-4BB3-8260-B15F342CB5AD";
shapes = (
{
closed = 1;
nodes = (
(158,477,l),
(158,581,l),
(110,581,l),
(110,638,o),
(123,666,o),
(158,671,c),
(158,709,l),
(98,703,o),
(65,656,o),
(65,578,cs),
(65,477,l)
);
}
);
width = 222;
},
{
layerId = "72302C92-9F48-4323-B731-8A9E50B35526";
shapes = (
{
closed = 1;
nodes = (
(140,480,l),
(140,576,l),
(105,576,l),
(106,636,o),
(114,664,o),
(140,666,c),
(140,701,l),
(89,695,o),
(64,650,o),
(64,578,cs),
(64,480,l)
);
}
);
width = 199;
}
);
},
{
glyphname = quoteright.dup;
layers = (
{
layerId = "68A22FE7-C8F3-439C-857C-EB17D6453AAF";
name = "#instance";
shapes = (
{
closed = 1;
nodes = (
(139,730,l),
(63,730,l),
(63,634,l),
(98,634,l),
(97,573,o),
(91,547,o),
(63,544,c),
(63,509,l),
(114,513,o),
(139,558,o),
(139,631,cs)
);
}
);
width = 199;
},
{
layerId = "E4F5910F-7A79-4870-ADFC-893AC9D78200";
shapes = (
{
closed = 1;
nodes = (
(223,729,l),
(67,729,l),
(67,594,l),
(163,594,l),
(166,548,o),
(133,518,o),
(67,505,c),
(67,455,l),
(160,461,o),
(223,513,o),
(223,617,cs)
);
}
);
width = 306;
},
{
layerId = "0486BCA8-F793-4B15-B8A2-0882358C0736";
shapes = (
{
closed = 1;
nodes = (
(201,729,l),
(66,729,l),
(66,604,l),
(146,604,l),
(148,554,o),
(122,525,o),
(66,515,c),
(66,469,l),
(148,474,o),
(201,525,o),
(201,620,c)
);
}
);
width = 278;
},
{
layerId = "B4AF9C66-4182-4BB3-8260-B15F342CB5AD";
shapes = (
{
closed = 1;
nodes = (
(157,729,l),
(64,729,l),
(64,625,l),
(112,625,l),
(112,567,o),
(100,540,o),
(64,535,c),
(64,497,l),
(124,501,o),
(157,548,o),
(157,628,c)
);
}
);
width = 222;
},
{
layerId = "72302C92-9F48-4323-B731-8A9E50B35526";
shapes = (
{
closed = 1;
nodes = (
(139,730,l),
(63,730,l),
(63,634,l),
(98,634,l),
(97,573,o),
(91,547,o),
(63,544,c),
(63,509,l),
(114,513,o),
(139,558,o),
(139,631,cs)
);
}
);
width = 199;
}
);
},
{
glyphname = Rcedilla;
layers = (
{
layerId = "68A22FE7-C8F3-439C-857C-EB17D6453AAF";
name = "#instance";
shapes = (
{
closed = 1;
nodes = (
(409,-58,l),
(321,-58,l),
(321,-149,l),
(369,-149,l),
(369,-203,o),
(356,-233,o),
(321,-230,c),
(321,-264,l),
(378,-265,o),
(409,-227,o),
(409,-156,cs)
);
},
{
closed = 1;
nodes = (
(668,0,l),
(668,21,l),
(629,49,o),
(623,78,o),
(621,197,cs),
(620,274,o),
(597,319,o),
(527,349,c),
(605,391,o),
(634,437,o),
(634,515,cs),
(634,640,o),
(553,700,o),
(410,700,cs),
(109,700,l),
(109,0,l),
(176,0,l),
(176,312,l),
(433,312,ls),
(519,312,o),
(561,268,o),
(559,170,c),
(559,112,l),
(557,79,o),
(568,28,o),
(578,0,c)
);
},
{
closed = 1;
nodes = (
(561,414,o),
(510,373,o),
(410,373,cs),
(176,373,l),
(176,639,l),
(410,639,ls),
(518,639,o),
(561,591,o),
(561,505,cs)
);
}
);
width = 722;
},
{
layerId = "E4F5910F-7A79-4870-ADFC-893AC9D78200";
shapes = (
{
closed = 1;
nodes = (
(415,-58,l),
(288,-58,l),
(288,-171,l),
(358,-171,l),
(358,-218,o),
(337,-245,o),
(288,-258,c),
(288,-305,l),
(360,-303,o),
(415,-238,o),
(415,-156,cs)
);
},
{
closed = 1;
nodes = (
(663,0,l),
(663,20,l),
(647,27,o),
(638,37,o),
(638,53,cs),
(633,304,o),
(636,293,o),
(540,334,c),
(619,361,o),
(662,421,o),
(662,510,cs),
(662,613,o),
(603,700,o),
(486,700,cs),
(84,700,l),
(84,0,l),
(256,0,l),
(256,265,l),
(389,265,ls),
(443,265,o),
(464,247,o),
(465,202,c),
(462,123,l),
(463,47,o),
(465,36,o),
(485,0,c)
);
},
{
closed = 1;
nodes = (
(492,433,o),
(483,406,o),
(409,406,cs),
(256,406,l),
(256,560,l),
(409,560,ls),
(476,560,o),
(492,538,o),
(492,486,cs)
);
}
);
width = 722;
},
{
layerId = "0486BCA8-F793-4B15-B8A2-0882358C0736";
shapes = (
{
closed = 1;
nodes = (
(413,-58,l),
(296,-58,l),
(296,-165,l),
(361,-165,l),
(361,-214,o),
(341,-242,o),
(296,-251,c),
(296,-295,l),
(364,-293,o),
(413,-235,o),
(413,-156,c)
);
},
{
closed = 1;
nodes = (
(664,0,l),
(664,26,l),
(642,38,o),
(634,53,o),
(633,84,cs),
(630,290,o),
(626,300,o),
(536,338,c),
(615,369,o),
(654,425,o),
(654,511,cs),
(654,619,o),
(590,700,o),
(466,700,cs),
(91,700,l),
(91,0,l),
(235,0,l),
(235,277,l),
(400,277,ls),
(462,277,o),
(489,252,o),
(489,194,c),
(487,120,l),
(487,55,o),
(491,34,o),
(509,0,c)
);
},
{
closed = 1;
nodes = (
(510,428,o),
(490,397,o),
(409,397,cs),
(235,397,l),
(235,580,l),
(409,580,ls),
(487,580,o),
(510,551,o),
(510,491,cs)
);
}
);
width = 722;
},
{
layerId = "B4AF9C66-4182-4BB3-8260-B15F342CB5AD";
shapes = (
{
closed = 1;
nodes = (
(410,-58,l),
(314,-58,l),
(314,-154,l),
(366,-154,l),
(366,-206,o),
(351,-236,o),
(314,-236,c),
(314,-273,l),
(373,-273,o),
(410,-229,o),
(410,-156,c)
);
},
{
closed = 1;
nodes = (
(666,0,l),
(666,22,l),
(632,45,o),
(625,70,o),
(624,163,cs),
(622,278,o),
(604,313,o),
(529,346,c),
(607,384,o),
(639,433,o),
(639,513,cs),
(639,634,o),
(563,700,o),
(426,700,cs),
(103,700,l),
(103,0,l),
(193,0,l),
(193,301,l),
(423,301,ls),
(502,301,o),
(539,263,o),
(538,177,c),
(537,114,l),
(536,71,o),
(545,29,o),
(557,0,c)
);
},
{
closed = 1;
nodes = (
(546,418,o),
(504,380,o),
(409,380,cs),
(193,380,l),
(193,621,l),
(409,621,ls),
(508,621,o),
(546,579,o),
(546,500,cs)
);
}
);
width = 722;
},
{
layerId = "72302C92-9F48-4323-B731-8A9E50B35526";
shapes = (
{
closed = 1;
nodes = (
(409,-58,l),
(321,-58,l),
(321,-149,l),
(369,-149,l),
(369,-203,o),
(356,-233,o),
(321,-230,c),
(321,-264,l),
(378,-265,o),
(409,-227,o),
(409,-156,cs)
);
},
{
closed = 1;
nodes = (
(668,0,l),
(668,21,l),
(629,49,o),
(623,78,o),
(621,197,cs),
(620,274,o),
(597,319,o),
(527,349,c),
(605,391,o),
(634,437,o),
(634,515,cs),
(634,640,o),
(553,700,o),
(410,700,cs),
(109,700,l),
(109,0,l),
(176,0,l),
(176,312,l),
(433,312,ls),
(519,312,o),
(561,268,o),
(559,170,c),
(559,112,l),
(557,79,o),
(568,28,o),
(578,0,c)
);
},
{
closed = 1;
nodes = (
(561,414,o),
(510,373,o),
(410,373,cs),
(176,373,l),
(176,639,l),
(410,639,ls),
(518,639,o),
(561,591,o),
(561,505,cs)
);
}
);
width = 722;
}
);
unicode = 342;
},
{
glyphname = rcedilla;
layers = (
{
layerId = "68A22FE7-C8F3-439C-857C-EB17D6453AAF";
name = "#instance";
shapes = (
{
closed = 1;
nodes = (
(301,532,l),
(296,535,o),
(276,539,o),
(266,539,cs),
(213,539,o),
(181,513,o),
(123,427,c),
(123,518,l),
(73,518,l),
(73,0,l),
(133,0,l),
(133,266,ls),
(133,356,o),
(147,418,o),
(205,451,c),
(230,462,o),
(264,467,o),
(301,470,c)
);
},
{
closed = 1;
nodes = (
(153,-60,l),
(62,-60,l),
(62,-155,l),
(112,-155,l),
(112,-212,o),
(98,-243,o),
(62,-240,c),
(62,-275,l),
(121,-276,o),
(153,-236,o),
(153,-163,cs)
);
}
);
width = 310;
},
{
layerId = "E4F5910F-7A79-4870-ADFC-893AC9D78200";
shapes = (
{
closed = 1;
nodes = (
(394,554,l),
(386,555,o),
(381,554,o),
(377,554,cs),
(310,553,o),
(244,504,o),
(231,437,c),
(231,548,l),
(59,548,l),
(59,0,l),
(227,0,l),
(227,295,ls),
(227,374,o),
(277,396,o),
(368,396,cs),
(381,396,o),
(385,392,o),
(394,384,c)
);
},
{
closed = 1;
nodes = (
(200,-60,l),
(67,-60,l),
(67,-178,l),
(140,-178,l),
(140,-227,o),
(118,-255,o),
(67,-268,c),
(67,-318,l),
(142,-315,o),
(200,-248,o),
(200,-163,cs)
);
}
);
width = 417;
},
{
layerId = "0486BCA8-F793-4B15-B8A2-0882358C0736";
shapes = (
{
closed = 1;
nodes = (
(370,548,l),
(362,549,o),
(357,549,o),
(353,549,cs),
(282,549,o),
(228,497,o),
(203,434,c),
(203,540,l),
(63,540,l),
(63,0,l),
(203,0,l),
(203,287,ls),
(203,369,o),
(244,410,o),
(326,410,cs),
(341,410,o),
(351,409,o),
(370,406,c)
);
},
{
closed = 1;
nodes = (
(188,-60,l),
(66,-60,l),
(66,-172,l),
(133,-172,l),
(133,-223,o),
(113,-252,o),
(66,-261,c),
(66,-307,l),
(137,-305,o),
(188,-245,o),
(188,-163,c)
);
}
);
width = 389;
},
{
layerId = "B4AF9C66-4182-4BB3-8260-B15F342CB5AD";
shapes = (
{
closed = 1;
nodes = (
(321,536,l),
(313,537,o),
(297,539,o),
(289,539,cs),
(235,539,o),
(194,507,o),
(146,429,c),
(146,524,l),
(70,524,l),
(70,0,l),
(153,0,l),
(153,272,ls),
(153,360,o),
(175,416,o),
(240,439,cs),
(262,447,o),
(289,450,o),
(321,451,c)
);
},
{
closed = 1;
nodes = (
(163,-60,l),
(63,-60,l),
(63,-160,l),
(118,-160,l),
(118,-215,o),
(102,-246,o),
(63,-246,c),
(63,-284,l),
(125,-284,o),
(163,-239,o),
(163,-163,c)
);
}
);
width = 333;
},
{
layerId = "72302C92-9F48-4323-B731-8A9E50B35526";
shapes = (
{
closed = 1;
nodes = (
(301,532,l),
(296,535,o),
(276,539,o),
(266,539,cs),
(213,539,o),
(181,513,o),
(123,427,c),
(123,518,l),
(73,518,l),
(73,0,l),
(133,0,l),
(133,266,ls),
(133,356,o),
(147,418,o),
(205,451,c),
(230,462,o),
(264,467,o),
(301,470,c)
);
},
{
closed = 1;
nodes = (
(153,-60,l),
(62,-60,l),
(62,-155,l),
(112,-155,l),
(112,-212,o),
(98,-243,o),
(62,-240,c),
(62,-275,l),
(121,-276,o),
(153,-236,o),
(153,-163,cs)
);
}
);
width = 310;
}
);
unicode = 343;
},
{
glyphname = tilde.dup;
layers = (
{
layerId = "68A22FE7-C8F3-439C-857C-EB17D6453AAF";
name = "#instance";
shapes = (
{
closed = 1;
nodes = (
(253,694,l),
(242,672,o),
(232,662,o),
(215,662,cs),
(210,662,o),
(192,663,o),
(169,674,cs),
(127,695,o),
(112,696,o),
(93,696,cs),
(54,696,o),
(25,663,o),
(11,602,c),
(67,602,l),
(74,626,o),
(88,640,o),
(105,637,cs),
(110,636,o),
(117,634,o),
(125,631,c),
(125,628,o),
(120,632,o),
(124,630,cs),
(192,604,o),
(200,600,o),
(222,600,cs),
(267,600,o),
(296,632,o),
(308,694,c)
);
}
);
width = 333;
},
{
layerId = "E4F5910F-7A79-4870-ADFC-893AC9D78200";
shapes = (
{
closed = 1;
nodes = (
(292,755,l),
(292,719,o),
(280,701,o),
(257,701,cs),
(210,701,o),
(163,728,o),
(131,739,cs),
(98,750,o),
(101,749,o),
(82,749,cs),
(22,749,o),
(-15,698,o),
(-16,614,c),
(50,614,l),
(51,634,o),
(54,647,o),
(63,656,cs),
(68,661,o),
(75,664,o),
(83,665,c),
(121,666,o),
(181,636,o),
(220,621,cs),
(224,620,o),
(248,616,o),
(260,616,cs),
(324,616,o),
(357,662,o),
(358,755,c)
);
}
);
width = 333;
},
{
layerId = "0486BCA8-F793-4B15-B8A2-0882358C0736";
shapes = (
{
closed = 1;
nodes = (
(282,739,l),
(279,707,o),
(267,691,o),
(246,691,cs),
(210,691,o),
(170,711,o),
(141,722,cs),
(105,735,o),
(104,735,o),
(85,735,cs),
(30,735,o),
(-5,689,o),
(-9,611,c),
(54,611,l),
(57,632,o),
(63,645,o),
(74,651,cs),
(79,654,o),
(86,656,o),
(94,656,cs),
(122,656,o),
(165,635,o),
(195,624,cs),
(216,616,o),
(235,612,o),
(250,612,cs),
(309,612,o),
(341,654,o),
(345,739,c)
);
}
);
width = 333;
},
{
layerId = "B4AF9C66-4182-4BB3-8260-B15F342CB5AD";
shapes = (
{
closed = 1;
nodes = (
(261,707,l),
(253,682,o),
(242,670,o),
(224,670,cs),
(210,670,o),
(185,677,o),
(161,688,cs),
(120,706,o),
(110,707,o),
(91,707,cs),
(47,707,o),
(16,670,o),
(5,604,c),
(63,604,l),
(69,627,o),
(81,641,o),
(96,641,cs),
(101,641,o),
(108,640,o),
(116,638,cs),
(124,636,o),
(133,632,o),
(145,628,cs),
(199,607,o),
(210,603,o),
(230,603,cs),
(279,603,o),
(309,638,o),
(319,707,c)
);
}
);
width = 333;
},
{
layerId = "72302C92-9F48-4323-B731-8A9E50B35526";
shapes = (
{
closed = 1;
nodes = (
(253,694,l),
(242,672,o),
(232,662,o),
(215,662,cs),
(210,662,o),
(192,663,o),
(169,674,cs),
(127,695,o),
(112,696,o),
(93,696,cs),
(54,696,o),
(25,663,o),
(11,602,c),
(67,602,l),
(74,626,o),
(88,640,o),
(105,637,cs),
(110,636,o),
(117,634,o),
(125,631,c),
(125,628,o),
(120,632,o),
(124,630,cs),
(192,604,o),
(200,600,o),
(222,600,cs),
(267,600,o),
(296,632,o),
(308,694,c)
);
}
);
width = 333;
}
);
},
{
glyphname = A;
layers = (
{
hints = (
{
horizontal = 1;
origin = (0,0);
target = up;
type = BottomGhost;
},
{
horizontal = 1;
origin = (0,5);
target = (1,1);
type = Stem;
},
{
horizontal = 1;
origin = (0,1);
target = down;
type = TopGhost;
}
);
layerId = "68A22FE7-C8F3-439C-857C-EB17D6453AAF";
name = "#instance";
shapes = (
{
closed = 1;
nodes = (
(714,0,l),
(474,700,l),
(292,700,l),
(44,0,l),
(217,0,l),
(250,107,l),
(508,107,l),
(542,0,l)
);
},
{
closed = 1;
nodes = (
(462,249,l),
(300,249,l),
(379,501,l)
);
}
);
width = 750;
},
{
hints = (
{
horizontal = 1;
origin = (0,0);
target = up;
type = BottomGhost;
},
{
horizontal = 1;
origin = (0,5);
target = (1,1);
type = Stem;
},
{
horizontal = 1;
origin = (0,1);
target = down;
type = TopGhost;
}
);
layerId = "E4F5910F-7A79-4870-ADFC-893AC9D78200";
shapes = (
{
closed = 1;
nodes = (
(714,0,l),
(474,700,l),
(292,700,l),
(44,0,l),
(217,0,l),
(250,107,l),
(508,107,l),
(542,0,l)
);
},
{
closed = 1;
nodes = (
(462,249,l),
(300,249,l),
(379,501,l)
);
}
);
width = 750;
},
{
hints = (
{
horizontal = 1;
origin = (0,0);
target = up;
type = BottomGhost;
},
{
horizontal = 1;
origin = (0,5);
target = (1,1);
type = Stem;
},
{
horizontal = 1;
origin = (0,1);
target = down;
type = TopGhost;
}
);
layerId = "0486BCA8-F793-4B15-B8A2-0882358C0736";
shapes = (
{
closed = 1;
nodes = (
(689,0,l),
(447,700,l),
(288,700,l),
(39,0,l),
(186,0,l),
(233,141,l),
(495,141,l),
(541,0,l)
);
},
{
closed = 1;
nodes = (
(456,261,l),
(273,261,l),
(364,535,l)
);
}
);
width = 722;
},
{
hints = (
{
horizontal = 1;
origin = (0,0);
target = up;
type = BottomGhost;
},
{
horizontal = 1;
origin = (0,5);
target = (1,1);
type = Stem;
},
{
horizontal = 1;
origin = (0,1);
target = down;
type = TopGhost;
}
);
layerId = "B4AF9C66-4182-4BB3-8260-B15F342CB5AD";
shapes = (
{
closed = 1;
nodes = (
(640,0,l),
(394,700,l),
(279,700,l),
(29,0,l),
(124,0,l),
(198,210,l),
(468,210,l),
(540,0,l)
);
},
{
closed = 1;
nodes = (
(443,285,l),
(220,285,l),
(336,604,l)
);
}
);
width = 667;
},
{
hints = (
{
horizontal = 1;
origin = (0,0);
target = up;
type = BottomGhost;
},
{
horizontal = 1;
origin = (0,5);
target = (1,1);
type = Stem;
},
{
horizontal = 1;
origin = (0,1);
target = down;
type = TopGhost;
}
);
layerId = "72302C92-9F48-4323-B731-8A9E50B35526";
shapes = (
{
closed = 1;
nodes = (
(620,0,l),
(372,700,l),
(276,700,l),
(26,0,l),
(100,0,l),
(185,239,l),
(458,239,l),
(540,0,l)
);
},
{
closed = 1;
nodes = (
(438,296,l),
(198,296,l),
(324,632,l)
);
}
);
width = 645;
}
);
unicode = 65;
},
{
glyphname = a;
layers = (
{
anchors = (
{
name = bottom;
position = "{278, 0}";
},
{
name = ogonek;
position = "{534, 0}";
},
{
name = top;
position = "{278, 548}";
}
);
hints = (
{
horizontal = 1;
place = (-6,133);
type = Stem;
},
{
horizontal = 1;
place = (423,131);
type = Stem;
},
{
place = (21,166);
type = Stem;
},
{
place = (338,164);
type = Stem;
}
);
layerId = "68A22FE7-C8F3-439C-857C-EB17D6453AAF";
name = "#instance";
shapes = (
{
closed = 1;
nodes = (
(238,-6,o),
(288,19,o),
(338,71,c),
(337,33,o),
(341,15,o),
(353,0,c),
(534,0,l),
(534,18,l),
(509,41,o),
(502,55,o),
(502,83,cs),
(502,377,ls),
(502,495,o),
(423,554,o),
(269,554,cs),
(118,554,o),
(38,489,o),
(28,359,c),
(187,359,l),
(194,410,o),
(212,423,o),
(275,423,cs),
(316,423,o),
(338,412,o),
(338,387,cs),
(338,381,ls),
(338,356,o),
(332,346,o),
(241,330,c),
(218,325,o),
(204,321,o),
(181,318,cs),
(82,303,o),
(21,262,o),
(21,157,cs),
(21,54,o),
(83,-6,o),
(180,-6,cs)
);
},
{
closed = 1;
nodes = (
(209,127,o),
(187,144,o),
(187,174,cs),
(187,206,o),
(199,217,o),
(244,229,c),
(323,246,o),
(335,247,o),
(348,255,c),
(338,265,l),
(338,246,ls),
(338,166,o),
(310,127,o),
(250,127,cs)
);
}
);
width = 556;
},
{
anchors = (
{
name = bottom;
position = "{278, 0}";
},
{
name = ogonek;
position = "{534, 0}";
},
{
name = top;
position = "{278, 548}";
}
);
hints = (
{
horizontal = 1;
place = (-6,133);
type = Stem;
},
{
horizontal = 1;
place = (423,131);
type = Stem;
},
{
place = (21,166);
type = Stem;
},
{
place = (338,164);
type = Stem;
}
);
layerId = "E4F5910F-7A79-4870-ADFC-893AC9D78200";
shapes = (
{
closed = 1;
nodes = (
(238,-6,o),
(288,19,o),
(338,71,c),
(337,33,o),
(341,15,o),
(353,0,c),
(534,0,l),
(534,18,l),
(509,41,o),
(502,55,o),
(502,83,cs),
(502,377,ls),
(502,495,o),
(423,554,o),
(269,554,cs),
(118,554,o),
(38,489,o),
(28,359,c),
(187,359,l),
(194,410,o),
(212,423,o),
(275,423,cs),
(316,423,o),
(338,412,o),
(338,387,cs),
(338,381,ls),
(338,356,o),
(332,346,o),
(241,330,c),
(218,325,o),
(204,321,o),
(181,318,cs),
(82,303,o),
(21,262,o),
(21,157,cs),
(21,54,o),
(83,-6,o),
(180,-6,cs)
);
},
{
closed = 1;
nodes = (
(209,127,o),
(187,144,o),
(187,174,cs),
(187,206,o),
(199,217,o),
(244,229,c),
(323,246,o),
(335,247,o),
(348,255,c),
(338,265,l),
(338,246,ls),
(338,166,o),
(310,127,o),
(250,127,cs)
);
}
);
width = 556;
},
{
anchors = (
{
name = bottom;
position = "{278, 0}";
},
{
name = ogonek;
position = "{524, 0}";
},
{
name = top;
position = "{278, 540}";
}
);
hints = (
{
horizontal = 1;
place = (-9,113);
type = Stem;
},
{
horizontal = 1;
place = (436,113);
type = Stem;
},
{
place = (28,140);
type = Stem;
},
{
place = (355,137);
type = Stem;
}
);
layerId = "0486BCA8-F793-4B15-B8A2-0882358C0736";
shapes = (
{
closed = 1;
nodes = (
(252,-9,o),
(307,17,o),
(356,68,c),
(356,34,o),
(361,14,o),
(372,0,c),
(524,0,l),
(524,17,l),
(499,40,o),
(492,55,o),
(492,83,cs),
(492,383,ls),
(492,493,o),
(417,549,o),
(271,549,cs),
(125,549,o),
(49,487,o),
(40,362,c),
(175,362,l),
(182,418,o),
(206,436,o),
(274,436,cs),
(328,436,o),
(355,418,o),
(355,383,cs),
(355,378,ls),
(355,341,o),
(347,336,o),
(263,321,cs),
(241,317,o),
(224,314,o),
(200,311,cs),
(82,296,o),
(28,244,o),
(28,150,cs),
(28,50,o),
(91,-9,o),
(192,-9,cs)
);
},
{
closed = 1;
nodes = (
(194,104,o),
(168,124,o),
(168,162,cs),
(168,201,o),
(187,217,o),
(248,229,cs),
(339,246,o),
(339,246,o),
(363,259,c),
(355,265,l),
(355,231,ls),
(355,150,o),
(315,104,o),
(244,104,cs)
);
}
);
width = 556;
},
{
anchors = (
{
name = bottom;
position = "{278, 0}";
},
{
name = ogonek;
position = "{504, 0}";
},
{
name = top;
position = "{278, 524}";
}
);
hints = (
{
horizontal = 1;
place = (-15,73);
type = Stem;
},
{
horizontal = 1;
place = (462,77);
type = Stem;
},
{
place = (42,87);
type = Stem;
},
{
place = (389,83);
type = Stem;
}
);
layerId = "B4AF9C66-4182-4BB3-8260-B15F342CB5AD";
shapes = (
{
closed = 1;
nodes = (
(281,-15,o),
(346,13,o),
(392,62,c),
(394,36,o),
(401,12,o),
(411,0,c),
(504,0,l),
(504,15,l),
(479,38,o),
(472,55,o),
(472,83,cs),
(472,396,ls),
(472,489,o),
(404,539,o),
(275,539,cs),
(139,539,o),
(70,483,o),
(65,369,c),
(149,369,l),
(156,433,o),
(194,462,o),
(272,462,cs),
(347,462,o),
(389,434,o),
(389,384,cs),
(389,362,ls),
(389,329,o),
(377,315,o),
(306,304,cs),
(287,301,o),
(265,299,o),
(238,296,cs),
(81,281,o),
(42,207,o),
(42,136,cs),
(42,42,o),
(107,-15,o),
(214,-15,cs)
);
},
{
closed = 1;
nodes = (
(163,58,o),
(129,84,o),
(129,138,cs),
(129,191,o),
(163,217,o),
(255,230,cs),
(351,243,o),
(364,247,o),
(399,264,c),
(389,274,l),
(389,181,ls),
(389,112,o),
(320,58,o),
(232,58,cs)
);
}
);
width = 556;
},
{
anchors = (
{
name = bottom;
position = "{278, 0}";
},
{
name = ogonek;
position = "{496, 0}";
},
{
name = top;
position = "{278, 517}";
}
);
hints = (
{
horizontal = 1;
place = (-17,56);
type = Stem;
},
{
horizontal = 1;
place = (473,62);
type = Stem;
},
{
place = (48,65);
type = Stem;
},
{
place = (403,61);
type = Stem;
}
);
layerId = "72302C92-9F48-4323-B731-8A9E50B35526";
shapes = (
{
closed = 1;
nodes = (
(293,-17,o),
(362,12,o),
(407,60,c),
(410,37,o),
(418,11,o),
(428,0,c),
(496,0,l),
(496,14,l),
(471,37,o),
(464,55,o),
(464,83,cs),
(464,402,ls),
(464,488,o),
(399,535,o),
(276,535,cs),
(145,535,o),
(79,482,o),
(76,373,c),
(138,373,l),
(145,440,o),
(189,473,o),
(271,473,cs),
(355,473,o),
(403,441,o),
(403,385,cs),
(403,356,ls),
(403,324,o),
(389,307,o),
(324,298,cs),
(306,295,o),
(282,293,o),
(254,290,cs),
(81,275,o),
(48,192,o),
(48,130,cs),
(48,39,o),
(113,-17,o),
(223,-17,cs)
);
},
{
closed = 1;
nodes = (
(150,39,o),
(113,67,o),
(113,128,cs),
(113,187,o),
(153,217,o),
(258,231,c),
(357,242,o),
(375,247,o),
(413,266,c),
(403,276,l),
(403,160,ls),
(403,96,o),
(322,39,o),
(227,39,cs)
);
}
);
width = 556;
}
);
unicode = 97;
},
{
glyphname = ampersand;
layers = (
{
layerId = "68A22FE7-C8F3-439C-857C-EB17D6453AAF";
name = "#instance";
shapes = (
{
closed = 1;
nodes = (
(615,0,l),
(493,150,l),
(528,208,o),
(547,269,o),
(547,318,c),
(480,318,l),
(480,284,o),
(467,232,o),
(448,202,c),
(308,372,l),
(419,430,o),
(455,473,o),
(455,546,cs),
(455,638,o),
(388,704,o),
(298,704,cs),
(208,704,o),
(135,636,o),
(135,551,cs),
(135,509,o),
(146,468,o),
(216,384,c),
(88,308,o),
(51,259,o),
(51,169,cs),
(51,53,o),
(128,-23,o),
(243,-23,cs),
(334,-23,o),
(373,-4,o),
(457,87,c),
(527,0,l)
);
},
{
closed = 1;
nodes = (
(393,504,o),
(366,475,o),
(273,415,c),
(207,489,o),
(196,509,o),
(196,548,cs),
(196,610,o),
(234,650,o),
(294,650,cs),
(349,650,o),
(393,607,o),
(393,553,cs)
);
},
{
closed = 1;
nodes = (
(420,133,l),
(360,64,o),
(317,39,o),
(256,39,cs),
(177,39,o),
(115,98,o),
(115,172,cs),
(115,227,o),
(144,277,o),
(251,344,c)
);
}
);
width = 645;
},
{
layerId = "E4F5910F-7A79-4870-ADFC-893AC9D78200";
shapes = (
{
closed = 1;
nodes = (
(722,0,l),
(598,156,l),
(644,205,o),
(671,298,o),
(671,392,c),
(542,392,l),
(542,337,o),
(538,316,o),
(513,265,c),
(406,399,l),
(487,460,o),
(512,503,o),
(512,575,cs),
(512,669,o),
(440,729,o),
(327,729,cs),
(213,729,o),
(131,654,o),
(129,557,c),
(129,491,o),
(171,463,o),
(211,407,c),
(97,351,o),
(56,297,o),
(56,201,cs),
(56,66,o),
(158,-23,o),
(310,-23,cs),
(370,-23,o),
(418,-6,o),
(498,45,c),
(535,0,l)
);
},
{
closed = 1;
nodes = (
(372,527,o),
(354,498,o),
(333,489,c),
(295,525,o),
(286,550,o),
(286,572,cs),
(286,588,o),
(305,601,o),
(330,601,cs),
(359,601,o),
(372,587,o),
(372,556,cs)
);
},
{
closed = 1;
nodes = (
(413,154,l),
(370,124,o),
(329,112,o),
(308,112,cs),
(263,112,o),
(214,168,o),
(214,224,cs),
(214,282,o),
(258,299,o),
(289,310,c)
);
}
);
width = 750;
},
{
layerId = "0486BCA8-F793-4B15-B8A2-0882358C0736";
shapes = (
{
closed = 1;
nodes = (
(694,0,l),
(571,154,l),
(614,206,o),
(639,290,o),
(639,373,c),
(526,373,l),
(526,324,o),
(520,294,o),
(496,248,c),
(380,392,l),
(469,453,o),
(497,496,o),
(497,568,cs),
(497,661,o),
(426,723,o),
(319,723,cs),
(212,723,o),
(131,650,o),
(130,556,cs),
(130,496,o),
(164,465,o),
(212,401,c),
(95,340,o),
(55,287,o),
(55,193,cs),
(55,63,o),
(150,-23,o),
(292,-23,cs),
(360,-23,o),
(406,-5,o),
(487,56,c),
(533,0,l)
);
},
{
closed = 1;
nodes = (
(377,521,o),
(357,492,o),
(317,470,c),
(267,532,o),
(262,540,o),
(262,566,cs),
(262,594,o),
(286,614,o),
(320,614,cs),
(356,614,o),
(377,593,o),
(377,556,cs)
);
},
{
closed = 1;
nodes = (
(414,148,l),
(367,112,o),
(325,93,o),
(294,93,cs),
(240,93,o),
(188,150,o),
(188,210,cs),
(188,268,o),
(228,288,o),
(278,319,c)
);
}
);
width = 722;
},
{
layerId = "B4AF9C66-4182-4BB3-8260-B15F342CB5AD";
shapes = (
{
closed = 1;
nodes = (
(637,0,l),
(515,151,l),
(552,207,o),
(573,275,o),
(573,334,c),
(493,334,l),
(493,296,o),
(482,250,o),
(462,215,c),
(329,378,l),
(433,437,o),
(467,480,o),
(467,552,cs),
(467,644,o),
(399,709,o),
(304,709,cs),
(209,709,o),
(133,640,o),
(133,552,cs),
(133,505,o),
(151,467,o),
(214,389,c),
(90,317,o),
(52,267,o),
(52,176,cs),
(52,56,o),
(134,-23,o),
(257,-23,cs),
(341,-23,o),
(382,-4,o),
(466,78,c),
(528,0,l)
);
},
{
closed = 1;
nodes = (
(388,509,o),
(363,480,o),
(285,431,c),
(224,501,o),
(215,518,o),
(215,553,cs),
(215,605,o),
(249,639,o),
(301,639,cs),
(351,639,o),
(388,603,o),
(388,554,cs)
);
},
{
closed = 1;
nodes = (
(418,137,l),
(362,78,o),
(319,55,o),
(267,55,cs),
(195,55,o),
(136,113,o),
(136,183,cs),
(136,239,o),
(168,280,o),
(258,337,c)
);
}
);
width = 667;
},
{
layerId = "72302C92-9F48-4323-B731-8A9E50B35526";
shapes = (
{
closed = 1;
nodes = (
(615,0,l),
(493,150,l),
(528,208,o),
(547,269,o),
(547,318,c),
(480,318,l),
(480,284,o),
(467,232,o),
(448,202,c),
(308,372,l),
(419,430,o),
(455,473,o),
(455,546,cs),
(455,638,o),
(388,704,o),
(298,704,cs),
(208,704,o),
(135,636,o),
(135,551,cs),
(135,509,o),
(146,468,o),
(216,384,c),
(88,308,o),
(51,259,o),
(51,169,cs),
(51,53,o),
(128,-23,o),
(243,-23,cs),
(334,-23,o),
(373,-4,o),
(457,87,c),
(527,0,l)
);
},
{
closed = 1;
nodes = (
(393,504,o),
(366,475,o),
(273,415,c),
(207,489,o),
(196,509,o),
(196,548,cs),
(196,610,o),
(234,650,o),
(294,650,cs),
(349,650,o),
(393,607,o),
(393,553,cs)
);
},
{
closed = 1;
nodes = (
(420,133,l),
(360,64,o),
(317,39,o),
(256,39,cs),
(177,39,o),
(115,98,o),
(115,172,cs),
(115,227,o),
(144,277,o),
(251,344,c)
);
}
);
width = 645;
}
);
unicode = 38;
},
{
glyphname = asciicircum;
layers = (
{
layerId = "68A22FE7-C8F3-439C-857C-EB17D6453AAF";
name = "#instance";
shapes = (
{
closed = 1;
nodes = (
(385,354,l),
(237,715,l),
(185,715,l),
(37,354,l),
(88,354,l),
(212,654,l),
(334,354,l)
);
}
);
width = 422;
},
{
layerId = "E4F5910F-7A79-4870-ADFC-893AC9D78200";
shapes = (
{
closed = 1;
nodes = (
(570,241,l),
(391,688,l),
(240,688,l),
(69,241,l),
(203,241,l),
(315,541,l),
(435,241,l)
);
}
);
width = 641;
},
{
layerId = "0486BCA8-F793-4B15-B8A2-0882358C0736";
shapes = (
{
closed = 1;
nodes = (
(522,270,l),
(351,695,l),
(226,695,l),
(61,270,l),
(173,270,l),
(288,570,l),
(409,270,l)
);
}
);
width = 584;
},
{
layerId = "B4AF9C66-4182-4BB3-8260-B15F342CB5AD";
shapes = (
{
closed = 1;
nodes = (
(425,329,l),
(270,709,l),
(197,709,l),
(44,329,l),
(113,329,l),
(234,629,l),
(356,329,l)
);
}
);
width = 469;
},
{
layerId = "72302C92-9F48-4323-B731-8A9E50B35526";
shapes = (
{
closed = 1;
nodes = (
(385,354,l),
(237,715,l),
(185,715,l),
(37,354,l),
(88,354,l),
(212,654,l),
(334,354,l)
);
}
);
width = 422;
}
);
unicode = 94;
},
{
glyphname = asciitilde;
layers = (
{
layerId = "68A22FE7-C8F3-439C-857C-EB17D6453AAF";
name = "#instance";
shapes = (
{
closed = 1;
nodes = (
(504,447,o),
(504,455,o),
(504,462,c),
(461,462,l),
(462,409,o),
(448,383,o),
(411,383,cs),
(397,383,o),
(379,389,o),
(356,403,c),
(224,477,l),
(209,484,o),
(194,490,o),
(181,490,cs),
(122,490,o),
(87,437,o),
(82,344,c),
(124,344,l),
(131,401,o),
(152,428,o),
(177,428,cs),
(206,428,o),
(238,399,o),
(259,388,c),
(328,346,l),
(353,332,o),
(385,320,o),
(408,320,cs),
(465,320,o),
(506,371,o),
(504,440,c)
);
}
);
width = 584;
},
{
layerId = "E4F5910F-7A79-4870-ADFC-893AC9D78200";
shapes = (
{
closed = 1;
nodes = (
(524,231,o),
(524,228,o),
(524,226,c),
(434,226,l),
(430,172,o),
(414,165,o),
(380,165,cs),
(366,165,o),
(358,167,o),
(348,171,c),
(286,222,l),
(259,243,o),
(228,253,o),
(189,253,cs),
(103,253,o),
(58,205,o),
(53,107,c),
(143,107,l),
(144,158,o),
(156,166,o),
(196,166,cs),
(215,166,o),
(227,166,o),
(250,147,cs),
(302,105,ls),
(327,85,o),
(351,79,o),
(387,79,cs),
(474,79,o),
(515,126,o),
(524,235,c)
);
}
);
width = 584;
},
{
layerId = "0486BCA8-F793-4B15-B8A2-0882358C0736";
shapes = (
{
closed = 1;
nodes = (
(519,288,o),
(519,288,o),
(519,288,c),
(441,288,l),
(438,234,o),
(423,222,o),
(388,222,cs),
(374,222,o),
(363,225,o),
(350,232,c),
(270,289,ls),
(246,306,o),
(219,314,o),
(187,314,cs),
(108,314,o),
(65,266,o),
(60,169,c),
(138,169,l),
(140,221,o),
(155,234,o),
(191,234,cs),
(213,234,o),
(230,227,o),
(252,210,cs),
(309,168,ls),
(334,149,o),
(360,142,o),
(392,142,cs),
(472,142,o),
(513,190,o),
(519,288,c)
);
}
);
width = 584;
},
{
layerId = "B4AF9C66-4182-4BB3-8260-B15F342CB5AD";
shapes = (
{
closed = 1;
nodes = (
(508,400,o),
(508,406,o),
(508,411,c),
(455,411,l),
(455,358,o),
(441,336,o),
(404,336,cs),
(390,336,o),
(374,341,o),
(354,353,cs),
(237,422,ls),
(220,432,o),
(201,438,o),
(183,438,cs),
(118,438,o),
(80,387,o),
(75,293,c),
(128,293,l),
(133,348,o),
(153,371,o),
(181,371,cs),
(208,371,o),
(236,349,o),
(257,336,cs),
(322,294,ls),
(347,278,o),
(378,268,o),
(403,268,cs),
(467,268,o),
(508,318,o),
(508,395,cs)
);
}
);
width = 584;
},
{
layerId = "72302C92-9F48-4323-B731-8A9E50B35526";
shapes = (
{
closed = 1;
nodes = (
(504,447,o),
(504,455,o),
(504,462,c),
(461,462,l),
(462,409,o),
(448,383,o),
(411,383,cs),
(397,383,o),
(379,389,o),
(356,403,c),
(224,477,l),
(209,484,o),
(194,490,o),
(181,490,cs),
(122,490,o),
(87,437,o),
(82,344,c),
(124,344,l),
(131,401,o),
(152,428,o),
(177,428,cs),
(206,428,o),
(238,399,o),
(259,388,c),
(328,346,l),
(353,332,o),
(385,320,o),
(408,320,cs),
(465,320,o),
(506,371,o),
(504,440,c)
);
}
);
width = 584;
}
);
unicode = 126;
},
{
glyphname = asterisk;
layers = (
{
layerId = "68A22FE7-C8F3-439C-857C-EB17D6453AAF";
name = "#instance";
shapes = (
{
closed = 1;
nodes = (
(337,603,l),
(319,657,l),
(214,619,l),
(214,729,l),
(162,729,l),
(162,619,l),
(64,657,l),
(47,603,l),
(154,575,l),
(84,489,l),
(131,455,l),
(192,548,l),
(252,455,l),
(300,489,l),
(229,575,l)
);
}
);
width = 389;
},
{
layerId = "E4F5910F-7A79-4870-ADFC-893AC9D78200";
shapes = (
{
closed = 1;
nodes = (
(364,571,l),
(340,646,l),
(230,611,l),
(230,729,l),
(151,729,l),
(151,611,l),
(38,646,l),
(15,572,l),
(124,533,l),
(58,437,l),
(120,390,l),
(189,485,l),
(259,390,l),
(320,437,l),
(254,533,l)
);
}
);
width = 389;
},
{
layerId = "0486BCA8-F793-4B15-B8A2-0882358C0736";
shapes = (
{
closed = 1;
nodes = (
(357,579,l),
(335,649,l),
(226,613,l),
(226,729,l),
(154,729,l),
(154,613,l),
(45,649,l),
(23,580,l),
(132,544,l),
(65,450,l),
(123,407,l),
(190,501,l),
(257,407,l),
(315,450,l),
(248,544,l)
);
}
);
width = 389;
},
{
layerId = "B4AF9C66-4182-4BB3-8260-B15F342CB5AD";
shapes = (
{
closed = 1;
nodes = (
(343,596,l),
(324,655,l),
(218,617,l),
(218,729,l),
(160,729,l),
(160,617,l),
(59,655,l),
(40,596,l),
(148,566,l),
(79,477,l),
(129,441,l),
(192,534,l),
(254,441,l),
(305,477,l),
(235,566,l)
);
}
);
width = 389;
},
{
layerId = "72302C92-9F48-4323-B731-8A9E50B35526";
shapes = (
{
closed = 1;
nodes = (
(337,603,l),
(319,657,l),
(214,619,l),
(214,729,l),
(162,729,l),
(162,619,l),
(64,657,l),
(47,603,l),
(154,575,l),
(84,489,l),
(131,455,l),
(192,548,l),
(252,455,l),
(300,489,l),
(229,575,l)
);
}
);
width = 389;
}
);
unicode = 42;
},
{
glyphname = at;
layers = (
{
layerId = "68A22FE7-C8F3-439C-857C-EB17D6453AAF";
name = "#instance";
shapes = (
{
closed = 1;
nodes = (
(947,573,o),
(754,741,o),
(522,741,cs),
(256,741,o),
(32,518,o),
(32,258,cs),
(32,37,o),
(234,-141,o),
(485,-141,cs),
(560,-141,o),
(640,-125,o),
(706,-101,c),
(682,-43,l),
(604,-66,o),
(546,-75,o),
(490,-75,cs),
(273,-75,o),
(106,77,o),
(106,273,cs),
(106,488,o),
(293,675,o),
(509,675,cs),
(706,675,o),
(871,530,o),
(871,358,cs),
(871,235,o),
(784,119,o),
(695,119,cs),
(664,119,o),
(638,142,o),
(638,170,c),
(637,179,o),
(643,198,o),
(651,222,cs),
(748,497,l),
(676,497,l),
(651,421,l),
(627,485,o),
(584,519,o),
(526,519,cs),
(393,519,o),
(264,388,o),
(264,245,cs),
(264,143,o),
(332,65,o),
(422,65,cs),
(478,65,o),
(522,89,o),
(569,143,c),
(575,88,o),
(613,60,o),
(678,60,cs),
(831,60,o),
(947,221,o),
(947,370,cs)
);
},
{
closed = 1;
nodes = (
(621,362,l),
(616,235,o),
(531,118,o),
(453,118,cs),
(394,118,o),
(347,173,o),
(347,244,cs),
(347,361,o),
(432,466,o),
(520,466,cs),
(579,466,o),
(621,424,o),
(621,367,cs)
);
}
);
width = 1032;
},
{
layerId = "E4F5910F-7A79-4870-ADFC-893AC9D78200";
shapes = (
{
closed = 1;
nodes = (
(963,570,o),
(770,741,o),
(535,741,cs),
(269,741,o),
(45,518,o),
(45,257,cs),
(45,35,o),
(247,-145,o),
(501,-145,cs),
(573,-145,o),
(654,-132,o),
(745,-97,c),
(705,4,l),
(608,-21,o),
(555,-28,o),
(506,-28,cs),
(316,-28,o),
(169,101,o),
(169,272,cs),
(169,462,o),
(332,625,o),
(522,625,cs),
(692,625,o),
(837,501,o),
(837,352,cs),
(837,255,o),
(770,155,o),
(699,155,cs),
(685,155,o),
(673,163,o),
(673,175,c),
(674,183,o),
(675,196,o),
(682,216,c),
(748,513,l),
(623,513,l),
(614,483,l),
(585,516,o),
(547,532,o),
(501,532,cs),
(363,532,o),
(264,396,o),
(264,246,cs),
(264,133,o),
(341,50,o),
(441,50,cs),
(487,50,o),
(527,65,o),
(567,98,c),
(587,64,o),
(627,45,o),
(682,45,cs),
(847,45,o),
(963,214,o),
(963,364,cs)
);
},
{
closed = 1;
nodes = (
(564,359,l),
(559,257,o),
(529,154,o),
(451,154,cs),
(411,154,o),
(379,194,o),
(379,245,cs),
(379,339,o),
(426,428,o),
(497,428,cs),
(534,428,o),
(564,401,o),
(564,364,cs)
);
}
);
width = 955;
},
{
layerId = "0486BCA8-F793-4B15-B8A2-0882358C0736";
shapes = (
{
closed = 1;
nodes = (
(959,571,o),
(766,741,o),
(532,741,cs),
(265,741,o),
(41,519,o),
(41,258,cs),
(41,35,o),
(243,-144,o),
(497,-144,cs),
(570,-144,o),
(650,-130,o),
(735,-98,c),
(699,-8,l),
(607,-32,o),
(553,-40,o),
(502,-40,cs),
(305,-40,o),
(152,95,o),
(152,273,cs),
(152,469,o),
(322,638,o),
(519,638,cs),
(696,638,o),
(846,509,o),
(846,354,cs),
(846,250,o),
(774,146,o),
(698,146,cs),
(680,146,o),
(664,158,o),
(664,174,cs),
(664,182,o),
(667,197,o),
(674,218,c),
(748,509,l),
(637,509,l),
(624,467,l),
(596,508,o),
(557,529,o),
(508,529,cs),
(371,529,o),
(264,394,o),
(264,246,cs),
(264,136,o),
(339,54,o),
(437,54,cs),
(485,54,o),
(526,71,o),
(568,110,c),
(584,70,o),
(623,49,o),
(681,49,cs),
(843,49,o),
(959,216,o),
(959,366,cs)
);
},
{
closed = 1;
nodes = (
(579,360,l),
(574,252,o),
(530,145,o),
(452,145,cs),
(407,145,o),
(371,189,o),
(371,245,cs),
(371,345,o),
(428,438,o),
(503,438,cs),
(546,438,o),
(579,407,o),
(579,365,cs)
);
}
);
width = 975;
},
{
layerId = "B4AF9C66-4182-4BB3-8260-B15F342CB5AD";
shapes = (
{
closed = 1;
nodes = (
(951,572,o),
(758,741,o),
(525,741,cs),
(258,741,o),
(34,519,o),
(34,258,cs),
(34,36,o),
(236,-142,o),
(489,-142,cs),
(563,-142,o),
(643,-127,o),
(715,-100,c),
(687,-33,l),
(605,-56,o),
(548,-65,o),
(494,-65,cs),
(282,-65,o),
(119,82,o),
(119,273,cs),
(119,483,o),
(301,664,o),
(512,664,cs),
(703,664,o),
(864,524,o),
(864,357,cs),
(864,240,o),
(781,127,o),
(696,127,cs),
(669,127,o),
(646,147,o),
(646,171,c),
(645,180,o),
(650,198,o),
(658,221,c),
(748,501,l),
(665,501,l),
(643,435,l),
(618,492,o),
(576,522,o),
(521,522,cs),
(387,522,o),
(264,390,o),
(264,245,cs),
(264,141,o),
(334,62,o),
(427,62,cs),
(480,62,o),
(523,84,o),
(569,134,c),
(578,83,o),
(616,57,o),
(679,57,cs),
(835,57,o),
(951,220,o),
(951,369,cs)
);
},
{
closed = 1;
nodes = (
(609,362,l),
(604,240,o),
(531,126,o),
(453,126,cs),
(398,126,o),
(354,178,o),
(354,244,cs),
(354,356,o),
(431,458,o),
(515,458,cs),
(569,458,o),
(609,419,o),
(609,367,cs)
);
}
);
width = 1015;
},
{
layerId = "72302C92-9F48-4323-B731-8A9E50B35526";
shapes = (
{
closed = 1;
nodes = (
(947,573,o),
(754,741,o),
(522,741,cs),
(256,741,o),
(32,518,o),
(32,258,cs),
(32,37,o),
(234,-141,o),
(485,-141,cs),
(560,-141,o),
(640,-125,o),
(706,-101,c),
(682,-43,l),
(604,-66,o),
(546,-75,o),
(490,-75,cs),
(273,-75,o),
(106,77,o),
(106,273,cs),
(106,488,o),
(293,675,o),
(509,675,cs),
(706,675,o),
(871,530,o),
(871,358,cs),
(871,235,o),
(784,119,o),
(695,119,cs),
(664,119,o),
(638,142,o),
(638,170,c),
(637,179,o),
(643,198,o),
(651,222,cs),
(748,497,l),
(676,497,l),
(651,421,l),
(627,485,o),
(584,519,o),
(526,519,cs),
(393,519,o),
(264,388,o),
(264,245,cs),
(264,143,o),
(332,65,o),
(422,65,cs),
(478,65,o),
(522,89,o),
(569,143,c),
(575,88,o),
(613,60,o),
(678,60,cs),
(831,60,o),
(947,221,o),
(947,370,cs)
);
},
{
closed = 1;
nodes = (
(621,362,l),
(616,235,o),
(531,118,o),
(453,118,cs),
(394,118,o),
(347,173,o),
(347,244,cs),
(347,361,o),
(432,466,o),
(520,466,cs),
(579,466,o),
(621,424,o),
(621,367,cs)
);
}
);
width = 1032;
}
);
unicode = 64;
},
{
glyphname = B;
layers = (
{
layerId = "68A22FE7-C8F3-439C-857C-EB17D6453AAF";
name = "#instance";
shapes = (
{
closed = 1;
nodes = (
(594,290,o),
(556,339,o),
(461,369,c),
(523,392,o),
(559,449,o),
(559,525,cs),
(559,629,o),
(487,700,o),
(361,700,cs),
(88,700,l),
(88,0,l),
(405,0,ls),
(514,0,o),
(594,84,o),
(594,200,cs)
);
},
{
closed = 1;
nodes = (
(490,434,o),
(447,389,o),
(334,389,cs),
(155,389,l),
(155,638,l),
(334,638,ls),
(447,638,o),
(490,593,o),
(490,514,cs)
);
},
{
closed = 1;
nodes = (
(525,123,o),
(482,62,o),
(392,62,cs),
(155,62,l),
(155,327,l),
(392,327,ls),
(482,327,o),
(525,266,o),
(525,194,cs)
);
}
);
width = 645;
},
{
layerId = "E4F5910F-7A79-4870-ADFC-893AC9D78200";
shapes = (
{
closed = 1;
nodes = (
(675,264,o),
(638,320,o),
(565,372,c),
(637,424,o),
(660,458,o),
(660,512,cs),
(660,609,o),
(573,700,o),
(420,700,cs),
(95,700,l),
(95,0,l),
(409,0,ls),
(591,0,o),
(675,88,o),
(675,203,cs)
);
},
{
closed = 1;
nodes = (
(497,454,o),
(464,433,o),
(414,433,cs),
(266,433,l),
(266,559,l),
(414,559,ls),
(464,559,o),
(497,538,o),
(497,495,cs)
);
},
{
closed = 1;
nodes = (
(512,162,o),
(478,141,o),
(415,141,cs),
(266,141,l),
(266,292,l),
(415,292,ls),
(478,292,o),
(512,271,o),
(512,216,cs)
);
}
);
width = 750;
},
{
layerId = "0486BCA8-F793-4B15-B8A2-0882358C0736";
shapes = (
{
closed = 1;
nodes = (
(653,271,o),
(616,325,o),
(537,372,c),
(606,416,o),
(633,456,o),
(633,516,cs),
(633,614,o),
(551,700,o),
(405,700,cs),
(93,700,l),
(93,0,l),
(408,0,ls),
(571,0,o),
(653,86,o),
(653,202,cs)
);
},
{
closed = 1;
nodes = (
(495,449,o),
(459,421,o),
(393,421,cs),
(237,421,l),
(237,580,l),
(393,580,ls),
(459,580,o),
(495,552,o),
(495,500,cs)
);
},
{
closed = 1;
nodes = (
(515,152,o),
(479,120,o),
(409,120,cs),
(237,120,l),
(237,301,l),
(409,301,ls),
(479,301,o),
(515,270,o),
(515,210,cs)
);
}
);
width = 722;
},
{
layerId = "B4AF9C66-4182-4BB3-8260-B15F342CB5AD";
shapes = (
{
closed = 1;
nodes = (
(611,284,o),
(573,335,o),
(483,370,c),
(547,399,o),
(580,451,o),
(580,522,cs),
(580,624,o),
(505,700,o),
(373,700,cs),
(89,700,l),
(89,0,l),
(405,0,ls),
(530,0,o),
(611,84,o),
(611,200,cs)
);
},
{
closed = 1;
nodes = (
(491,439,o),
(450,398,o),
(351,398,cs),
(178,398,l),
(178,621,l),
(351,621,ls),
(450,621,o),
(491,581,o),
(491,510,cs)
);
},
{
closed = 1;
nodes = (
(522,132,o),
(481,79,o),
(396,79,cs),
(178,79,l),
(178,320,l),
(396,320,ls),
(481,320,o),
(522,267,o),
(522,199,cs)
);
}
);
width = 667;
},
{
layerId = "72302C92-9F48-4323-B731-8A9E50B35526";
shapes = (
{
closed = 1;
nodes = (
(594,290,o),
(556,339,o),
(461,369,c),
(523,392,o),
(559,449,o),
(559,525,cs),
(559,629,o),
(487,700,o),
(361,700,cs),
(88,700,l),
(88,0,l),
(405,0,ls),
(514,0,o),
(594,84,o),
(594,200,cs)
);
},
{
closed = 1;
nodes = (
(490,434,o),
(447,389,o),
(334,389,cs),
(155,389,l),
(155,638,l),
(334,638,ls),
(447,638,o),
(490,593,o),
(490,514,cs)
);
},
{
closed = 1;
nodes = (
(525,123,o),
(482,62,o),
(392,62,cs),
(155,62,l),
(155,327,l),
(392,327,ls),
(482,327,o),
(525,266,o),
(525,194,cs)
);
}
);
width = 645;
}
);
unicode = 66;
},
{
glyphname = b;
layers = (
{
layerId = "68A22FE7-C8F3-439C-857C-EB17D6453AAF";
name = "#instance";
shapes = (
{
closed = 1;
nodes = (
(600,406,o),
(516,554,o),
(371,554,cs),
(307,554,o),
(261,530,o),
(229,479,c),
(229,729,l),
(61,729,l),
(61,0,l),
(233,0,l),
(233,55,l),
(264,17,o),
(308,-6,o),
(374,-6,cs),
(498,-6,o),
(600,100,o),
(600,261,cs)
);
},
{
closed = 1;
nodes = (
(434,184,o),
(392,130,o),
(333,130,cs),
(271,130,o),
(229,181,o),
(229,277,cs),
(229,363,o),
(272,416,o),
(333,418,c),
(390,418,o),
(434,364,o),
(434,272,cs)
);
}
);
width = 639;
},
{
layerId = "E4F5910F-7A79-4870-ADFC-893AC9D78200";
shapes = (
{
closed = 1;
nodes = (
(600,406,o),
(516,554,o),
(371,554,cs),
(307,554,o),
(261,530,o),
(229,479,c),
(229,729,l),
(61,729,l),
(61,0,l),
(233,0,l),
(233,55,l),
(264,17,o),
(308,-6,o),
(374,-6,cs),
(498,-6,o),
(600,100,o),
(600,261,cs)
);
},
{
closed = 1;
nodes = (
(434,184,o),
(392,130,o),
(333,130,cs),
(271,130,o),
(229,181,o),
(229,277,cs),
(229,363,o),
(272,416,o),
(333,418,c),
(390,418,o),
(434,364,o),
(434,272,cs)
);
}
);
width = 639;
},
{
layerId = "0486BCA8-F793-4B15-B8A2-0882358C0736";
shapes = (
{
closed = 1;
nodes = (
(575,416,o),
(490,549,o),
(348,549,cs),
(281,549,o),
(233,524,o),
(199,470,c),
(199,729,l),
(59,729,l),
(59,0,l),
(199,0,l),
(199,62,l),
(233,16,o),
(280,-9,o),
(348,-9,cs),
(477,-9,o),
(575,100,o),
(575,263,cs)
);
},
{
closed = 1;
nodes = (
(435,171,o),
(386,108,o),
(317,108,cs),
(246,108,o),
(199,169,o),
(199,272,cs),
(199,370,o),
(247,432,o),
(317,432,cs),
(386,432,o),
(435,369,o),
(435,269,cs)
);
}
);
width = 611;
},
{
layerId = "B4AF9C66-4182-4BB3-8260-B15F342CB5AD";
shapes = (
{
closed = 1;
nodes = (
(523,438,o),
(437,539,o),
(299,539,cs),
(227,539,o),
(176,512,o),
(137,453,c),
(137,729,l),
(54,729,l),
(54,0,l),
(129,0,l),
(129,75,l),
(169,14,o),
(222,-15,o),
(295,-15,cs),
(433,-15,o),
(523,98,o),
(523,268,cs)
);
},
{
closed = 1;
nodes = (
(436,144,o),
(374,63,o),
(283,63,cs),
(195,63,o),
(137,143,o),
(137,262,cs),
(137,385,o),
(195,465,o),
(283,461,c),
(376,461,o),
(436,380,o),
(436,263,cs)
);
}
);
width = 556;
},
{
layerId = "72302C92-9F48-4323-B731-8A9E50B35526";
shapes = (
{
closed = 1;
nodes = (
(502,448,o),
(416,535,o),
(279,535,cs),
(205,535,o),
(153,507,o),
(112,446,c),
(112,729,l),
(52,729,l),
(52,0,l),
(101,0,l),
(101,81,l),
(143,14,o),
(199,-17,o),
(273,-17,cs),
(416,-17,o),
(502,98,o),
(502,270,cs)
);
},
{
closed = 1;
nodes = (
(437,133,o),
(370,45,o),
(270,45,cs),
(174,45,o),
(112,133,o),
(112,259,cs),
(112,391,o),
(174,479,o),
(270,473,c),
(373,473,o),
(437,385,o),
(437,261,cs)
);
}
);
width = 534;
}
);
unicode = 98;
},
{
glyphname = backslash;
layers = (
{
layerId = "68A22FE7-C8F3-439C-857C-EB17D6453AAF";
name = "#instance";
shapes = (
{
closed = 1;
nodes = (
(276,-22,l),
(37,736,l),
(-1,736,l),
(238,-22,l)
);
}
);
width = 278;
},
{
layerId = "E4F5910F-7A79-4870-ADFC-893AC9D78200";
shapes = (
{
closed = 1;
nodes = (
(315,-11,l),
(83,707,l),
(-35,707,l),
(198,-11,l)
);
}
);
width = 278;
},
{
layerId = "0486BCA8-F793-4B15-B8A2-0882358C0736";
shapes = (
{
closed = 1;
nodes = (
(305,-14,l),
(71,714,l),
(-26,714,l),
(208,-14,l)
);
}
);
width = 278;
},
{
layerId = "B4AF9C66-4182-4BB3-8260-B15F342CB5AD";
shapes = (
{
closed = 1;
nodes = (
(284,-20,l),
(47,729,l),
(-8,729,l),
(229,-20,l)
);
}
);
width = 278;
},
{
layerId = "72302C92-9F48-4323-B731-8A9E50B35526";
shapes = (
{
closed = 1;
nodes = (
(276,-22,l),
(37,736,l),
(-1,736,l),
(238,-22,l)
);
}
);
width = 278;
}
);
unicode = 92;
},
{
glyphname = bar;
layers = (
{
layerId = "68A22FE7-C8F3-439C-857C-EB17D6453AAF";
name = "#instance";
shapes = (
{
closed = 1;
nodes = (
(153,-217,l),
(153,729,l),
(98,729,l),
(98,-217,l)
);
}
);
width = 252;
},
{
layerId = "E4F5910F-7A79-4870-ADFC-893AC9D78200";
shapes = (
{
closed = 1;
nodes = (
(203,-194,l),
(203,729,l),
(87,729,l),
(87,-194,l)
);
}
);
width = 290;
},
{
layerId = "0486BCA8-F793-4B15-B8A2-0882358C0736";
shapes = (
{
closed = 1;
nodes = (
(190,-200,l),
(190,729,l),
(90,729,l),
(90,-200,l)
);
}
);
width = 280;
},
{
layerId = "B4AF9C66-4182-4BB3-8260-B15F342CB5AD";
shapes = (
{
closed = 1;
nodes = (
(164,-212,l),
(164,729,l),
(96,729,l),
(96,-212,l)
);
}
);
width = 260;
},
{
layerId = "72302C92-9F48-4323-B731-8A9E50B35526";
shapes = (
{
closed = 1;
nodes = (
(153,-217,l),
(153,729,l),
(98,729,l),
(98,-217,l)
);
}
);
width = 252;
}
);
unicode = 124;
},
{
glyphname = braceleft;
layers = (
{
layerId = "68A22FE7-C8F3-439C-857C-EB17D6453AAF";
name = "#instance";
shapes = (
{
closed = 1;
nodes = (
(259,-217,l),
(259,-166,l),
(253,-166,ls),
(199,-166,o),
(183,-151,o),
(183,-98,cs),
(183,94,ls),
(183,169,o),
(151,223,o),
(108,256,c),
(156,284,o),
(183,332,o),
(183,416,cs),
(183,607,ls),
(183,664,o),
(197,678,o),
(253,678,cs),
(259,678,l),
(259,729,l),
(226,729,ls),
(159,729,o),
(123,685,o),
(123,602,cs),
(123,436,ls),
(123,337,o),
(95,302,o),
(47,285,c),
(47,225,l),
(95,208,o),
(123,169,o),
(123,77,cs),
(123,-89,ls),
(123,-173,o),
(159,-217,o),
(226,-217,cs)
);
}
);
width = 312;
},
{
layerId = "E4F5910F-7A79-4870-ADFC-893AC9D78200";
shapes = (
{
closed = 1;
nodes = (
(338,-194,l),
(338,-78,l),
(290,-78,ls),
(264,-78,o),
(254,-61,o),
(254,-14,cs),
(254,129,ls),
(254,243,o),
(258,264,o),
(150,273,c),
(255,281,o),
(254,306,o),
(254,417,cs),
(254,561,ls),
(254,595,o),
(268,613,o),
(290,613,cs),
(338,613,l),
(338,729,l),
(247,729,ls),
(173,729,o),
(117,666,o),
(117,585,cs),
(117,414,ls),
(117,345,o),
(127,319,o),
(35,325,c),
(35,222,l),
(131,228,o),
(117,206,o),
(117,119,cs),
(117,-50,ls),
(117,-131,o),
(173,-194,o),
(247,-194,cs)
);
}
);
width = 417;
},
{
layerId = "0486BCA8-F793-4B15-B8A2-0882358C0736";
shapes = (
{
closed = 1;
nodes = (
(317,-200,l),
(317,-101,l),
(280,-101,ls),
(246,-101,o),
(235,-85,o),
(235,-36,cs),
(235,120,ls),
(235,224,o),
(229,254,o),
(138,269,c),
(229,282,o),
(235,313,o),
(235,417,cs),
(235,573,ls),
(235,613,o),
(249,630,o),
(280,630,cs),
(317,630,l),
(317,729,l),
(241,729,ls),
(169,729,o),
(118,671,o),
(118,589,cs),
(118,420,ls),
(118,343,o),
(118,315,o),
(37,315,c),
(37,223,l),
(121,223,o),
(118,197,o),
(118,108,cs),
(118,-60,ls),
(118,-142,o),
(169,-200,o),
(241,-200,cs)
);
}
);
width = 389;
},
{
layerId = "B4AF9C66-4182-4BB3-8260-B15F342CB5AD";
shapes = (
{
closed = 1;
nodes = (
(276,-212,l),
(276,-147,l),
(261,-147,ls),
(212,-147,o),
(198,-132,o),
(198,-80,cs),
(198,101,ls),
(198,185,o),
(173,232,o),
(116,259,c),
(177,283,o),
(198,326,o),
(198,416,cs),
(198,597,ls),
(198,649,o),
(212,664,o),
(261,664,cs),
(276,664,l),
(276,729,l),
(230,729,ls),
(161,729,o),
(121,681,o),
(121,598,cs),
(121,431,ls),
(121,338,o),
(101,305,o),
(43,293,c),
(43,224,l),
(102,212,o),
(121,177,o),
(121,86,cs),
(121,-81,ls),
(121,-164,o),
(161,-212,o),
(230,-212,cs)
);
}
);
width = 334;
},
{
layerId = "72302C92-9F48-4323-B731-8A9E50B35526";
shapes = (
{
closed = 1;
nodes = (
(259,-217,l),
(259,-166,l),
(253,-166,ls),
(199,-166,o),
(183,-151,o),
(183,-98,cs),
(183,94,ls),
(183,169,o),
(151,223,o),
(108,256,c),
(156,284,o),
(183,332,o),
(183,416,cs),
(183,607,ls),
(183,664,o),
(197,678,o),
(253,678,cs),
(259,678,l),
(259,729,l),
(226,729,ls),
(159,729,o),
(123,685,o),
(123,602,cs),
(123,436,ls),
(123,337,o),
(95,302,o),
(47,285,c),
(47,225,l),
(95,208,o),
(123,169,o),
(123,77,cs),
(123,-89,ls),
(123,-173,o),
(159,-217,o),
(226,-217,cs)
);
}
);
width = 312;
}
);
unicode = 123;
},
{
glyphname = braceright;
layers = (
{
layerId = "68A22FE7-C8F3-439C-857C-EB17D6453AAF";
name = "#instance";
shapes = (
{
closed = 1;
nodes = (
(225,288,l),
(178,305,o),
(151,342,o),
(151,435,cs),
(151,602,ls),
(151,685,o),
(116,729,o),
(47,729,cs),
(12,729,l),
(12,678,l),
(20,678,ls),
(76,678,o),
(91,664,o),
(91,610,cs),
(91,419,ls),
(91,346,o),
(125,288,o),
(167,257,c),
(118,226,o),
(91,167,o),
(91,80,cs),
(91,-95,ls),
(91,-152,o),
(77,-166,o),
(20,-166,cs),
(12,-166,l),
(12,-217,l),
(47,-217,ls),
(116,-217,o),
(151,-173,o),
(151,-90,cs),
(151,74,ls),
(151,174,o),
(176,211,o),
(225,228,c)
);
}
);
width = 312;
},
{
layerId = "E4F5910F-7A79-4870-ADFC-893AC9D78200";
shapes = (
{
closed = 1;
nodes = (
(396,312,l),
(300,306,o),
(313,328,o),
(313,416,cs),
(313,585,ls),
(313,666,o),
(257,729,o),
(183,729,cs),
(93,729,l),
(93,613,l),
(141,613,ls),
(166,613,o),
(176,596,o),
(176,549,cs),
(176,405,ls),
(176,290,o),
(172,270,o),
(280,261,c),
(196,257,o),
(176,244,o),
(176,176,cs),
(176,-26,ls),
(176,-60,o),
(162,-78,o),
(141,-78,cs),
(93,-78,l),
(93,-194,l),
(183,-194,ls),
(257,-194,o),
(313,-131,o),
(313,-50,cs),
(313,131,ls),
(313,197,o),
(311,215,o),
(396,209,c)
);
}
);
width = 417;
},
{
layerId = "0486BCA8-F793-4B15-B8A2-0882358C0736";
shapes = (
{
closed = 1;
nodes = (
(352,306,l),
(268,306,o),
(271,332,o),
(271,421,cs),
(271,589,ls),
(271,671,o),
(220,729,o),
(148,729,cs),
(72,729,l),
(72,630,l),
(109,630,ls),
(143,630,o),
(154,614,o),
(154,565,cs),
(154,409,ls),
(154,305,o),
(160,275,o),
(251,260,c),
(176,249,o),
(154,224,o),
(154,151,cs),
(154,-44,ls),
(154,-84,o),
(140,-101,o),
(109,-101,cs),
(72,-101,l),
(72,-200,l),
(148,-200,ls),
(220,-200,o),
(271,-142,o),
(271,-60,cs),
(271,116,ls),
(271,191,o),
(276,214,o),
(352,214,c)
);
}
);
width = 389;
},
{
layerId = "B4AF9C66-4182-4BB3-8260-B15F342CB5AD";
shapes = (
{
closed = 1;
nodes = (
(262,293,l),
(204,305,o),
(186,339,o),
(186,431,cs),
(186,598,ls),
(186,681,o),
(146,729,o),
(76,729,cs),
(29,729,l),
(29,664,l),
(45,664,ls),
(95,664,o),
(109,649,o),
(109,597,cs),
(109,416,ls),
(109,334,o),
(135,284,o),
(191,258,c),
(135,233,o),
(109,184,o),
(109,101,cs),
(109,-80,ls),
(109,-132,o),
(95,-147,o),
(45,-147,cs),
(29,-147,l),
(29,-212,l),
(76,-212,ls),
(146,-212,o),
(186,-164,o),
(186,-81,cs),
(186,86,ls),
(186,179,o),
(205,212,o),
(262,224,c)
);
}
);
width = 334;
},
{
layerId = "72302C92-9F48-4323-B731-8A9E50B35526";
shapes = (
{
closed = 1;
nodes = (
(225,288,l),
(178,305,o),
(151,342,o),
(151,435,cs),
(151,602,ls),
(151,685,o),
(116,729,o),
(47,729,cs),
(12,729,l),
(12,678,l),
(20,678,ls),
(76,678,o),
(91,664,o),
(91,610,cs),
(91,419,ls),
(91,346,o),
(125,288,o),
(167,257,c),
(118,226,o),
(91,167,o),
(91,80,cs),
(91,-95,ls),
(91,-152,o),
(77,-166,o),
(20,-166,cs),
(12,-166,l),
(12,-217,l),
(47,-217,ls),
(116,-217,o),
(151,-173,o),
(151,-90,cs),
(151,74,ls),
(151,174,o),
(176,211,o),
(225,228,c)
);
}
);
width = 312;
}
);
unicode = 125;
},
{
glyphname = bracketleft;
layers = (
{
layerId = "68A22FE7-C8F3-439C-857C-EB17D6453AAF";
name = "#instance";
shapes = (
{
closed = 1;
nodes = (
(227,-217,l),
(227,-157,l),
(127,-157,l),
(127,669,l),
(227,669,l),
(227,729,l),
(63,729,l),
(63,-217,l)
);
}
);
width = 256;
},
{
layerId = "E4F5910F-7A79-4870-ADFC-893AC9D78200";
shapes = (
{
closed = 1;
nodes = (
(336,-194,l),
(336,-77,l),
(220,-77,l),
(220,612,l),
(336,612,l),
(336,729,l),
(67,729,l),
(67,-194,l)
);
}
);
width = 361;
},
{
layerId = "0486BCA8-F793-4B15-B8A2-0882358C0736";
shapes = (
{
closed = 1;
nodes = (
(308,-200,l),
(308,-98,l),
(196,-98,l),
(196,627,l),
(308,627,l),
(308,729,l),
(66,729,l),
(66,-200,l)
);
}
);
width = 333;
},
{
layerId = "B4AF9C66-4182-4BB3-8260-B15F342CB5AD";
shapes = (
{
closed = 1;
nodes = (
(250,-212,l),
(250,-140,l),
(147,-140,l),
(147,657,l),
(250,657,l),
(250,729,l),
(64,729,l),
(64,-212,l)
);
}
);
width = 278;
},
{
layerId = "72302C92-9F48-4323-B731-8A9E50B35526";
shapes = (
{
closed = 1;
nodes = (
(227,-217,l),
(227,-157,l),
(127,-157,l),
(127,669,l),
(227,669,l),
(227,729,l),
(63,729,l),
(63,-217,l)
);
}
);
width = 256;
}
);
unicode = 91;
},
{
glyphname = bracketright;
layers = (
{
layerId = "68A22FE7-C8F3-439C-857C-EB17D6453AAF";
name = "#instance";
shapes = (
{
closed = 1;
nodes = (
(188,-217,l),
(188,729,l),
(25,729,l),
(25,669,l),
(124,669,l),
(124,-157,l),
(25,-157,l),
(25,-217,l)
);
}
);
width = 256;
},
{
layerId = "E4F5910F-7A79-4870-ADFC-893AC9D78200";
shapes = (
{
closed = 1;
nodes = (
(285,-194,l),
(285,729,l),
(16,729,l),
(16,612,l),
(132,612,l),
(132,-77,l),
(16,-77,l),
(16,-194,l)
);
}
);
width = 361;
},
{
layerId = "0486BCA8-F793-4B15-B8A2-0882358C0736";
shapes = (
{
closed = 1;
nodes = (
(260,-200,l),
(260,729,l),
(18,729,l),
(18,627,l),
(130,627,l),
(130,-98,l),
(18,-98,l),
(18,-200,l)
);
}
);
width = 333;
},
{
layerId = "B4AF9C66-4182-4BB3-8260-B15F342CB5AD";
shapes = (
{
closed = 1;
nodes = (
(209,-212,l),
(209,729,l),
(23,729,l),
(23,657,l),
(126,657,l),
(126,-140,l),
(23,-140,l),
(23,-212,l)
);
}
);
width = 278;
},
{
layerId = "72302C92-9F48-4323-B731-8A9E50B35526";
shapes = (
{
closed = 1;
nodes = (
(188,-217,l),
(188,729,l),
(25,729,l),
(25,669,l),
(124,669,l),
(124,-157,l),
(25,-157,l),
(25,-217,l)
);
}
);
width = 256;
}
);
unicode = 93;
},
{
glyphname = C;
layers = (
{
hints = (
{
horizontal = 1;
origin = (0,22);
target = (0,3);
type = Stem;
},
{
horizontal = 1;
origin = (0,9);
target = (0,16);
type = Stem;
},
{
origin = (0,19);
target = (0,6);
type = Stem;
}
);
layerId = "68A22FE7-C8F3-439C-857C-EB17D6453AAF";
name = "#instance";
shapes = (
{
closed = 1;
nodes = (
(590,263,l),
(563,112,o),
(508,42,o),
(379,42,cs),
(227,42,o),
(129,158,o),
(129,342,cs),
(129,532,o),
(221,659,o),
(365,659,cs),
(488,659,o),
(548,605,o),
(571,492,c),
(643,492,l),
(609,642,o),
(534,720,o),
(382,720,cs),
(165,720,o),
(62,535,o),
(62,339,cs),
(62,144,o),
(169,-19,o),
(378,-19,cs),
(549,-19,o),
(635,71,o),
(662,263,c)
);
}
);
width = 722;
},
{
hints = (
{
horizontal = 1;
origin = (0,22);
target = (0,3);
type = Stem;
},
{
horizontal = 1;
origin = (0,9);
target = (0,16);
type = Stem;
},
{
origin = (0,19);
target = (0,6);
type = Stem;
}
);
layerId = "E4F5910F-7A79-4870-ADFC-893AC9D78200";
shapes = (
{
closed = 1;
nodes = (
(512,231,l),
(510,163,o),
(453,133,o),
(378,133,cs),
(280,133,o),
(226,208,o),
(226,349,cs),
(226,492,o),
(286,563,o),
(388,563,cs),
(450,563,o),
(498,534,o),
(518,452,c),
(679,452,l),
(674,617,o),
(535,708,o),
(376,708,cs),
(186,708,o),
(54,590,o),
(54,353,cs),
(54,118,o),
(182,-9,o),
(372,-9,cs),
(548,-9,o),
(673,82,o),
(676,231,c)
);
}
);
width = 722;
},
{
hints = (
{
horizontal = 1;
origin = (0,22);
target = (0,3);
type = Stem;
},
{
horizontal = 1;
origin = (0,9);
target = (0,16);
type = Stem;
},
{
origin = (0,19);
target = (0,6);
type = Stem;
}
);
layerId = "0486BCA8-F793-4B15-B8A2-0882358C0736";
shapes = (
{
closed = 1;
nodes = (
(531,239,l),
(523,150,o),
(466,109,o),
(377,109,cs),
(266,109,o),
(200,195,o),
(200,348,cs),
(200,502,o),
(268,588,o),
(382,588,cs),
(459,588,o),
(510,553,o),
(531,463,c),
(669,463,l),
(656,624,o),
(534,711,o),
(377,711,cs),
(179,711,o),
(56,576,o),
(56,349,cs),
(56,125,o),
(178,-12,o),
(373,-12,cs),
(547,-12,o),
(663,79,o),
(672,239,c)
);
}
);
width = 722;
},
{
hints = (
{
horizontal = 1;
origin = (0,22);
target = (0,3);
type = Stem;
},
{
horizontal = 1;
origin = (0,9);
target = (0,16);
type = Stem;
},
{
origin = (0,19);
target = (0,6);
type = Stem;
}
);
layerId = "B4AF9C66-4182-4BB3-8260-B15F342CB5AD";
shapes = (
{
closed = 1;
nodes = (
(572,255,l),
(551,123,o),
(495,61,o),
(377,61,cs),
(238,61,o),
(149,168,o),
(149,343,cs),
(149,522,o),
(234,638,o),
(369,638,cs),
(479,638,o),
(536,589,o),
(558,483,c),
(650,483,l),
(622,636,o),
(533,717,o),
(380,717,cs),
(168,717,o),
(60,546,o),
(60,342,cs),
(60,137,o),
(170,-17,o),
(376,-17,cs),
(547,-17,o),
(643,73,o),
(664,255,c)
);
}
);
width = 722;
},
{
hints = (
{
horizontal = 1;
origin = (0,22);
target = (0,3);
type = Stem;
},
{
horizontal = 1;
origin = (0,9);
target = (0,16);
type = Stem;
},
{
origin = (0,19);
target = (0,6);
type = Stem;
}
);
layerId = "72302C92-9F48-4323-B731-8A9E50B35526";
shapes = (
{
closed = 1;
nodes = (
(590,263,l),
(563,112,o),
(508,42,o),
(379,42,cs),
(227,42,o),
(129,158,o),
(129,342,cs),
(129,532,o),
(221,659,o),
(365,659,cs),
(488,659,o),
(548,605,o),
(571,492,c),
(643,492,l),
(609,642,o),
(534,720,o),
(382,720,cs),
(165,720,o),
(62,535,o),
(62,339,cs),
(62,144,o),
(169,-19,o),
(378,-19,cs),
(549,-19,o),
(635,71,o),
(662,263,c)
);
}
);
width = 722;
}
);
unicode = 67;
},
{
glyphname = c;
layers = (
{
hints = (
{
horizontal = 1;
origin = (0,22);
target = (0,3);
type = Stem;
},
{
horizontal = 1;
origin = (0,9);
target = (0,16);
type = Stem;
},
{
origin = (0,19);
target = (0,6);
type = Stem;
}
);
layerId = "68A22FE7-C8F3-439C-857C-EB17D6453AAF";
name = "#instance";
shapes = (
{
closed = 1;
nodes = (
(384,191,l),
(365,148,o),
(344,125,o),
(299,125,cs),
(238,125,o),
(201,175,o),
(201,270,cs),
(201,354,o),
(213,423,o),
(299,423,cs),
(350,423,o),
(368,403,o),
(387,333,c),
(547,333,l),
(537,467,o),
(444,554,o),
(300,554,cs),
(130,554,o),
(35,459,o),
(35,270,cs),
(35,88,o),
(129,-6,o),
(298,-6,cs),
(432,-6,o),
(529,78,o),
(544,191,c)
);
}
);
width = 584;
},
{
hints = (
{
horizontal = 1;
origin = (0,22);
target = (0,3);
type = Stem;
},
{
horizontal = 1;
origin = (0,9);
target = (0,16);
type = Stem;
},
{
origin = (0,19);
target = (0,6);
type = Stem;
}
);
layerId = "E4F5910F-7A79-4870-ADFC-893AC9D78200";
shapes = (
{
closed = 1;
nodes = (
(384,191,l),
(365,148,o),
(344,125,o),
(299,125,cs),
(238,125,o),
(201,175,o),
(201,270,cs),
(201,354,o),
(213,423,o),
(299,423,cs),
(350,423,o),
(368,403,o),
(387,333,c),
(547,333,l),
(537,467,o),
(444,554,o),
(300,554,cs),
(130,554,o),
(35,459,o),
(35,270,cs),
(35,88,o),
(129,-6,o),
(298,-6,cs),
(432,-6,o),
(529,78,o),
(544,191,c)
);
}
);
width = 584;
},
{
hints = (
{
horizontal = 1;
origin = (0,22);
target = (0,3);
type = Stem;
},
{
horizontal = 1;
origin = (0,9);
target = (0,16);
type = Stem;
},
{
origin = (0,19);
target = (0,6);
type = Stem;
}
);
layerId = "0486BCA8-F793-4B15-B8A2-0882358C0736";
shapes = (
{
closed = 1;
nodes = (
(388,187,l),
(370,131,o),
(342,104,o),
(288,104,cs),
(217,104,o),
(174,161,o),
(174,266,cs),
(174,365,o),
(200,436,o),
(288,436,cs),
(345,436,o),
(372,409,o),
(388,338,c),
(522,338,l),
(512,470,o),
(424,549,o),
(289,549,cs),
(128,549,o),
(34,450,o),
(34,266,cs),
(34,88,o),
(127,-9,o),
(287,-9,cs),
(418,-9,o),
(509,72,o),
(522,187,c)
);
}
);
width = 556;
},
{
hints = (
{
horizontal = 1;
origin = (0,22);
target = (0,3);
type = Stem;
},
{
horizontal = 1;
origin = (0,9);
target = (0,16);
type = Stem;
},
{
origin = (0,19);
target = (0,6);
type = Stem;
}
);
layerId = "B4AF9C66-4182-4BB3-8260-B15F342CB5AD";
shapes = (
{
closed = 1;
nodes = (
(393,180,l),
(379,96,o),
(336,62,o),
(265,62,cs),
(173,62,o),
(118,133,o),
(118,257,cs),
(118,388,o),
(172,462,o),
(263,462,cs),
(333,462,o),
(377,421,o),
(387,348,c),
(471,348,l),
(461,476,o),
(381,539,o),
(264,539,cs),
(123,539,o),
(31,431,o),
(31,257,cs),
(31,88,o),
(121,-15,o),
(263,-15,cs),
(388,-15,o),
(467,60,o),
(477,180,c)
);
}
);
width = 500;
},
{
hints = (
{
horizontal = 1;
origin = (0,22);
target = (0,3);
type = Stem;
},
{
horizontal = 1;
origin = (0,9);
target = (0,16);
type = Stem;
},
{
origin = (0,19);
target = (0,6);
type = Stem;
}
);
layerId = "72302C92-9F48-4323-B731-8A9E50B35526";
shapes = (
{
closed = 1;
nodes = (
(396,178,l),
(383,82,o),
(334,45,o),
(256,45,cs),
(155,45,o),
(95,122,o),
(95,254,cs),
(95,398,o),
(161,473,o),
(253,473,cs),
(328,473,o),
(380,426,o),
(387,352,c),
(450,352,l),
(440,479,o),
(364,535,o),
(254,535,cs),
(122,535,o),
(30,424,o),
(30,254,cs),
(30,88,o),
(119,-17,o),
(253,-17,cs),
(376,-17,o),
(450,55,o),
(459,178,c)
);
}
);
width = 477;
}
);
unicode = 99;
},
{
glyphname = colon;
layers = (
{
layerId = "68A22FE7-C8F3-439C-857C-EB17D6453AAF";
name = "#instance";
shapes = (
{
closed = 1;
nodes = (
(170,0,l),
(170,87,l),
(85,87,l),
(85,0,l)
);
},
{
closed = 1;
nodes = (
(170,439,l),
(170,526,l),
(85,526,l),
(85,439,l)
);
}
);
width = 256;
},
{
layerId = "E4F5910F-7A79-4870-ADFC-893AC9D78200";
shapes = (
{
closed = 1;
nodes = (
(267,0,l),
(267,167,l),
(94,167,l),
(94,0,l)
);
},
{
closed = 1;
nodes = (
(267,351,l),
(267,518,l),
(94,518,l),
(94,351,l)
);
}
);
width = 361;
},
{
layerId = "0486BCA8-F793-4B15-B8A2-0882358C0736";
shapes = (
{
closed = 1;
nodes = (
(242,0,l),
(242,146,l),
(92,146,l),
(92,0,l)
);
},
{
closed = 1;
nodes = (
(242,374,l),
(242,520,l),
(92,520,l),
(92,374,l)
);
}
);
width = 333;
},
{
layerId = "B4AF9C66-4182-4BB3-8260-B15F342CB5AD";
shapes = (
{
closed = 1;
nodes = (
(191,0,l),
(191,104,l),
(87,104,l),
(87,0,l)
);
},
{
closed = 1;
nodes = (
(191,420,l),
(191,524,l),
(87,524,l),
(87,420,l)
);
}
);
width = 278;
},
{
layerId = "72302C92-9F48-4323-B731-8A9E50B35526";
shapes = (
{
closed = 1;
nodes = (
(170,0,l),
(170,87,l),
(85,87,l),
(85,0,l)
);
},
{
closed = 1;
nodes = (
(170,439,l),
(170,526,l),
(85,526,l),
(85,439,l)
);
}
);
width = 256;
}
);
unicode = 58;
},
{
glyphname = comma;
layers = (
{
layerId = "68A22FE7-C8F3-439C-857C-EB17D6453AAF";
name = "#instance";
shapes = (
{
closed = 1;
nodes = (
(184,87,l),
(97,87,l),
(97,0,l),
(146,0,l),
(146,-11,ls),
(146,-91,o),
(143,-108,o),
(97,-106,c),
(97,-136,l),
(154,-141,o),
(184,-98,o),
(184,-27,cs)
);
}
);
width = 278;
},
{
layerId = "E4F5910F-7A79-4870-ADFC-893AC9D78200";
shapes = (
{
closed = 1;
nodes = (
(225,167,l),
(53,167,l),
(53,0,l),
(151,0,l),
(151,0,l),
(151,-64,o),
(116,-104,o),
(53,-122,c),
(53,-187,l),
(165,-169,o),
(225,-117,o),
(225,22,cs)
);
}
);
width = 278;
},
{
layerId = "0486BCA8-F793-4B15-B8A2-0882358C0736";
shapes = (
{
closed = 1;
nodes = (
(214,146,l),
(64,146,l),
(64,0,l),
(150,0,l),
(150,-3,ls),
(150,-71,o),
(123,-105,o),
(64,-118,c),
(64,-174,l),
(162,-162,o),
(214,-112,o),
(214,9,c)
);
}
);
width = 278;
},
{
layerId = "B4AF9C66-4182-4BB3-8260-B15F342CB5AD";
shapes = (
{
closed = 1;
nodes = (
(192,104,l),
(87,104,l),
(87,0,l),
(147,0,l),
(147,-9,ls),
(147,-85,o),
(137,-107,o),
(87,-109,c),
(87,-147,l),
(156,-147,o),
(192,-102,o),
(192,-16,c)
);
}
);
width = 278;
},
{
layerId = "72302C92-9F48-4323-B731-8A9E50B35526";
shapes = (
{
closed = 1;
nodes = (
(184,87,l),
(97,87,l),
(97,0,l),
(146,0,l),
(146,-11,ls),
(146,-91,o),
(143,-108,o),
(97,-106,c),
(97,-136,l),
(154,-141,o),
(184,-98,o),
(184,-27,cs)
);
}
);
width = 278;
}
);
unicode = 44;
},
{
glyphname = D;
layers = (
{
layerId = "68A22FE7-C8F3-439C-857C-EB17D6453AAF";
name = "#instance";
shapes = (
{
closed = 1;
nodes = (
(649,579,o),
(528,700,o),
(373,700,cs),
(104,700,l),
(104,0,l),
(373,0,ls),
(531,0,o),
(649,126,o),
(649,350,cs)
);
},
{
closed = 1;
nodes = (
(582,163,o),
(502,62,o),
(352,62,cs),
(172,62,l),
(172,638,l),
(352,638,ls),
(502,638,o),
(582,538,o),
(582,349,cs)
);
}
);
width = 722;
},
{
layerId = "E4F5910F-7A79-4870-ADFC-893AC9D78200";
shapes = (
{
closed = 1;
nodes = (
(674,530,o),
(613,700,o),
(358,700,cs),
(82,700,l),
(82,0,l),
(358,0,ls),
(605,0,o),
(674,163,o),
(674,350,cs)
);
},
{
closed = 1;
nodes = (
(503,207,o),
(459,141,o),
(365,141,cs),
(254,141,l),
(254,559,l),
(365,559,ls),
(459,559,o),
(503,492,o),
(503,349,cs)
);
}
);
width = 722;
},
{
layerId = "0486BCA8-F793-4B15-B8A2-0882358C0736";
shapes = (
{
closed = 1;
nodes = (
(668,543,o),
(591,700,o),
(362,700,cs),
(88,700,l),
(88,0,l),
(362,0,ls),
(586,0,o),
(668,153,o),
(668,350,cs)
);
},
{
closed = 1;
nodes = (
(524,196,o),
(470,120,o),
(362,120,cs),
(232,120,l),
(232,580,l),
(362,580,ls),
(470,580,o),
(524,504,o),
(524,349,cs)
);
}
);
width = 722;
},
{
layerId = "B4AF9C66-4182-4BB3-8260-B15F342CB5AD";
shapes = (
{
closed = 1;
nodes = (
(654,568,o),
(546,700,o),
(369,700,cs),
(99,700,l),
(99,0,l),
(369,0,ls),
(547,0,o),
(654,133,o),
(654,350,cs)
);
},
{
closed = 1;
nodes = (
(565,173,o),
(492,79,o),
(354,79,cs),
(189,79,l),
(189,621,l),
(354,621,ls),
(492,621,o),
(565,528,o),
(565,349,cs)
);
}
);
width = 722;
},
{
layerId = "72302C92-9F48-4323-B731-8A9E50B35526";
shapes = (
{
closed = 1;
nodes = (
(649,579,o),
(528,700,o),
(373,700,cs),
(104,700,l),
(104,0,l),
(373,0,ls),
(531,0,o),
(649,126,o),
(649,350,cs)
);
},
{
closed = 1;
nodes = (
(582,163,o),
(502,62,o),
(352,62,cs),
(172,62,l),
(172,638,l),
(352,638,ls),
(502,638,o),
(582,538,o),
(582,349,cs)
);
}
);
width = 722;
}
);
unicode = 68;
},
{
glyphname = d;
layers = (
{
layerId = "68A22FE7-C8F3-439C-857C-EB17D6453AAF";
name = "#instance";
shapes = (
{
closed = 1;
nodes = (
(569,0,l),
(569,729,l),
(401,729,l),
(401,476,l),
(366,531,o),
(323,554,o),
(258,554,cs),
(132,554,o),
(30,431,o),
(30,270,cs),
(30,128,o),
(112,-6,o),
(256,-6,cs),
(321,-6,o),
(367,18,o),
(397,54,c),
(397,0,l)
);
},
{
closed = 1;
nodes = (
(401,184,o),
(358,130,o),
(297,130,cs),
(237,130,o),
(196,185,o),
(196,273,cs),
(196,362,o),
(237,418,o),
(297,418,cs),
(359,418,o),
(401,365,o),
(401,271,cs)
);
}
);
width = 639;
},
{
layerId = "E4F5910F-7A79-4870-ADFC-893AC9D78200";
shapes = (
{
closed = 1;
nodes = (
(569,0,l),
(569,729,l),
(401,729,l),
(401,476,l),
(366,531,o),
(323,554,o),
(258,554,cs),
(132,554,o),
(30,431,o),
(30,270,cs),
(30,128,o),
(112,-6,o),
(256,-6,cs),
(321,-6,o),
(367,18,o),
(397,54,c),
(397,0,l)
);
},
{
closed = 1;
nodes = (
(401,184,o),
(358,130,o),
(297,130,cs),
(237,130,o),
(196,185,o),
(196,273,cs),
(196,362,o),
(237,418,o),
(297,418,cs),
(359,418,o),
(401,365,o),
(401,271,cs)
);
}
);
width = 639;
},
{
layerId = "0486BCA8-F793-4B15-B8A2-0882358C0736";
shapes = (
{
closed = 1;
nodes = (
(545,0,l),
(545,729,l),
(405,729,l),
(405,470,l),
(370,524,o),
(323,549,o),
(256,549,cs),
(127,549,o),
(29,432,o),
(29,269,cs),
(29,116,o),
(113,-9,o),
(256,-9,cs),
(323,-9,o),
(370,16,o),
(405,62,c),
(405,0,l)
);
},
{
closed = 1;
nodes = (
(405,169,o),
(357,108,o),
(287,108,cs),
(217,108,o),
(169,170,o),
(169,269,cs),
(169,369,o),
(217,432,o),
(287,432,cs),
(358,432,o),
(405,370,o),
(405,267,cs)
);
}
);
width = 611;
},
{
layerId = "B4AF9C66-4182-4BB3-8260-B15F342CB5AD";
shapes = (
{
closed = 1;
nodes = (
(495,0,l),
(495,729,l),
(412,729,l),
(412,458,l),
(377,511,o),
(321,539,o),
(251,539,cs),
(115,539,o),
(26,434,o),
(26,267,cs),
(26,90,o),
(113,-15,o),
(254,-15,cs),
(326,-15,o),
(376,12,o),
(421,77,c),
(421,0,l)
);
},
{
closed = 1;
nodes = (
(412,139,o),
(354,63,o),
(266,63,cs),
(174,63,o),
(113,140,o),
(113,262,cs),
(113,384,o),
(174,461,o),
(265,461,cs),
(355,461,o),
(412,381,o),
(412,260,cs)
);
}
);
width = 556;
},
{
layerId = "72302C92-9F48-4323-B731-8A9E50B35526";
shapes = (
{
closed = 1;
nodes = (
(475,0,l),
(475,729,l),
(415,729,l),
(415,453,l),
(380,505,o),
(321,535,o),
(249,535,cs),
(110,535,o),
(25,435,o),
(25,267,cs),
(25,80,o),
(113,-17,o),
(254,-17,cs),
(327,-17,o),
(379,11,o),
(428,84,c),
(428,0,l)
);
},
{
closed = 1;
nodes = (
(415,128,o),
(353,45,o),
(257,45,cs),
(156,45,o),
(90,129,o),
(90,259,cs),
(90,390,o),
(156,473,o),
(256,473,cs),
(354,473,o),
(415,386,o),
(415,257,cs)
);
}
);
width = 534;
}
);
unicode = 100;
},
{
glyphname = dollar;
layers = (
{
layerId = "68A22FE7-C8F3-439C-857C-EB17D6453AAF";
name = "#instance";
shapes = (
{
closed = 1;
nodes = (
(515,269,o),
(485,321,o),
(422,353,c),
(399,363,o),
(402,361,o),
(299,393,c),
(299,661,l),
(373,660,o),
(428,606,o),
(429,528,c),
(488,528,l),
(488,637,o),
(418,709,o),
(299,719,c),
(299,773,l),
(243,773,l),
(243,719,l),
(116,701,o),
(49,632,o),
(49,517,cs),
(49,454,o),
(74,406,o),
(122,374,cs),
(145,358,o),
(164,351,o),
(243,326,c),
(243,29,l),
(198,35,o),
(153,53,o),
(128,80,c),
(107,105,o),
(105,124,o),
(95,209,c),
(38,209,l),
(38,201,o),
(37,194,o),
(37,188,cs),
(37,55,o),
(112,-19,o),
(243,-24,c),
(243,-126,l),
(299,-126,l),
(299,-24,l),
(439,-17,o),
(515,68,o),
(515,195,cs)
);
},
{
closed = 1;
nodes = (
(243,396,l),
(155,418,o),
(113,462,o),
(113,530,cs),
(113,603,o),
(162,650,o),
(243,660,c)
);
},
{
closed = 1;
nodes = (
(454,104,o),
(401,38,o),
(299,29,c),
(299,320,l),
(420,285,o),
(454,256,o),
(454,183,cs)
);
}
);
width = 556;
},
{
layerId = "E4F5910F-7A79-4870-ADFC-893AC9D78200";
shapes = (
{
closed = 1;
nodes = (
(532,254,o),
(516,298,o),
(476,335,c),
(437,368,o),
(368,399,o),
(315,411,c),
(315,588,l),
(358,580,o),
(376,542,o),
(375,487,c),
(528,487,l),
(528,618,o),
(444,699,o),
(315,705,c),
(315,759,l),
(243,759,l),
(243,705,l),
(114,695,o),
(35,621,o),
(35,510,cs),
(35,447,o),
(56,395,o),
(101,356,cs),
(138,324,o),
(193,298,o),
(243,289,c),
(243,106,l),
(202,113,o),
(181,141,o),
(172,188,c),
(174,198,o),
(172,212,o),
(174,206,c),
(17,206,l),
(17,205,o),
(18,203,o),
(18,202,cs),
(18,87,o),
(98,-3,o),
(243,-20,c),
(243,-126,l),
(315,-126,l),
(315,-20,l),
(454,-2,o),
(532,68,o),
(532,195,cs)
);
},
{
closed = 1;
nodes = (
(243,437,l),
(198,454,o),
(180,475,o),
(180,511,cs),
(180,554,o),
(197,577,o),
(243,589,c)
);
},
{
closed = 1;
nodes = (
(374,143,o),
(355,122,o),
(315,106,c),
(315,268,l),
(348,258,o),
(374,222,o),
(374,183,cs)
);
}
);
width = 556;
},
{
layerId = "0486BCA8-F793-4B15-B8A2-0882358C0736";
shapes = (
{
closed = 1;
nodes = (
(527,258,o),
(507,304,o),
(461,340,cs),
(427,367,o),
(377,389,o),
(311,407,c),
(311,608,l),
(362,601,o),
(389,559,o),
(389,498,c),
(517,498,l),
(517,623,o),
(437,702,o),
(311,709,c),
(311,763,l),
(243,763,l),
(243,709,l),
(114,697,o),
(39,624,o),
(39,512,cs),
(39,449,o),
(61,398,o),
(106,361,cs),
(139,333,o),
(185,312,o),
(243,299,c),
(243,86,l),
(201,93,o),
(173,118,o),
(160,160,cs),
(156,174,o),
(154,189,o),
(153,207,c),
(22,207,l),
(22,204,o),
(22,201,o),
(22,198,cs),
(22,79,o),
(102,-7,o),
(243,-21,c),
(243,-126,l),
(311,-126,l),
(311,-21,l),
(450,-6,o),
(527,68,o),
(527,195,cs)
);
},
{
closed = 1;
nodes = (
(243,427,l),
(187,445,o),
(162,472,o),
(162,516,cs),
(162,567,o),
(188,597,o),
(243,608,c)
);
},
{
closed = 1;
nodes = (
(395,133,o),
(367,100,o),
(311,86,c),
(311,282,l),
(367,265,o),
(395,231,o),
(395,183,cs)
);
}
);
width = 556;
},
{
layerId = "B4AF9C66-4182-4BB3-8260-B15F342CB5AD";
shapes = (
{
closed = 1;
nodes = (
(518,266,o),
(491,316,o),
(433,349,cs),
(407,364,o),
(394,369,o),
(302,397,c),
(302,646,l),
(369,643,o),
(416,592,o),
(417,519,c),
(496,519,l),
(496,633,o),
(423,707,o),
(302,716,c),
(302,770,l),
(243,770,l),
(243,716,l),
(115,700,o),
(46,630,o),
(46,516,cs),
(46,453,o),
(70,404,o),
(117,370,cs),
(143,351,o),
(170,340,o),
(243,318,c),
(243,46,l),
(199,52,o),
(159,72,o),
(137,103,cs),
(121,125,o),
(119,143,o),
(112,208,c),
(33,208,l),
(33,202,o),
(32,196,o),
(32,191,cs),
(32,62,o),
(109,-16,o),
(243,-23,c),
(243,-126,l),
(302,-126,l),
(302,-23,l),
(442,-14,o),
(518,68,o),
(518,195,cs)
);
},
{
closed = 1;
nodes = (
(243,405,l),
(164,426,o),
(127,465,o),
(127,526,cs),
(127,592,o),
(169,635,o),
(243,645,c)
);
},
{
closed = 1;
nodes = (
(436,112,o),
(391,56,o),
(302,46,c),
(302,309,l),
(404,279,o),
(436,249,o),
(436,183,cs)
);
}
);
width = 556;
},
{
layerId = "72302C92-9F48-4323-B731-8A9E50B35526";
shapes = (
{
closed = 1;
nodes = (
(515,269,o),
(485,321,o),
(422,353,c),
(399,363,o),
(402,361,o),
(299,393,c),
(299,661,l),
(373,660,o),
(428,606,o),
(429,528,c),
(488,528,l),
(488,637,o),
(418,709,o),
(299,719,c),
(299,773,l),
(243,773,l),
(243,719,l),
(116,701,o),
(49,632,o),
(49,517,cs),
(49,454,o),
(74,406,o),
(122,374,cs),
(145,358,o),
(164,351,o),
(243,326,c),
(243,29,l),
(198,35,o),
(153,53,o),
(128,80,c),
(107,105,o),
(105,124,o),
(95,209,c),
(38,209,l),
(38,201,o),
(37,194,o),
(37,188,cs),
(37,55,o),
(112,-19,o),
(243,-24,c),
(243,-126,l),
(299,-126,l),
(299,-24,l),
(439,-17,o),
(515,68,o),
(515,195,cs)
);
},
{
closed = 1;
nodes = (
(243,396,l),
(155,418,o),
(113,462,o),
(113,530,cs),
(113,603,o),
(162,650,o),
(243,660,c)
);
},
{
closed = 1;
nodes = (
(454,104,o),
(401,38,o),
(299,29,c),
(299,320,l),
(420,285,o),
(454,256,o),
(454,183,cs)
);
}
);
width = 556;
}
);
unicode = 36;
},
{
glyphname = E;
layers = (
{
hints = (
{
horizontal = 1;
origin = (0,0);
target = (0,1);
type = Stem;
},
{
horizontal = 1;
origin = (0,3);
target = (0,6);
type = Stem;
},
{
horizontal = 1;
origin = (0,7);
target = (0,10);
type = Stem;
},
{
origin = (0,10);
target = (0,7);
type = Stem;
}
);
layerId = "68A22FE7-C8F3-439C-857C-EB17D6453AAF";
name = "#instance";
shapes = (
{
closed = 1;
nodes = (
(599,0,l),
(599,62,l),
(172,62,l),
(172,326,l),
(572,326,l),
(572,388,l),
(172,388,l),
(172,638,l),
(581,638,l),
(581,700,l),
(104,700,l),
(104,0,l)
);
}
);
width = 667;
},
{
hints = (
{
horizontal = 1;
origin = (0,0);
target = (0,1);
type = Stem;
},
{
horizontal = 1;
origin = (0,3);
target = (0,6);
type = Stem;
},
{
horizontal = 1;
origin = (0,7);
target = (0,10);
type = Stem;
},
{
origin = (0,10);
target = (0,7);
type = Stem;
}
);
layerId = "E4F5910F-7A79-4870-ADFC-893AC9D78200";
shapes = (
{
closed = 1;
nodes = (
(619,0,l),
(619,141,l),
(256,141,l),
(256,293,l),
(568,293,l),
(568,434,l),
(256,434,l),
(256,559,l),
(601,559,l),
(601,700,l),
(84,700,l),
(84,0,l)
);
}
);
width = 667;
},
{
hints = (
{
horizontal = 1;
origin = (0,0);
target = (0,1);
type = Stem;
},
{
horizontal = 1;
origin = (0,3);
target = (0,6);
type = Stem;
},
{
horizontal = 1;
origin = (0,7);
target = (0,10);
type = Stem;
},
{
origin = (0,10);
target = (0,7);
type = Stem;
}
);
layerId = "0486BCA8-F793-4B15-B8A2-0882358C0736";
shapes = (
{
closed = 1;
nodes = (
(612,0,l),
(612,120,l),
(233,120,l),
(233,301,l),
(568,301,l),
(568,421,l),
(233,421,l),
(233,580,l),
(595,580,l),
(595,700,l),
(89,700,l),
(89,0,l)
);
}
);
width = 667;
},
{
hints = (
{
horizontal = 1;
origin = (0,0);
target = (0,1);
type = Stem;
},
{
horizontal = 1;
origin = (0,3);
target = (0,6);
type = Stem;
},
{
horizontal = 1;
origin = (0,7);
target = (0,10);
type = Stem;
},
{
origin = (0,10);
target = (0,7);
type = Stem;
}
);
layerId = "B4AF9C66-4182-4BB3-8260-B15F342CB5AD";
shapes = (
{
closed = 1;
nodes = (
(601,0,l),
(601,79,l),
(189,79,l),
(189,319,l),
(570,319,l),
(570,397,l),
(189,397,l),
(189,621,l),
(584,621,l),
(584,700,l),
(99,700,l),
(99,0,l)
);
}
);
width = 667;
},
{
hints = (
{
horizontal = 1;
origin = (0,0);
target = (0,1);
type = Stem;
},
{
horizontal = 1;
origin = (0,3);
target = (0,6);
type = Stem;
},
{
horizontal = 1;
origin = (0,7);
target = (0,10);
type = Stem;
},
{
origin = (0,10);
target = (0,7);
type = Stem;
}
);
layerId = "72302C92-9F48-4323-B731-8A9E50B35526";
shapes = (
{
closed = 1;
nodes = (
(599,0,l),
(599,62,l),
(172,62,l),
(172,326,l),
(572,326,l),
(572,388,l),
(172,388,l),
(172,638,l),
(581,638,l),
(581,700,l),
(104,700,l),
(104,0,l)
);
}
);
width = 667;
}
);
unicode = 69;
},
{
glyphname = e;
layers = (
{
hints = (
{
horizontal = 1;
origin = (0,9);
target = (0,16);
type = Stem;
},
{
horizontal = 1;
origin = (0,0);
target = (1,2);
type = Stem;
},
{
horizontal = 1;
origin = (1,6);
target = (0,3);
type = Stem;
}
);
layerId = "68A22FE7-C8F3-439C-857C-EB17D6453AAF";
name = "#instance";
shapes = (
{
closed = 1;
nodes = (
(529,231,l),
(529,404,o),
(464,554,o),
(268,554,cs),
(109,554,o),
(13,450,o),
(13,266,cs),
(13,92,o),
(109,-6,o),
(265,-6,cs),
(386,-6,o),
(492,42,o),
(527,148,c),
(362,148,l),
(356,124,o),
(314,116,o),
(270,116,cs),
(215,116,o),
(185,133,o),
(179,231,c)
);
},
{
closed = 1;
nodes = (
(357,334,o),
(357,336,o),
(357,337,c),
(181,337,l),
(192,402,o),
(215,432,o),
(266,432,cs),
(314,432,o),
(346,407,o),
(357,334,c)
);
}
);
width = 556;
},
{
hints = (
{
horizontal = 1;
origin = (0,9);
target = (0,16);
type = Stem;
},
{
horizontal = 1;
origin = (0,0);
target = (1,2);
type = Stem;
},
{
horizontal = 1;
origin = (1,6);
target = (0,3);
type = Stem;
}
);
layerId = "E4F5910F-7A79-4870-ADFC-893AC9D78200";
shapes = (
{
closed = 1;
nodes = (
(529,231,l),
(529,404,o),
(464,554,o),
(268,554,cs),
(109,554,o),
(13,450,o),
(13,266,cs),
(13,92,o),
(109,-6,o),
(265,-6,cs),
(386,-6,o),
(492,42,o),
(527,148,c),
(362,148,l),
(356,124,o),
(314,116,o),
(270,116,cs),
(215,116,o),
(185,133,o),
(179,231,c)
);
},
{
closed = 1;
nodes = (
(357,334,o),
(357,336,o),
(357,337,c),
(181,337,l),
(192,402,o),
(215,432,o),
(266,432,cs),
(314,432,o),
(346,407,o),
(357,334,c)
);
}
);
width = 556;
},
{
hints = (
{
horizontal = 1;
origin = (0,9);
target = (0,16);
type = Stem;
},
{
horizontal = 1;
origin = (0,0);
target = (1,2);
type = Stem;
},
{
horizontal = 1;
origin = (1,6);
target = (0,3);
type = Stem;
}
);
layerId = "0486BCA8-F793-4B15-B8A2-0882358C0736";
shapes = (
{
closed = 1;
nodes = (
(524,233,l),
(524,400,o),
(465,549,o),
(272,549,cs),
(117,549,o),
(22,444,o),
(22,263,cs),
(22,90,o),
(116,-9,o),
(269,-9,cs),
(390,-9,o),
(488,46,o),
(519,152,c),
(381,152,l),
(369,113,o),
(325,98,o),
(274,98,cs),
(208,98,o),
(166,128,o),
(162,233,c)
);
},
{
closed = 1;
nodes = (
(379,326,o),
(379,326,o),
(379,326,c),
(164,326,l),
(173,401,o),
(208,442,o),
(270,442,cs),
(330,442,o),
(372,403,o),
(379,326,c)
);
}
);
width = 556;
},
{
hints = (
{
horizontal = 1;
origin = (0,9);
target = (0,16);
type = Stem;
},
{
horizontal = 1;
origin = (0,0);
target = (1,2);
type = Stem;
},
{
horizontal = 1;
origin = (1,6);
target = (0,3);
type = Stem;
}
);
layerId = "B4AF9C66-4182-4BB3-8260-B15F342CB5AD";
shapes = (
{
closed = 1;
nodes = (
(513,238,l),
(513,391,o),
(468,539,o),
(280,539,cs),
(134,539,o),
(40,431,o),
(40,259,cs),
(40,87,o),
(131,-15,o),
(278,-15,cs),
(398,-15,o),
(481,53,o),
(502,159,c),
(418,159,l),
(395,90,o),
(348,62,o),
(281,62,cs),
(194,62,o),
(129,118,o),
(127,238,c)
);
},
{
closed = 1;
nodes = (
(424,312,o),
(424,308,o),
(423,306,c),
(129,306,l),
(136,399,o),
(195,462,o),
(279,462,cs),
(361,462,o),
(424,394,o),
(424,312,c)
);
}
);
width = 556;
},
{
hints = (
{
horizontal = 1;
origin = (0,9);
target = (0,16);
type = Stem;
},
{
horizontal = 1;
origin = (0,0);
target = (1,2);
type = Stem;
},
{
horizontal = 1;
origin = (1,6);
target = (0,3);
type = Stem;
}
);
layerId = "72302C92-9F48-4323-B731-8A9E50B35526";
shapes = (
{
closed = 1;
nodes = (
(509,240,l),
(519,391,o),
(475,535,o),
(283,535,cs),
(141,535,o),
(47,426,o),
(47,258,cs),
(47,87,o),
(138,-17,o),
(282,-17,cs),
(401,-17,o),
(479,57,o),
(495,162,c),
(434,162,l),
(406,82,o),
(358,48,o),
(284,48,cs),
(188,48,o),
(114,114,o),
(113,240,c)
);
},
{
closed = 1;
nodes = (
(443,306,o),
(443,301,o),
(441,298,c),
(115,298,l),
(121,398,o),
(190,470,o),
(283,470,cs),
(374,470,o),
(446,390,o),
(443,306,c)
);
}
);
width = 556;
}
);
unicode = 101;
},
{
glyphname = eight;
layers = (
{
layerId = "68A22FE7-C8F3-439C-857C-EB17D6453AAF";
name = "#instance";
shapes = (
{
closed = 1;
nodes = (
(512,278,o),
(468,338,o),
(385,376,c),
(464,425,o),
(486,459,o),
(486,525,cs),
(486,638,o),
(401,717,o),
(276,717,cs),
(152,717,o),
(65,638,o),
(65,526,cs),
(65,460,o),
(87,426,o),
(165,376,c),
(82,338,o),
(39,278,o),
(39,202,cs),
(39,71,o),
(136,-16,o),
(276,-16,cs),
(415,-16,o),
(512,71,o),
(512,201,cs)
);
},
{
closed = 1;
nodes = (
(408,456,o),
(356,410,o),
(275,410,cs),
(195,410,o),
(142,456,o),
(142,529,cs),
(142,605,o),
(195,651,o),
(275,651,cs),
(357,651,o),
(409,605,o),
(408,528,c)
);
},
{
closed = 1;
nodes = (
(441,104,o),
(374,45,o),
(273,45,cs),
(178,45,o),
(110,106,o),
(110,195,cs),
(110,285,o),
(178,343,o),
(276,343,cs),
(374,343,o),
(441,285,o),
(441,196,cs)
);
}
);
width = 556;
},
{
layerId = "E4F5910F-7A79-4870-ADFC-893AC9D78200";
shapes = (
{
closed = 1;
nodes = (
(523,292,o),
(492,333,o),
(413,378,c),
(470,406,o),
(500,450,o),
(500,518,cs),
(500,626,o),
(403,706,o),
(274,706,cs),
(143,706,o),
(47,626,o),
(47,517,cs),
(47,451,o),
(75,406,o),
(133,378,c),
(54,333,o),
(24,292,o),
(24,208,cs),
(24,78,o),
(125,-6,o),
(274,-6,cs),
(421,-6,o),
(523,78,o),
(523,208,cs)
);
},
{
closed = 1;
nodes = (
(368,453,o),
(328,418,o),
(275,418,cs),
(221,418,o),
(181,453,o),
(181,500,cs),
(181,546,o),
(220,580,o),
(275,580,cs),
(330,580,o),
(366,546,o),
(368,499,c)
);
},
{
closed = 1;
nodes = (
(364,160,o),
(328,130,o),
(273,130,cs),
(216,130,o),
(183,159,o),
(183,221,cs),
(183,285,o),
(217,316,o),
(272,316,cs),
(330,316,o),
(364,285,o),
(364,218,cs)
);
}
);
width = 556;
},
{
layerId = "0486BCA8-F793-4B15-B8A2-0882358C0736";
shapes = (
{
closed = 1;
nodes = (
(520,289,o),
(486,335,o),
(407,379,c),
(468,411,o),
(496,453,o),
(496,521,cs),
(496,629,o),
(403,709,o),
(274,709,cs),
(144,709,o),
(51,629,o),
(51,520,cs),
(51,453,o),
(78,411,o),
(140,379,c),
(61,335,o),
(27,289,o),
(27,207,cs),
(27,76,o),
(128,-9,o),
(274,-9,cs),
(419,-9,o),
(520,76,o),
(520,207,cs)
);
},
{
closed = 1;
nodes = (
(378,454,o),
(335,416,o),
(275,416,cs),
(214,416,o),
(171,454,o),
(171,508,cs),
(171,561,o),
(214,599,o),
(275,599,cs),
(336,599,o),
(377,561,o),
(378,507,cs)
);
},
{
closed = 1;
nodes = (
(383,146,o),
(339,109,o),
(273,109,cs),
(207,109,o),
(165,146,o),
(165,214,cs),
(165,285,o),
(208,323,o),
(273,323,cs),
(340,323,o),
(383,285,o),
(383,212,cs)
);
}
);
width = 556;
},
{
layerId = "B4AF9C66-4182-4BB3-8260-B15F342CB5AD";
shapes = (
{
closed = 1;
nodes = (
(514,281,o),
(474,337,o),
(391,376,c),
(465,420,o),
(489,456,o),
(489,523,cs),
(489,635,o),
(402,714,o),
(275,714,cs),
(149,714,o),
(61,635,o),
(61,523,cs),
(61,457,o),
(85,421,o),
(158,376,c),
(76,337,o),
(36,281,o),
(36,203,cs),
(36,72,o),
(135,-14,o),
(275,-14,cs),
(415,-14,o),
(514,72,o),
(514,202,cs)
);
},
{
closed = 1;
nodes = (
(399,455,o),
(349,411,o),
(275,411,cs),
(201,411,o),
(151,455,o),
(151,522,cs),
(151,591,o),
(201,635,o),
(275,635,cs),
(350,635,o),
(399,591,o),
(399,521,cs)
);
},
{
closed = 1;
nodes = (
(424,116,o),
(363,64,o),
(273,64,cs),
(187,64,o),
(126,117,o),
(126,201,cs),
(126,285,o),
(187,337,o),
(275,337,cs),
(363,337,o),
(424,285,o),
(424,201,cs)
);
}
);
width = 556;
},
{
layerId = "72302C92-9F48-4323-B731-8A9E50B35526";
shapes = (
{
closed = 1;
nodes = (
(512,278,o),
(468,338,o),
(385,376,c),
(464,425,o),
(486,459,o),
(486,525,cs),
(486,638,o),
(401,717,o),
(276,717,cs),
(152,717,o),
(65,638,o),
(65,526,cs),
(65,460,o),
(87,426,o),
(165,376,c),
(82,338,o),
(39,278,o),
(39,202,cs),
(39,71,o),
(136,-16,o),
(276,-16,cs),
(415,-16,o),
(512,71,o),
(512,201,cs)
);
},
{
closed = 1;
nodes = (
(408,456,o),
(356,410,o),
(275,410,cs),
(195,410,o),
(142,456,o),
(142,529,cs),
(142,605,o),
(195,651,o),
(275,651,cs),
(357,651,o),
(409,605,o),
(408,528,cs)
);
},
{
closed = 1;
nodes = (
(441,104,o),
(374,45,o),
(273,45,cs),
(178,45,o),
(110,106,o),
(110,195,cs),
(110,285,o),
(178,343,o),
(276,343,cs),
(374,343,o),
(441,285,o),
(441,196,cs)
);
}
);
width = 556;
}
);
unicode = 56;
},
{
glyphname = equal;
layers = (
{
layerId = "68A22FE7-C8F3-439C-857C-EB17D6453AAF";
name = "#instance";
shapes = (
{
closed = 1;
nodes = (
(513,314,l),
(513,369,l),
(71,369,l),
(71,314,l)
);
},
{
closed = 1;
nodes = (
(513,132,l),
(513,187,l),
(71,187,l),
(71,132,l)
);
}
);
width = 584;
},
{
layerId = "E4F5910F-7A79-4870-ADFC-893AC9D78200";
shapes = (
{
closed = 1;
nodes = (
(528,283,l),
(528,399,l),
(56,399,l),
(56,283,l)
);
},
{
closed = 1;
nodes = (
(528,101,l),
(528,217,l),
(56,217,l),
(56,101,l)
);
}
);
width = 584;
},
{
layerId = "0486BCA8-F793-4B15-B8A2-0882358C0736";
shapes = (
{
closed = 1;
nodes = (
(524,291,l),
(524,391,l),
(60,391,l),
(60,291,l)
);
},
{
closed = 1;
nodes = (
(524,109,l),
(524,209,l),
(60,209,l),
(60,109,l)
);
}
);
width = 584;
},
{
layerId = "B4AF9C66-4182-4BB3-8260-B15F342CB5AD";
shapes = (
{
closed = 1;
nodes = (
(516,307,l),
(516,375,l),
(68,375,l),
(68,307,l)
);
},
{
closed = 1;
nodes = (
(516,125,l),
(516,193,l),
(68,193,l),
(68,125,l)
);
}
);
width = 584;
},
{
layerId = "72302C92-9F48-4323-B731-8A9E50B35526";
shapes = (
{
closed = 1;
nodes = (
(513,314,l),
(513,369,l),
(71,369,l),
(71,314,l)
);
},
{
closed = 1;
nodes = (
(513,132,l),
(513,187,l),
(71,187,l),
(71,132,l)
);
}
);
width = 584;
}
);
unicode = 61;
},
{
glyphname = exclam;
layers = (
{
layerId = "68A22FE7-C8F3-439C-857C-EB17D6453AAF";
name = "#instance";
shapes = (
{
closed = 1;
nodes = (
(156,340,l),
(156,731,l),
(100,731,l),
(100,340,l),
(115,153,l),
(142,153,l)
);
},
{
closed = 1;
nodes = (
(156,0,l),
(156,87,l),
(99,87,l),
(99,0,l)
);
}
);
width = 256;
},
{
layerId = "E4F5910F-7A79-4870-ADFC-893AC9D78200";
shapes = (
{
closed = 1;
nodes = (
(273,578,l),
(273,725,l),
(89,725,l),
(89,578,l),
(140,227,l),
(221,227,l)
);
},
{
closed = 1;
nodes = (
(273,0,l),
(273,167,l),
(90,167,l),
(90,0,l)
);
}
);
width = 361;
},
{
layerId = "0486BCA8-F793-4B15-B8A2-0882358C0736";
shapes = (
{
closed = 1;
nodes = (
(242,516,l),
(242,726,l),
(92,726,l),
(92,516,l),
(133,207,l),
(200,207,l)
);
},
{
closed = 1;
nodes = (
(242,0,l),
(242,146,l),
(92,146,l),
(92,0,l)
);
}
);
width = 333;
},
{
layerId = "B4AF9C66-4182-4BB3-8260-B15F342CB5AD";
shapes = (
{
closed = 1;
nodes = (
(181,391,l),
(181,729,l),
(98,729,l),
(98,391,l),
(120,168,l),
(159,168,l)
);
},
{
closed = 1;
nodes = (
(181,0,l),
(181,104,l),
(97,104,l),
(97,0,l)
);
}
);
width = 278;
},
{
layerId = "72302C92-9F48-4323-B731-8A9E50B35526";
shapes = (
{
closed = 1;
nodes = (
(156,340,l),
(156,731,l),
(100,731,l),
(100,340,l),
(115,153,l),
(142,153,l)
);
},
{
closed = 1;
nodes = (
(156,0,l),
(156,87,l),
(99,87,l),
(99,0,l)
);
}
);
width = 256;
}
);
unicode = 33;
},
{
glyphname = F;
layers = (
{
layerId = "68A22FE7-C8F3-439C-857C-EB17D6453AAF";
name = "#instance";
shapes = (
{
closed = 1;
nodes = (
(566,638,l),
(566,700,l),
(105,700,l),
(105,0,l),
(172,0,l),
(172,326,l),
(518,326,l),
(518,388,l),
(172,388,l),
(172,638,l)
);
}
);
width = 611;
},
{
layerId = "E4F5910F-7A79-4870-ADFC-893AC9D78200";
shapes = (
{
closed = 1;
nodes = (
(578,559,l),
(578,700,l),
(75,700,l),
(75,0,l),
(247,0,l),
(247,293,l),
(540,293,l),
(540,434,l),
(247,434,l),
(247,559,l)
);
}
);
width = 611;
},
{
layerId = "0486BCA8-F793-4B15-B8A2-0882358C0736";
shapes = (
{
closed = 1;
nodes = (
(575,580,l),
(575,700,l),
(83,700,l),
(83,0,l),
(227,0,l),
(227,301,l),
(533,301,l),
(533,421,l),
(227,421,l),
(227,580,l)
);
}
);
width = 611;
},
{
layerId = "B4AF9C66-4182-4BB3-8260-B15F342CB5AD";
shapes = (
{
closed = 1;
nodes = (
(568,621,l),
(568,700,l),
(98,700,l),
(98,0,l),
(188,0,l),
(188,319,l),
(522,319,l),
(522,397,l),
(188,397,l),
(188,621,l)
);
}
);
width = 611;
},
{
layerId = "72302C92-9F48-4323-B731-8A9E50B35526";
shapes = (
{
closed = 1;
nodes = (
(566,638,l),
(566,700,l),
(105,700,l),
(105,0,l),
(172,0,l),
(172,326,l),
(518,326,l),
(518,388,l),
(172,388,l),
(172,638,l)
);
}
);
width = 611;
}
);
unicode = 70;
},
{
glyphname = f;
layers = (
{
layerId = "68A22FE7-C8F3-439C-857C-EB17D6453AAF";
name = "#instance";
shapes = (
{
closed = 1;
nodes = (
(340,426,l),
(340,532,l),
(259,532,l),
(259,571,ls),
(259,595,o),
(267,607,o),
(287,607,cs),
(302,607,o),
(324,605,o),
(333,603,c),
(333,726,l),
(303,727,o),
(256,728,o),
(236,728,cs),
(135,728,o),
(91,684,o),
(91,585,cs),
(91,532,l),
(12,532,l),
(12,426,l),
(91,426,l),
(91,0,l),
(259,0,l),
(259,426,l)
);
}
);
width = 361;
},
{
layerId = "E4F5910F-7A79-4870-ADFC-893AC9D78200";
shapes = (
{
closed = 1;
nodes = (
(340,426,l),
(340,532,l),
(259,532,l),
(259,571,ls),
(259,595,o),
(267,607,o),
(287,607,cs),
(302,607,o),
(324,605,o),
(333,603,c),
(333,726,l),
(303,727,o),
(256,728,o),
(236,728,cs),
(135,728,o),
(91,684,o),
(91,585,cs),
(91,532,l),
(12,532,l),
(12,426,l),
(91,426,l),
(91,0,l),
(259,0,l),
(259,426,l)
);
}
);
width = 361;
},
{
layerId = "0486BCA8-F793-4B15-B8A2-0882358C0736";
shapes = (
{
closed = 1;
nodes = (
(313,436,l),
(313,529,l),
(230,529,l),
(230,582,ls),
(230,610,o),
(242,624,o),
(268,624,cs),
(280,624,o),
(296,623,o),
(308,621,c),
(308,726,l),
(282,728,o),
(247,729,o),
(228,729,cs),
(135,729,o),
(90,685,o),
(90,594,cs),
(90,529,l),
(14,529,l),
(14,436,l),
(90,436,l),
(90,0,l),
(230,0,l),
(230,436,l)
);
}
);
width = 333;
},
{
layerId = "B4AF9C66-4182-4BB3-8260-B15F342CB5AD";
shapes = (
{
closed = 1;
nodes = (
(258,456,l),
(258,524,l),
(171,524,l),
(171,606,ls),
(171,641,o),
(191,659,o),
(229,659,cs),
(236,659,o),
(239,659,o),
(258,658,c),
(258,727,l),
(239,731,o),
(228,732,o),
(211,732,cs),
(134,732,o),
(88,688,o),
(88,613,cs),
(88,524,l),
(18,524,l),
(18,456,l),
(88,456,l),
(88,0,l),
(171,0,l),
(171,456,l)
);
}
);
width = 278;
},
{
layerId = "72302C92-9F48-4323-B731-8A9E50B35526";
shapes = (
{
closed = 1;
nodes = (
(236,464,l),
(236,522,l),
(147,522,l),
(147,617,ls),
(147,654,o),
(170,674,o),
(213,674,cs),
(219,674,o),
(216,675,o),
(238,674,c),
(238,728,l),
(222,733,o),
(221,734,o),
(204,734,cs),
(134,734,o),
(87,690,o),
(87,621,cs),
(87,522,l),
(19,522,l),
(19,464,l),
(87,464,l),
(87,0,l),
(147,0,l),
(147,464,l)
);
}
);
width = 256;
}
);
unicode = 102;
},
{
glyphname = five;
layers = (
{
layerId = "68A22FE7-C8F3-439C-857C-EB17D6453AAF";
name = "#instance";
shapes = (
{
closed = 1;
nodes = (
(515,377,o),
(420,471,o),
(279,471,cs),
(228,471,o),
(185,456,o),
(142,427,c),
(173,627,l),
(474,627,l),
(474,700,l),
(108,700,l),
(59,333,l),
(121,333,l),
(174,389,o),
(210,405,o),
(271,405,cs),
(377,405,o),
(445,336,o),
(445,221,cs),
(445,110,o),
(379,44,o),
(271,44,cs),
(186,44,o),
(134,88,o),
(103,179,c),
(35,179,l),
(77,28,o),
(151,-17,o),
(274,-17,cs),
(415,-17,o),
(515,87,o),
(515,237,cs)
);
}
);
width = 556;
},
{
layerId = "E4F5910F-7A79-4870-ADFC-893AC9D78200";
shapes = (
{
closed = 1;
nodes = (
(512,382,o),
(426,475,o),
(301,475,cs),
(257,475,o),
(225,464,o),
(186,432,c),
(206,560,l),
(489,560,l),
(489,700,l),
(115,700,l),
(48,303,l),
(192,303,l),
(195,331,o),
(225,350,o),
(262,350,cs),
(318,350,o),
(352,315,o),
(352,240,cs),
(352,169,o),
(317,132,o),
(262,132,cs),
(209,132,o),
(178,158,o),
(188,203,c),
(30,203,l),
(16,90,o),
(117,-6,o),
(258,-6,cs),
(409,-6,o),
(512,87,o),
(512,238,cs)
);
}
);
width = 556;
},
{
layerId = "0486BCA8-F793-4B15-B8A2-0882358C0736";
shapes = (
{
closed = 1;
nodes = (
(513,381,o),
(425,473,o),
(296,473,cs),
(249,473,o),
(214,461,o),
(174,431,c),
(197,577,l),
(486,577,l),
(486,700,l),
(113,700,l),
(50,310,l),
(174,310,l),
(189,344,o),
(221,363,o),
(263,363,cs),
(334,363,o),
(376,320,o),
(376,235,cs),
(376,153,o),
(333,110,o),
(263,110,cs),
(203,110,o),
(166,140,o),
(166,197,c),
(31,197,l),
(31,74,o),
(125,-9,o),
(262,-9,cs),
(411,-9,o),
(513,87,o),
(513,238,cs)
);
}
);
width = 556;
},
{
layerId = "B4AF9C66-4182-4BB3-8260-B15F342CB5AD";
shapes = (
{
closed = 1;
nodes = (
(515,378,o),
(421,471,o),
(284,471,cs),
(234,471,o),
(193,458,o),
(152,428,c),
(180,613,l),
(478,613,l),
(478,700,l),
(109,700,l),
(55,326,l),
(136,326,l),
(178,375,o),
(212,392,o),
(268,392,cs),
(363,392,o),
(424,331,o),
(424,225,cs),
(424,122,o),
(364,63,o),
(268,63,cs),
(190,63,o),
(143,103,o),
(122,184,c),
(33,184,l),
(62,41,o),
(143,-15,o),
(270,-15,cs),
(414,-15,o),
(515,86,o),
(515,238,cs)
);
}
);
width = 556;
},
{
layerId = "72302C92-9F48-4323-B731-8A9E50B35526";
shapes = (
{
closed = 1;
nodes = (
(515,377,o),
(420,471,o),
(279,471,cs),
(228,471,o),
(185,456,o),
(142,427,c),
(173,627,l),
(474,627,l),
(474,700,l),
(108,700,l),
(59,333,l),
(121,333,l),
(174,389,o),
(210,405,o),
(271,405,cs),
(377,405,o),
(445,336,o),
(445,221,cs),
(445,110,o),
(379,44,o),
(271,44,cs),
(186,44,o),
(134,88,o),
(103,179,c),
(35,179,l),
(77,28,o),
(151,-17,o),
(274,-17,cs),
(415,-17,o),
(515,87,o),
(515,237,cs)
);
}
);
width = 556;
}
);
unicode = 53;
},
{
glyphname = four;
layers = (
{
layerId = "68A22FE7-C8F3-439C-857C-EB17D6453AAF";
name = "#instance";
shapes = (
{
closed = 1;
nodes = (
(516,174,l),
(516,236,l),
(400,236,l),
(400,700,l),
(356,700,l),
(33,231,l),
(33,174,l),
(334,174,l),
(334,0,l),
(400,0,l),
(400,174,l)
);
},
{
closed = 1;
nodes = (
(334,236,l),
(100,236,l),
(334,578,l)
);
}
);
width = 556;
},
{
layerId = "E4F5910F-7A79-4870-ADFC-893AC9D78200";
shapes = (
{
closed = 1;
nodes = (
(519,148,l),
(519,281,l),
(461,281,l),
(461,700,l),
(249,700,l),
(25,278,l),
(25,148,l),
(298,148,l),
(298,0,l),
(461,0,l),
(461,148,l)
);
},
{
closed = 1;
nodes = (
(298,281,l),
(134,281,l),
(298,577,l)
);
}
);
width = 556;
},
{
layerId = "0486BCA8-F793-4B15-B8A2-0882358C0736";
shapes = (
{
closed = 1;
nodes = (
(518,155,l),
(518,269,l),
(445,269,l),
(445,700,l),
(283,700,l),
(27,271,l),
(27,155,l),
(308,155,l),
(308,0,l),
(445,0,l),
(445,155,l)
);
},
{
closed = 1;
nodes = (
(308,269,l),
(125,269,l),
(308,568,l)
);
}
);
width = 556;
},
{
layerId = "B4AF9C66-4182-4BB3-8260-B15F342CB5AD";
shapes = (
{
closed = 1;
nodes = (
(516,168,l),
(516,246,l),
(412,246,l),
(412,700,l),
(349,700,l),
(31,259,l),
(31,168,l),
(326,168,l),
(326,0,l),
(412,0,l),
(412,168,l)
);
},
{
closed = 1;
nodes = (
(326,246,l),
(107,246,l),
(326,552,l)
);
}
);
width = 556;
},
{
layerId = "72302C92-9F48-4323-B731-8A9E50B35526";
shapes = (
{
closed = 1;
nodes = (
(516,174,l),
(516,236,l),
(400,236,l),
(400,700,l),
(356,700,l),
(33,231,l),
(33,174,l),
(334,174,l),
(334,0,l),
(400,0,l),
(400,174,l)
);
},
{
closed = 1;
nodes = (
(334,236,l),
(100,236,l),
(334,578,l)
);
}
);
width = 556;
}
);
unicode = 52;
},
{
glyphname = G;
layers = (
{
hints = (
{
horizontal = 1;
origin = (0,26);
target = (0,7);
type = Stem;
},
{
horizontal = 1;
origin = (0,3);
target = (0,2);
type = Stem;
},
{
horizontal = 1;
origin = (0,13);
target = (0,20);
type = Stem;
},
{
origin = (0,23);
target = (0,10);
type = Stem;
}
);
layerId = "68A22FE7-C8F3-439C-857C-EB17D6453AAF";
name = "#instance";
shapes = (
{
closed = 1;
nodes = (
(698,1,l),
(698,367,l),
(401,367,l),
(401,305,l),
(636,305,l),
(639,151,o),
(563,41,o),
(399,41,cs),
(223,41,o),
(127,164,o),
(127,346,cs),
(127,526,o),
(235,659,o),
(393,659,cs),
(511,659,o),
(595,586,o),
(611,492,c),
(683,492,l),
(655,634,o),
(552,720,o),
(395,720,cs),
(176,720,o),
(59,545,o),
(59,339,cs),
(59,124,o),
(189,-19,o),
(378,-19,cs),
(474,-19,o),
(555,14,o),
(628,91,c),
(652,1,l)
);
}
);
width = 778;
},
{
hints = (
{
horizontal = 1;
origin = (0,26);
target = (0,7);
type = Stem;
},
{
horizontal = 1;
origin = (0,3);
target = (0,2);
type = Stem;
},
{
horizontal = 1;
origin = (0,13);
target = (0,20);
type = Stem;
},
{
origin = (0,23);
target = (0,10);
type = Stem;
}
);
layerId = "E4F5910F-7A79-4870-ADFC-893AC9D78200";
shapes = (
{
closed = 1;
nodes = (
(700,0,l),
(700,380,l),
(426,380,l),
(426,239,l),
(558,239,l),
(545,176,o),
(457,136,o),
(402,136,cs),
(307,136,o),
(227,224,o),
(227,355,cs),
(227,495,o),
(288,563,o),
(398,563,cs),
(463,563,o),
(515,547,o),
(548,470,c),
(704,470,l),
(692,614,o),
(569,708,o),
(396,708,cs),
(201,708,o),
(55,576,o),
(55,355,cs),
(55,144,o),
(197,-9,o),
(387,-9,cs),
(480,-9,o),
(537,25,o),
(584,98,c),
(599,0,l)
);
}
);
width = 778;
},
{
hints = (
{
horizontal = 1;
origin = (0,26);
target = (0,7);
type = Stem;
},
{
horizontal = 1;
origin = (0,3);
target = (0,2);
type = Stem;
},
{
horizontal = 1;
origin = (0,13);
target = (0,20);
type = Stem;
},
{
origin = (0,23);
target = (0,10);
type = Stem;
}
);
layerId = "0486BCA8-F793-4B15-B8A2-0882358C0736";
shapes = (
{
closed = 1;
nodes = (
(699,0,l),
(699,376,l),
(418,376,l),
(418,256,l),
(578,256,l),
(569,169,o),
(484,111,o),
(400,111,cs),
(284,111,o),
(200,208,o),
(200,352,cs),
(200,503,o),
(274,588,o),
(396,588,cs),
(475,588,o),
(535,558,o),
(563,476,c),
(699,476,l),
(681,620,o),
(564,711,o),
(395,711,cs),
(194,711,o),
(56,568,o),
(56,350,cs),
(56,138,o),
(195,-12,o),
(384,-12,cs),
(478,-12,o),
(541,22,o),
(595,96,c),
(612,0,l)
);
}
);
width = 778;
},
{
hints = (
{
horizontal = 1;
origin = (0,26);
target = (0,7);
type = Stem;
},
{
horizontal = 1;
origin = (0,3);
target = (0,2);
type = Stem;
},
{
horizontal = 1;
origin = (0,13);
target = (0,20);
type = Stem;
},
{
origin = (0,23);
target = (0,10);
type = Stem;
}
);
layerId = "B4AF9C66-4182-4BB3-8260-B15F342CB5AD";
shapes = (
{
closed = 1;
nodes = (
(697,0,l),
(697,370,l),
(405,370,l),
(405,291,l),
(618,291,l),
(618,156,o),
(539,61,o),
(398,61,cs),
(240,61,o),
(148,177,o),
(148,348,cs),
(148,519,o),
(245,638,o),
(393,638,cs),
(500,638,o),
(577,578,o),
(596,488,c),
(687,488,l),
(662,630,o),
(555,717,o),
(394,717,cs),
(180,717,o),
(58,552,o),
(58,343,cs),
(58,128,o),
(190,-17,o),
(379,-17,cs),
(474,-17,o),
(550,16,o),
(618,92,c),
(640,0,l)
);
}
);
width = 778;
},
{
hints = (
{
horizontal = 1;
origin = (0,26);
target = (0,7);
type = Stem;
},
{
horizontal = 1;
origin = (0,3);
target = (0,2);
type = Stem;
},
{
horizontal = 1;
origin = (0,13);
target = (0,20);
type = Stem;
},
{
origin = (0,23);
target = (0,10);
type = Stem;
}
);
layerId = "72302C92-9F48-4323-B731-8A9E50B35526";
shapes = (
{
closed = 1;
nodes = (
(698,1,l),
(698,367,l),
(401,367,l),
(401,305,l),
(636,305,l),
(639,151,o),
(563,41,o),
(399,41,cs),
(223,41,o),
(127,164,o),
(127,346,cs),
(127,526,o),
(235,659,o),
(393,659,cs),
(511,659,o),
(595,586,o),
(611,492,c),
(683,492,l),
(655,634,o),
(552,720,o),
(395,720,cs),
(176,720,o),
(59,545,o),
(59,339,cs),
(59,124,o),
(189,-19,o),
(378,-19,cs),
(474,-19,o),
(555,14,o),
(628,91,c),
(652,1,l)
);
}
);
width = 778;
}
);
unicode = 71;
},
{
glyphname = g;
layers = (
{
hints = (
{
horizontal = 1;
origin = (0,25);
target = (0,18);
type = Stem;
},
{
horizontal = 1;
origin = (0,11);
target = (1,2);
type = Stem;
},
{
horizontal = 1;
origin = (1,8);
target = (0,5);
type = Stem;
},
{
horizontal = 1;
place = (594,118);
type = Stem;
},
{
horizontal = 1;
place = (852,-20);
target = down;
type = TopGhost;
},
{
origin = (0,8);
target = (1,5);
type = Stem;
},
{
place = (254,133);
type = Stem;
},
{
origin = (0,1);
target = (0,0);
type = Stem;
}
);
layerId = "E4F5910F-7A79-4870-ADFC-893AC9D78200";
shapes = (
{
closed = 1;
nodes = (
(567,548,l),
(406,548,l),
(406,461,l),
(363,527,o),
(320,554,o),
(261,554,cs),
(135,554,o),
(36,433,o),
(36,268,cs),
(36,98,o),
(122,-6,o),
(259,-6,cs),
(321,-6,o),
(355,9,o),
(406,54,c),
(406,-18,ls),
(406,-80,o),
(367,-118,o),
(304,-118,cs),
(257,-118,o),
(231,-97,o),
(219,-68,c),
(44,-68,l),
(42,-150,o),
(137,-218,o),
(298,-218,cs),
(482,-218,o),
(567,-155,o),
(567,-18,cs)
);
},
{
closed = 1;
nodes = (
(413,185,o),
(363,131,o),
(298,131,cs),
(244,131,o),
(202,184,o),
(202,268,cs),
(202,358,o),
(244,417,o),
(301,417,cs),
(361,417,o),
(413,356,o),
(413,270,cs)
);
}
);
width = 639;
},
{
hints = (
{
horizontal = 1;
origin = (0,25);
target = (0,18);
type = Stem;
},
{
horizontal = 1;
origin = (0,11);
target = (1,2);
type = Stem;
},
{
horizontal = 1;
origin = (1,8);
target = (0,5);
type = Stem;
},
{
horizontal = 1;
place = (589,112);
type = Stem;
},
{
horizontal = 1;
place = (836,-20);
target = down;
type = TopGhost;
},
{
origin = (0,8);
target = (1,5);
type = Stem;
},
{
place = (246,122);
type = Stem;
},
{
origin = (0,1);
target = (0,0);
type = Stem;
}
);
layerId = "0486BCA8-F793-4B15-B8A2-0882358C0736";
shapes = (
{
closed = 1;
nodes = (
(541,540,l),
(408,540,l),
(408,457,l),
(366,521,o),
(320,549,o),
(258,549,cs),
(130,549,o),
(34,431,o),
(34,264,cs),
(34,96,o),
(122,-9,o),
(255,-9,cs),
(318,-9,o),
(356,10,o),
(408,62,c),
(408,-18,ls),
(408,-83,o),
(359,-128,o),
(289,-128,cs),
(236,-128,o),
(201,-106,o),
(190,-65,c),
(45,-65,l),
(47,-153,o),
(136,-218,o),
(284,-218,cs),
(447,-218,o),
(541,-145,o),
(541,-18,c)
);
},
{
closed = 1;
nodes = (
(410,168,o),
(359,108,o),
(286,108,cs),
(220,108,o),
(174,168,o),
(174,266,cs),
(174,368,o),
(220,432,o),
(288,432,cs),
(358,432,o),
(410,366,o),
(410,266,cs)
);
}
);
width = 611;
},
{
hints = (
{
horizontal = 1;
origin = (0,25);
target = (0,18);
type = Stem;
},
{
horizontal = 1;
origin = (0,11);
target = (1,2);
type = Stem;
},
{
horizontal = 1;
origin = (1,8);
target = (0,5);
type = Stem;
},
{
horizontal = 1;
place = (579,100);
type = Stem;
},
{
horizontal = 1;
place = (803,-20);
target = down;
type = TopGhost;
},
{
origin = (0,8);
target = (1,5);
type = Stem;
},
{
place = (229,100);
type = Stem;
},
{
origin = (0,1);
target = (0,0);
type = Stem;
}
);
layerId = "B4AF9C66-4182-4BB3-8260-B15F342CB5AD";
shapes = (
{
closed = 1;
nodes = (
(489,524,l),
(412,524,l),
(412,448,l),
(370,510,o),
(319,539,o),
(252,539,cs),
(119,539,o),
(29,427,o),
(29,257,cs),
(29,92,o),
(122,-15,o),
(245,-15,cs),
(311,-15,o),
(357,13,o),
(412,79,c),
(412,44,ls),
(412,-95,o),
(355,-148,o),
(258,-148,cs),
(192,-148,o),
(141,-124,o),
(131,-60,c),
(46,-60,l),
(55,-159,o),
(132,-218,o),
(255,-218,cs),
(419,-218,o),
(489,-145,o),
(489,86,c)
);
},
{
closed = 1;
nodes = (
(404,134,o),
(350,62,o),
(262,62,cs),
(171,62,o),
(116,135,o),
(116,262,cs),
(116,388,o),
(172,462,o),
(261,462,cs),
(351,462,o),
(404,386,o),
(404,259,cs)
);
}
);
width = 556;
},
{
hints = (
{
horizontal = 1;
origin = (0,25);
target = (0,18);
type = Stem;
},
{
horizontal = 1;
origin = (0,11);
target = (1,2);
type = Stem;
},
{
horizontal = 1;
origin = (1,8);
target = (0,5);
type = Stem;
},
{
horizontal = 1;
place = (575,95);
type = Stem;
},
{
horizontal = 1;
place = (790,-20);
target = down;
type = TopGhost;
},
{
origin = (0,8);
target = (1,5);
type = Stem;
},
{
place = (222,91);
type = Stem;
},
{
origin = (0,1);
target = (0,0);
type = Stem;
}
);
layerId = "72302C92-9F48-4323-B731-8A9E50B35526";
shapes = (
{
closed = 1;
nodes = (
(468,517,l),
(414,517,l),
(414,424,l),
(386,496,o),
(329,534,o),
(250,534,cs),
(114,534,o),
(27,425,o),
(27,254,cs),
(27,90,o),
(122,-17,o),
(241,-17,cs),
(325,-17,o),
(387,24,o),
(414,96,c),
(414,70,ls),
(414,-100,o),
(353,-156,o),
(245,-156,cs),
(174,-156,o),
(116,-131,o),
(106,-58,c),
(46,-58,l),
(59,-161,o),
(130,-218,o),
(243,-218,cs),
(408,-218,o),
(468,-145,o),
(468,129,cs)
);
},
{
closed = 1;
nodes = (
(402,120,o),
(347,43,o),
(253,43,cs),
(151,43,o),
(92,122,o),
(92,260,cs),
(92,396,o),
(152,474,o),
(250,474,cs),
(348,474,o),
(402,394,o),
(402,256,cs)
);
}
);
width = 534;
}
);
unicode = 103;
},
{
glyphname = grave;
layers = (
{
hints = (
{
horizontal = 1;
origin = (0,1);
target = down;
type = TopGhost;
}
);
layerId = "E4F5910F-7A79-4870-ADFC-893AC9D78200";
shapes = (
{
closed = 1;
nodes = (
(226,606,l),
(169,763,l),
(-9,763,l),
(106,606,l)
);
}
);
width = 333;
},
{
hints = (
{
horizontal = 1;
origin = (0,1);
target = down;
type = TopGhost;
}
);
layerId = "0486BCA8-F793-4B15-B8A2-0882358C0736";
shapes = (
{
closed = 1;
nodes = (
(216,598,l),
(146,752,l),
(-10,752,l),
(116,598,l)
);
}
);
width = 333;
},
{
hints = (
{
horizontal = 1;
origin = (0,1);
target = down;
type = TopGhost;
}
);
layerId = "B4AF9C66-4182-4BB3-8260-B15F342CB5AD";
shapes = (
{
closed = 1;
nodes = (
(196,581,l),
(100,729,l),
(-13,729,l),
(136,581,l)
);
}
);
width = 333;
},
{
hints = (
{
horizontal = 1;
origin = (0,1);
target = down;
type = TopGhost;
}
);
layerId = "72302C92-9F48-4323-B731-8A9E50B35526";
shapes = (
{
closed = 1;
nodes = (
(188,574,l),
(81,720,l),
(-15,720,l),
(144,574,l)
);
}
);
width = 333;
}
);
unicode = 96;
},
{
glyphname = greater;
layers = (
{
hints = (
{
horizontal = 1;
origin = (0,6);
target = up;
type = BottomGhost;
},
{
horizontal = 1;
origin = (0,2);
target = down;
type = TopGhost;
}
);
layerId = "E4F5910F-7A79-4870-ADFC-893AC9D78200";
shapes = (
{
closed = 1;
nodes = (
(472,206,l),
(472,294,l),
(75,623,l),
(75,473,l),
(344,250,l),
(75,27,l),
(75,-123,l)
);
}
);
width = 584;
},
{
hints = (
{
horizontal = 1;
origin = (0,6);
target = up;
type = BottomGhost;
},
{
horizontal = 1;
origin = (0,2);
target = down;
type = TopGhost;
}
);
layerId = "0486BCA8-F793-4B15-B8A2-0882358C0736";
shapes = (
{
closed = 1;
nodes = (
(464,212,l),
(464,288,l),
(88,605,l),
(88,475,l),
(354,250,l),
(88,25,l),
(88,-105,l)
);
}
);
width = 584;
},
{
hints = (
{
horizontal = 1;
origin = (0,6);
target = up;
type = BottomGhost;
},
{
horizontal = 1;
origin = (0,2);
target = down;
type = TopGhost;
}
);
layerId = "B4AF9C66-4182-4BB3-8260-B15F342CB5AD";
shapes = (
{
closed = 1;
nodes = (
(448,224,l),
(448,276,l),
(114,569,l),
(114,479,l),
(374,250,l),
(114,21,l),
(114,-69,l)
);
}
);
width = 584;
},
{
hints = (
{
horizontal = 1;
origin = (0,6);
target = up;
type = BottomGhost;
},
{
horizontal = 1;
origin = (0,2);
target = down;
type = TopGhost;
}
);
layerId = "72302C92-9F48-4323-B731-8A9E50B35526";
shapes = (
{
closed = 1;
nodes = (
(441,229,l),
(441,271,l),
(125,554,l),
(125,481,l),
(382,250,l),
(125,19,l),
(125,-54,l)
);
}
);
width = 584;
}
);
unicode = 62;
},
{
glyphname = H;
layers = (
{
hints = (
{
horizontal = 1;
origin = (0,0);
target = up;
type = BottomGhost;
},
{
horizontal = 1;
origin = (0,9);
target = (0,4);
type = Stem;
},
{
horizontal = 1;
origin = (0,1);
target = down;
type = TopGhost;
},
{
origin = (0,6);
target = (0,5);
type = Stem;
},
{
origin = (0,2);
target = (0,1);
type = Stem;
}
);
layerId = "68A22FE7-C8F3-439C-857C-EB17D6453AAF";
name = "#instance";
shapes = (
{
closed = 1;
nodes = (
(627,0,l),
(627,700,l),
(560,700,l),
(560,381,l),
(167,381,l),
(167,700,l),
(100,700,l),
(100,0,l),
(167,0,l),
(167,320,l),
(560,320,l),
(560,0,l)
);
}
);
width = 722;
},
{
hints = (
{
horizontal = 1;
origin = (0,0);
target = up;
type = BottomGhost;
},
{
horizontal = 1;
origin = (0,9);
target = (0,4);
type = Stem;
},
{
horizontal = 1;
origin = (0,1);
target = down;
type = TopGhost;
},
{
origin = (0,6);
target = (0,5);
type = Stem;
},
{
origin = (0,2);
target = (0,1);
type = Stem;
}
);
layerId = "E4F5910F-7A79-4870-ADFC-893AC9D78200";
shapes = (
{
closed = 1;
nodes = (
(651,0,l),
(651,700,l),
(480,700,l),
(480,458,l),
(243,458,l),
(243,700,l),
(72,700,l),
(72,0,l),
(243,0,l),
(243,317,l),
(480,317,l),
(480,0,l)
);
}
);
width = 722;
},
{
hints = (
{
horizontal = 1;
origin = (0,0);
target = up;
type = BottomGhost;
},
{
horizontal = 1;
origin = (0,9);
target = (0,4);
type = Stem;
},
{
horizontal = 1;
origin = (0,1);
target = down;
type = TopGhost;
},
{
origin = (0,6);
target = (0,5);
type = Stem;
},
{
origin = (0,2);
target = (0,1);
type = Stem;
}
);
layerId = "0486BCA8-F793-4B15-B8A2-0882358C0736";
shapes = (
{
closed = 1;
nodes = (
(645,0,l),
(645,700,l),
(501,700,l),
(501,438,l),
(223,438,l),
(223,700,l),
(79,700,l),
(79,0,l),
(223,0,l),
(223,318,l),
(501,318,l),
(501,0,l)
);
}
);
width = 722;
},
{
hints = (
{
horizontal = 1;
origin = (0,0);
target = up;
type = BottomGhost;
},
{
horizontal = 1;
origin = (0,9);
target = (0,4);
type = Stem;
},
{
horizontal = 1;
origin = (0,1);
target = down;
type = TopGhost;
},
{
origin = (0,6);
target = (0,5);
type = Stem;
},
{
origin = (0,2);
target = (0,1);
type = Stem;
}
);
layerId = "B4AF9C66-4182-4BB3-8260-B15F342CB5AD";
shapes = (
{
closed = 1;
nodes = (
(632,0,l),
(632,700,l),
(543,700,l),
(543,397,l),
(183,397,l),
(183,700,l),
(94,700,l),
(94,0,l),
(183,0,l),
(183,319,l),
(543,319,l),
(543,0,l)
);
}
);
width = 722;
},
{
hints = (
{
horizontal = 1;
origin = (0,0);
target = up;
type = BottomGhost;
},
{
horizontal = 1;
origin = (0,9);
target = (0,4);
type = Stem;
},
{
horizontal = 1;
origin = (0,1);
target = down;
type = TopGhost;
},
{
origin = (0,6);
target = (0,5);
type = Stem;
},
{
origin = (0,2);
target = (0,1);
type = Stem;
}
);
layerId = "72302C92-9F48-4323-B731-8A9E50B35526";
shapes = (
{
closed = 1;
nodes = (
(627,0,l),
(627,700,l),
(560,700,l),
(560,381,l),
(167,381,l),
(167,700,l),
(100,700,l),
(100,0,l),
(167,0,l),
(167,320,l),
(560,320,l),
(560,0,l)
);
}
);
width = 722;
}
);
unicode = 72;
},
{
glyphname = h;
layers = (
{
layerId = "68A22FE7-C8F3-439C-857C-EB17D6453AAF";
name = "#instance";
shapes = (
{
closed = 1;
nodes = (
(568,0,l),
(568,345,ls),
(568,490,o),
(489,554,o),
(387,554,cs),
(321,554,o),
(268,524,o),
(234,467,c),
(234,729,l),
(66,729,l),
(66,0,l),
(234,0,l),
(234,341,ls),
(234,381,o),
(274,412,o),
(325,412,cs),
(371,412,o),
(400,389,o),
(400,314,cs),
(400,0,l)
);
}
);
width = 639;
},
{
layerId = "E4F5910F-7A79-4870-ADFC-893AC9D78200";
shapes = (
{
closed = 1;
nodes = (
(568,0,l),
(568,345,ls),
(568,490,o),
(489,554,o),
(387,554,cs),
(321,554,o),
(268,524,o),
(234,467,c),
(234,729,l),
(66,729,l),
(66,0,l),
(234,0,l),
(234,341,ls),
(234,381,o),
(274,412,o),
(325,412,cs),
(371,412,o),
(400,389,o),
(400,314,cs),
(400,0,l)
);
}
);
width = 639;
},
{
layerId = "0486BCA8-F793-4B15-B8A2-0882358C0736";
shapes = (
{
closed = 1;
nodes = (
(541,0,l),
(541,362,ls),
(541,488,o),
(467,549,o),
(365,549,cs),
(296,549,o),
(246,521,o),
(207,462,c),
(207,729,l),
(67,729,l),
(67,0,l),
(207,0,l),
(207,324,ls),
(207,386,o),
(252,430,o),
(315,430,cs),
(365,430,o),
(401,403,o),
(401,330,cs),
(401,0,l)
);
}
);
width = 611;
},
{
layerId = "B4AF9C66-4182-4BB3-8260-B15F342CB5AD";
shapes = (
{
closed = 1;
nodes = (
(486,0,l),
(486,396,ls),
(486,484,o),
(423,539,o),
(321,539,cs),
(247,539,o),
(202,516,o),
(153,452,c),
(153,729,l),
(70,729,l),
(70,0,l),
(153,0,l),
(153,289,ls),
(153,396,o),
(209,466,o),
(295,466,cs),
(354,466,o),
(403,432,o),
(403,363,cs),
(403,0,l)
);
}
);
width = 556;
},
{
layerId = "72302C92-9F48-4323-B731-8A9E50B35526";
shapes = (
{
closed = 1;
nodes = (
(464,0,l),
(464,410,ls),
(464,482,o),
(405,535,o),
(303,535,cs),
(228,535,o),
(185,514,o),
(132,448,c),
(132,729,l),
(72,729,l),
(72,0,l),
(132,0,l),
(132,275,ls),
(132,400,o),
(192,481,o),
(287,481,cs),
(350,481,o),
(404,445,o),
(404,377,cs),
(404,0,l)
);
}
);
width = 534;
}
);
unicode = 104;
},
{
glyphname = hyphen;
layers = (
{
layerId = "68A22FE7-C8F3-439C-857C-EB17D6453AAF";
name = "#instance";
shapes = (
{
closed = 1;
nodes = (
(278,254,l),
(278,300,l),
(54,300,l),
(54,254,l)
);
}
);
width = 333;
},
{
layerId = "E4F5910F-7A79-4870-ADFC-893AC9D78200";
shapes = (
{
closed = 1;
nodes = (
(305,191,l),
(305,357,l),
(16,357,l),
(16,191,l)
);
}
);
width = 333;
},
{
layerId = "0486BCA8-F793-4B15-B8A2-0882358C0736";
shapes = (
{
closed = 1;
nodes = (
(298,207,l),
(298,342,l),
(26,342,l),
(26,207,l)
);
}
);
width = 333;
},
{
layerId = "B4AF9C66-4182-4BB3-8260-B15F342CB5AD";
shapes = (
{
closed = 1;
nodes = (
(284,240,l),
(284,312,l),
(46,312,l),
(46,240,l)
);
}
);
width = 333;
},
{
layerId = "72302C92-9F48-4323-B731-8A9E50B35526";
shapes = (
{
closed = 1;
nodes = (
(278,254,l),
(278,300,l),
(54,300,l),
(54,254,l)
);
}
);
width = 333;
}
);
unicode = 45;
},
{
glyphname = I;
layers = (
{
hints = (
{
horizontal = 1;
origin = (0,0);
target = up;
type = BottomGhost;
},
{
horizontal = 1;
origin = (0,1);
target = down;
type = TopGhost;
},
{
origin = (0,2);
target = (0,1);
type = Stem;
}
);
layerId = "68A22FE7-C8F3-439C-857C-EB17D6453AAF";
name = "#instance";
shapes = (
{
closed = 1;
nodes = (
(184,0,l),
(184,700,l),
(117,700,l),
(117,0,l)
);
}
);
width = 278;
},
{
hints = (
{
horizontal = 1;
origin = (0,0);
target = up;
type = BottomGhost;
},
{
horizontal = 1;
origin = (0,1);
target = down;
type = TopGhost;
},
{
origin = (0,2);
target = (0,1);
type = Stem;
}
);
layerId = "E4F5910F-7A79-4870-ADFC-893AC9D78200";
shapes = (
{
closed = 1;
nodes = (
(220,0,l),
(220,700,l),
(48,700,l),
(48,0,l)
);
}
);
width = 278;
},
{
hints = (
{
horizontal = 1;
origin = (0,0);
target = up;
type = BottomGhost;
},
{
horizontal = 1;
origin = (0,1);
target = down;
type = TopGhost;
},
{
origin = (0,2);
target = (0,1);
type = Stem;
}
);
layerId = "0486BCA8-F793-4B15-B8A2-0882358C0736";
shapes = (
{
closed = 1;
nodes = (
(210,0,l),
(210,700,l),
(66,700,l),
(66,0,l)
);
}
);
width = 278;
},
{
hints = (
{
horizontal = 1;
origin = (0,0);
target = up;
type = BottomGhost;
},
{
horizontal = 1;
origin = (0,1);
target = down;
type = TopGhost;
},
{
origin = (0,2);
target = (0,1);
type = Stem;
}
);
layerId = "B4AF9C66-4182-4BB3-8260-B15F342CB5AD";
shapes = (
{
closed = 1;
nodes = (
(191,0,l),
(191,700,l),
(102,700,l),
(102,0,l)
);
}
);
width = 278;
},
{
hints = (
{
horizontal = 1;
origin = (0,0);
target = up;
type = BottomGhost;
},
{
horizontal = 1;
origin = (0,1);
target = down;
type = TopGhost;
},
{
origin = (0,2);
target = (0,1);
type = Stem;
}
);
layerId = "72302C92-9F48-4323-B731-8A9E50B35526";
shapes = (
{
closed = 1;
nodes = (
(184,0,l),
(184,700,l),
(117,700,l),
(117,0,l)
);
}
);
width = 278;
}
);
unicode = 73;
},
{
glyphname = i;
layers = (
{
layerId = "68A22FE7-C8F3-439C-857C-EB17D6453AAF";
name = "#instance";
shapes = (
{
closed = 1;
nodes = (
(234,0,l),
(234,548,l),
(66,548,l),
(66,0,l)
);
},
{
closed = 1;
nodes = (
(231,606,l),
(231,764,l),
(73,764,l),
(73,606,l)
);
}
);
width = 306;
},
{
layerId = "E4F5910F-7A79-4870-ADFC-893AC9D78200";
shapes = (
{
closed = 1;
nodes = (
(234,0,l),
(234,548,l),
(66,548,l),
(66,0,l)
);
},
{
closed = 1;
nodes = (
(231,606,l),
(231,764,l),
(73,764,l),
(73,606,l)
);
}
);
width = 306;
},
{
layerId = "0486BCA8-F793-4B15-B8A2-0882358C0736";
shapes = (
{
closed = 1;
nodes = (
(207,0,l),
(207,540,l),
(67,540,l),
(67,0,l)
);
},
{
closed = 1;
nodes = (
(209,605,l),
(209,745,l),
(69,745,l),
(69,605,l)
);
}
);
width = 278;
},
{
layerId = "B4AF9C66-4182-4BB3-8260-B15F342CB5AD";
shapes = (
{
closed = 1;
nodes = (
(153,0,l),
(153,524,l),
(70,524,l),
(70,0,l)
);
},
{
closed = 1;
nodes = (
(164,603,l),
(164,707,l),
(60,707,l),
(60,603,l)
);
}
);
width = 222;
},
{
layerId = "72302C92-9F48-4323-B731-8A9E50B35526";
shapes = (
{
closed = 1;
nodes = (
(132,0,l),
(132,517,l),
(72,517,l),
(72,0,l)
);
},
{
closed = 1;
nodes = (
(146,602,l),
(146,691,l),
(57,691,l),
(57,602,l)
);
}
);
width = 199;
}
);
unicode = 105;
},
{
glyphname = J;
layers = (
{
layerId = "68A22FE7-C8F3-439C-857C-EB17D6453AAF";
name = "#instance";
shapes = (
{
closed = 1;
nodes = (
(395,700,l),
(328,700,l),
(328,221,ls),
(328,80,o),
(284,36,o),
(209,36,cs),
(137,36,o),
(94,88,o),
(94,178,cs),
(94,210,l),
(26,210,l),
(26,155,ls),
(26,53,o),
(91,-19,o),
(209,-19,cs),
(321,-19,o),
(395,58,o),
(395,174,cs)
);
}
);
width = 477;
},
{
layerId = "E4F5910F-7A79-4870-ADFC-893AC9D78200";
shapes = (
{
closed = 1;
nodes = (
(507,700,l),
(335,700,l),
(335,183,ls),
(335,162,o),
(313,138,o),
(273,138,cs),
(224,138,o),
(208,155,o),
(208,211,cs),
(208,276,l),
(37,276,l),
(37,217,ls),
(37,65,o),
(134,-9,o),
(269,-9,cs),
(423,-9,o),
(507,64,o),
(507,200,cs)
);
}
);
width = 584;
},
{
layerId = "0486BCA8-F793-4B15-B8A2-0882358C0736";
shapes = (
{
closed = 1;
nodes = (
(478,700,l),
(334,700,l),
(334,193,ls),
(334,140,o),
(306,111,o),
(256,111,cs),
(201,111,o),
(178,138,o),
(178,203,cs),
(178,259,l),
(34,259,l),
(34,201,ls),
(34,61,o),
(122,-12,o),
(253,-12,cs),
(396,-12,o),
(478,62,o),
(478,193,c)
);
}
);
width = 556;
},
{
layerId = "B4AF9C66-4182-4BB3-8260-B15F342CB5AD";
shapes = (
{
closed = 1;
nodes = (
(419,700,l),
(330,700,l),
(330,212,ls),
(330,97,o),
(290,58,o),
(222,58,cs),
(155,58,o),
(118,103,o),
(118,184,cs),
(118,225,l),
(28,225,l),
(28,168,ls),
(28,55,o),
(99,-17,o),
(221,-17,cs),
(343,-17,o),
(419,59,o),
(419,180,c)
);
}
);
width = 500;
},
{
layerId = "72302C92-9F48-4323-B731-8A9E50B35526";
shapes = (
{
closed = 1;
nodes = (
(395,700,l),
(328,700,l),
(328,221,ls),
(328,80,o),
(284,36,o),
(209,36,cs),
(137,36,o),
(94,88,o),
(94,178,cs),
(94,210,l),
(26,210,l),
(26,155,ls),
(26,53,o),
(91,-19,o),
(209,-19,cs),
(321,-19,o),
(395,58,o),
(395,174,cs)
);
}
);
width = 477;
}
);
unicode = 74;
},
{
glyphname = j;
layers = (
{
layerId = "68A22FE7-C8F3-439C-857C-EB17D6453AAF";
name = "#instance";
shapes = (
{
closed = 1;
nodes = (
(238,548,l),
(70,548,l),
(70,-56,ls),
(70,-78,o),
(62,-84,o),
(42,-85,c),
(33,-85,o),
(27,-84,o),
(15,-80,c),
(15,-212,l),
(52,-215,o),
(102,-218,o),
(125,-218,cs),
(209,-218,o),
(238,-183,o),
(238,-87,cs)
);
},
{
closed = 1;
nodes = (
(233,606,l),
(233,764,l),
(75,764,l),
(75,606,l)
);
}
);
width = 306;
},
{
layerId = "E4F5910F-7A79-4870-ADFC-893AC9D78200";
shapes = (
{
closed = 1;
nodes = (
(238,548,l),
(70,548,l),
(70,-56,ls),
(70,-78,o),
(62,-84,o),
(42,-85,c),
(33,-85,o),
(27,-84,o),
(15,-80,c),
(15,-212,l),
(52,-215,o),
(102,-218,o),
(125,-218,cs),
(209,-218,o),
(238,-183,o),
(238,-87,cs)
);
},
{
closed = 1;
nodes = (
(233,606,l),
(233,764,l),
(75,764,l),
(75,606,l)
);
}
);
width = 306;
},
{
layerId = "0486BCA8-F793-4B15-B8A2-0882358C0736";
shapes = (
{
closed = 1;
nodes = (
(210,540,l),
(70,540,l),
(70,-63,ls),
(70,-94,o),
(59,-105,o),
(29,-105,cs),
(20,-105,o),
(14,-104,o),
(4,-101,c),
(4,-213,l),
(32,-216,o),
(67,-218,o),
(87,-218,cs),
(174,-218,o),
(210,-182,o),
(210,-94,c)
);
},
{
closed = 1;
nodes = (
(210,605,l),
(210,745,l),
(70,745,l),
(70,605,l)
);
}
);
width = 278;
},
{
layerId = "B4AF9C66-4182-4BB3-8260-B15F342CB5AD";
shapes = (
{
closed = 1;
nodes = (
(153,524,l),
(70,524,l),
(70,-76,ls),
(70,-126,o),
(53,-148,o),
(2,-145,c),
(-5,-145,o),
(-11,-144,o),
(-18,-144,c),
(-18,-215,l),
(-8,-217,o),
(-3,-218,o),
(10,-218,cs),
(104,-218,o),
(153,-180,o),
(153,-109,c)
);
},
{
closed = 1;
nodes = (
(164,603,l),
(164,707,l),
(60,707,l),
(60,603,l)
);
}
);
width = 222;
},
{
layerId = "72302C92-9F48-4323-B731-8A9E50B35526";
shapes = (
{
closed = 1;
nodes = (
(130,517,l),
(70,517,l),
(70,-82,ls),
(70,-140,o),
(51,-167,o),
(-10,-162,c),
(-16,-162,o),
(-22,-161,o),
(-27,-163,c),
(-27,-216,l),
(-25,-218,o),
(-32,-218,o),
(-22,-218,cs),
(75,-218,o),
(130,-179,o),
(130,-116,cs)
);
},
{
closed = 1;
nodes = (
(146,602,l),
(146,691,l),
(56,691,l),
(56,602,l)
);
}
);
width = 199;
}
);
unicode = 106;
},
{
glyphname = K;
layers = (
{
hints = (
{
horizontal = 1;
origin = (0,0);
target = up;
type = BottomGhost;
},
{
horizontal = 1;
origin = (0,2);
target = down;
type = TopGhost;
},
{
origin = (0,6);
target = (0,5);
type = Stem;
}
);
layerId = "68A22FE7-C8F3-439C-857C-EB17D6453AAF";
name = "#instance";
shapes = (
{
closed = 1;
nodes = (
(623,0,l),
(343,422,l),
(630,700,l),
(538,700,l),
(158,327,l),
(158,700,l),
(91,700,l),
(91,0,l),
(158,0,l),
(158,250,l),
(289,380,l),
(544,0,l)
);
}
);
width = 645;
},
{
hints = (
{
horizontal = 1;
origin = (0,0);
target = up;
type = BottomGhost;
},
{
horizontal = 1;
origin = (0,2);
target = down;
type = TopGhost;
},
{
origin = (0,6);
target = (0,5);
type = Stem;
}
);
layerId = "E4F5910F-7A79-4870-ADFC-893AC9D78200";
shapes = (
{
closed = 1;
nodes = (
(733,0,l),
(413,391,l),
(690,700,l),
(492,700,l),
(256,416,l),
(256,700,l),
(84,700,l),
(84,0,l),
(256,0,l),
(256,230,l),
(307,284,l),
(528,0,l)
);
}
);
width = 750;
},
{
hints = (
{
horizontal = 1;
origin = (0,0);
target = up;
type = BottomGhost;
},
{
horizontal = 1;
origin = (0,2);
target = down;
type = TopGhost;
},
{
origin = (0,6);
target = (0,5);
type = Stem;
}
);
layerId = "0486BCA8-F793-4B15-B8A2-0882358C0736";
shapes = (
{
closed = 1;
nodes = (
(702,0,l),
(393,398,l),
(673,700,l),
(503,700,l),
(229,393,l),
(229,700,l),
(85,700,l),
(85,0,l),
(229,0,l),
(229,234,l),
(301,309,l),
(530,0,l)
);
}
);
width = 722;
},
{
hints = (
{
horizontal = 1;
origin = (0,0);
target = up;
type = BottomGhost;
},
{
horizontal = 1;
origin = (0,2);
target = down;
type = TopGhost;
},
{
origin = (0,6);
target = (0,5);
type = Stem;
}
);
layerId = "B4AF9C66-4182-4BB3-8260-B15F342CB5AD";
shapes = (
{
closed = 1;
nodes = (
(645,0,l),
(357,415,l),
(642,700,l),
(527,700,l),
(178,346,l),
(178,700,l),
(89,700,l),
(89,0,l),
(178,0,l),
(178,245,l),
(292,359,l),
(539,0,l)
);
}
);
width = 667;
},
{
hints = (
{
horizontal = 1;
origin = (0,0);
target = up;
type = BottomGhost;
},
{
horizontal = 1;
origin = (0,2);
target = down;
type = TopGhost;
},
{
origin = (0,6);
target = (0,5);
type = Stem;
}
);
layerId = "72302C92-9F48-4323-B731-8A9E50B35526";
shapes = (
{
closed = 1;
nodes = (
(623,0,l),
(343,422,l),
(630,700,l),
(538,700,l),
(158,327,l),
(158,700,l),
(91,700,l),
(91,0,l),
(158,0,l),
(158,250,l),
(289,380,l),
(544,0,l)
);
}
);
width = 645;
}
);
unicode = 75;
},
{
glyphname = k;
layers = (
{
layerId = "68A22FE7-C8F3-439C-857C-EB17D6453AAF";
name = "#instance";
shapes = (
{
closed = 1;
nodes = (
(571,0,l),
(382,333,l),
(568,548,l),
(383,548,l),
(228,344,l),
(228,729,l),
(60,729,l),
(60,0,l),
(228,0,l),
(228,164,l),
(271,215,l),
(376,0,l)
);
}
);
width = 584;
},
{
layerId = "E4F5910F-7A79-4870-ADFC-893AC9D78200";
shapes = (
{
closed = 1;
nodes = (
(571,0,l),
(382,333,l),
(568,548,l),
(383,548,l),
(228,344,l),
(228,729,l),
(60,729,l),
(60,0,l),
(228,0,l),
(228,164,l),
(271,215,l),
(376,0,l)
);
}
);
width = 584;
},
{
layerId = "0486BCA8-F793-4B15-B8A2-0882358C0736";
shapes = (
{
closed = 1;
nodes = (
(548,0,l),
(351,336,l),
(535,540,l),
(376,540,l),
(199,330,l),
(199,729,l),
(59,729,l),
(59,0,l),
(199,0,l),
(199,177,l),
(255,238,l),
(384,0,l)
);
}
);
width = 556;
},
{
layerId = "B4AF9C66-4182-4BB3-8260-B15F342CB5AD";
shapes = (
{
closed = 1;
nodes = (
(502,0,l),
(288,343,l),
(470,524,l),
(363,524,l),
(141,302,l),
(141,729,l),
(58,729,l),
(58,0,l),
(141,0,l),
(141,204,l),
(222,284,l),
(399,0,l)
);
}
);
width = 500;
},
{
layerId = "72302C92-9F48-4323-B731-8A9E50B35526";
shapes = (
{
closed = 1;
nodes = (
(484,0,l),
(263,346,l),
(445,517,l),
(359,517,l),
(118,290,l),
(118,729,l),
(58,729,l),
(58,0,l),
(118,0,l),
(118,215,l),
(210,303,l),
(407,0,l)
);
}
);
width = 477;
}
);
unicode = 107;
},
{
glyphname = L;
layers = (
{
hints = (
{
horizontal = 1;
origin = (0,0);
target = (0,1);
type = Stem;
},
{
horizontal = 1;
origin = (0,3);
target = down;
type = TopGhost;
},
{
origin = (0,4);
target = (0,3);
type = Stem;
}
);
layerId = "68A22FE7-C8F3-439C-857C-EB17D6453AAF";
name = "#instance";
shapes = (
{
closed = 1;
nodes = (
(506,0,l),
(506,62,l),
(155,62,l),
(155,700,l),
(88,700,l),
(88,0,l)
);
}
);
width = 534;
},
{
hints = (
{
horizontal = 1;
origin = (0,0);
target = (0,1);
type = Stem;
},
{
horizontal = 1;
origin = (0,3);
target = down;
type = TopGhost;
},
{
origin = (0,4);
target = (0,3);
type = Stem;
}
);
layerId = "E4F5910F-7A79-4870-ADFC-893AC9D78200";
shapes = (
{
closed = 1;
nodes = (
(592,0,l),
(592,141,l),
(261,141,l),
(261,700,l),
(90,700,l),
(90,0,l)
);
}
);
width = 639;
},
{
hints = (
{
horizontal = 1;
origin = (0,0);
target = (0,1);
type = Stem;
},
{
horizontal = 1;
origin = (0,3);
target = down;
type = TopGhost;
},
{
origin = (0,4);
target = (0,3);
type = Stem;
}
);
layerId = "0486BCA8-F793-4B15-B8A2-0882358C0736";
shapes = (
{
closed = 1;
nodes = (
(568,0,l),
(568,120,l),
(233,120,l),
(233,700,l),
(89,700,l),
(89,0,l)
);
}
);
width = 611;
},
{
hints = (
{
horizontal = 1;
origin = (0,0);
target = (0,1);
type = Stem;
},
{
horizontal = 1;
origin = (0,3);
target = down;
type = TopGhost;
},
{
origin = (0,4);
target = (0,3);
type = Stem;
}
);
layerId = "B4AF9C66-4182-4BB3-8260-B15F342CB5AD";
shapes = (
{
closed = 1;
nodes = (
(523,0,l),
(523,79,l),
(177,79,l),
(177,700,l),
(88,700,l),
(88,0,l)
);
}
);
width = 556;
},
{
hints = (
{
horizontal = 1;
origin = (0,0);
target = (0,1);
type = Stem;
},
{
horizontal = 1;
origin = (0,3);
target = down;
type = TopGhost;
},
{
origin = (0,4);
target = (0,3);
type = Stem;
}
);
layerId = "72302C92-9F48-4323-B731-8A9E50B35526";
shapes = (
{
closed = 1;
nodes = (
(506,0,l),
(506,62,l),
(155,62,l),
(155,700,l),
(88,700,l),
(88,0,l)
);
}
);
width = 534;
}
);
unicode = 76;
},
{
glyphname = l;
layers = (
{
layerId = "68A22FE7-C8F3-439C-857C-EB17D6453AAF";
name = "#instance";
shapes = (
{
closed = 1;
nodes = (
(234,0,l),
(234,729,l),
(66,729,l),
(66,0,l)
);
}
);
width = 306;
},
{
layerId = "E4F5910F-7A79-4870-ADFC-893AC9D78200";
shapes = (
{
closed = 1;
nodes = (
(234,0,l),
(234,729,l),
(66,729,l),
(66,0,l)
);
}
);
width = 306;
},
{
layerId = "0486BCA8-F793-4B15-B8A2-0882358C0736";
shapes = (
{
closed = 1;
nodes = (
(207,0,l),
(207,729,l),
(67,729,l),
(67,0,l)
);
}
);
width = 278;
},
{
layerId = "B4AF9C66-4182-4BB3-8260-B15F342CB5AD";
shapes = (
{
closed = 1;
nodes = (
(151,0,l),
(151,729,l),
(68,729,l),
(68,0,l)
);
}
);
width = 222;
},
{
layerId = "72302C92-9F48-4323-B731-8A9E50B35526";
shapes = (
{
closed = 1;
nodes = (
(129,0,l),
(129,729,l),
(69,729,l),
(69,0,l)
);
}
);
width = 199;
}
);
unicode = 108;
},
{
glyphname = less;
layers = (
{
layerId = "68A22FE7-C8F3-439C-857C-EB17D6453AAF";
name = "#instance";
shapes = (
{
closed = 1;
nodes = (
(441,-54,l),
(441,19,l),
(184,250,l),
(441,481,l),
(441,554,l),
(125,271,l),
(125,229,l)
);
}
);
width = 584;
},
{
layerId = "E4F5910F-7A79-4870-ADFC-893AC9D78200";
shapes = (
{
closed = 1;
nodes = (
(472,-123,l),
(472,27,l),
(203,250,l),
(472,473,l),
(472,623,l),
(75,294,l),
(75,206,l)
);
}
);
width = 584;
},
{
layerId = "0486BCA8-F793-4B15-B8A2-0882358C0736";
shapes = (
{
closed = 1;
nodes = (
(464,-105,l),
(464,25,l),
(198,250,l),
(464,475,l),
(464,605,l),
(88,288,l),
(88,212,l)
);
}
);
width = 584;
},
{
layerId = "B4AF9C66-4182-4BB3-8260-B15F342CB5AD";
shapes = (
{
closed = 1;
nodes = (
(448,-69,l),
(448,21,l),
(188,250,l),
(448,479,l),
(448,569,l),
(114,276,l),
(114,224,l)
);
}
);
width = 584;
},
{
layerId = "72302C92-9F48-4323-B731-8A9E50B35526";
shapes = (
{
closed = 1;
nodes = (
(441,-54,l),
(441,19,l),
(184,250,l),
(441,481,l),
(441,554,l),
(125,271,l),
(125,229,l)
);
}
);
width = 584;
}
);
unicode = 60;
},
{
glyphname = M;
layers = (
{
layerId = "68A22FE7-C8F3-439C-857C-EB17D6453AAF";
name = "#instance";
shapes = (
{
closed = 1;
nodes = (
(742,0,l),
(742,700,l),
(657,700,l),
(420,68,l),
(180,700,l),
(93,700,l),
(93,0,l),
(153,0,l),
(153,604,l),
(382,0,l),
(455,0,l),
(682,604,l),
(682,0,l)
);
}
);
width = 833;
},
{
layerId = "E4F5910F-7A79-4870-ADFC-893AC9D78200";
shapes = (
{
closed = 1;
nodes = (
(770,0,l),
(770,700,l),
(506,700,l),
(423,170,l),
(336,700,l),
(76,700,l),
(76,0,l),
(249,0,l),
(249,524,l),
(339,0,l),
(508,0,l),
(596,524,l),
(596,0,l)
);
}
);
width = 833;
},
{
layerId = "0486BCA8-F793-4B15-B8A2-0882358C0736";
shapes = (
{
closed = 1;
nodes = (
(762,0,l),
(762,700,l),
(545,700,l),
(422,143,l),
(295,700,l),
(80,700,l),
(80,0,l),
(224,0,l),
(224,545,l),
(350,0,l),
(494,0,l),
(618,545,l),
(618,0,l)
);
}
);
width = 833;
},
{
layerId = "B4AF9C66-4182-4BB3-8260-B15F342CB5AD";
shapes = (
{
closed = 1;
nodes = (
(748,0,l),
(748,700,l),
(624,700,l),
(420,90,l),
(213,700,l),
(89,700,l),
(89,0,l),
(173,0,l),
(173,587,l),
(372,0,l),
(466,0,l),
(663,587,l),
(663,0,l)
);
}
);
width = 833;
},
{
layerId = "72302C92-9F48-4323-B731-8A9E50B35526";
shapes = (
{
closed = 1;
nodes = (
(742,0,l),
(742,700,l),
(657,700,l),
(420,68,l),
(180,700,l),
(93,700,l),
(93,0,l),
(153,0,l),
(153,604,l),
(382,0,l),
(455,0,l),
(682,604,l),
(682,0,l)
);
}
);
width = 833;
}
);
unicode = 77;
},
{
glyphname = m;
layers = (
{
layerId = "68A22FE7-C8F3-439C-857C-EB17D6453AAF";
name = "#instance";
shapes = (
{
closed = 1;
nodes = (
(855,0,l),
(855,377,ls),
(855,487,o),
(785,554,o),
(672,554,cs),
(606,554,o),
(555,529,o),
(516,474,c),
(493,523,o),
(433,554,o),
(366,554,cs),
(309,554,o),
(272,535,o),
(225,485,c),
(225,548,l),
(55,548,l),
(55,0,l),
(223,0,l),
(223,322,ls),
(223,382,o),
(249,412,o),
(306,412,cs),
(345,412,o),
(371,390,o),
(371,359,cs),
(371,0,l),
(539,0,l),
(539,322,ls),
(539,382,o),
(565,412,o),
(621,412,cs),
(661,412,o),
(687,391,o),
(687,359,cs),
(687,0,l)
);
}
);
width = 916;
},
{
layerId = "E4F5910F-7A79-4870-ADFC-893AC9D78200";
shapes = (
{
closed = 1;
nodes = (
(855,0,l),
(855,377,ls),
(855,487,o),
(785,554,o),
(672,554,cs),
(606,554,o),
(555,529,o),
(516,474,c),
(493,523,o),
(433,554,o),
(366,554,cs),
(309,554,o),
(272,535,o),
(225,485,c),
(225,548,l),
(55,548,l),
(55,0,l),
(223,0,l),
(223,322,ls),
(223,382,o),
(249,412,o),
(306,412,cs),
(345,412,o),
(371,390,o),
(371,359,cs),
(371,0,l),
(539,0,l),
(539,322,ls),
(539,382,o),
(565,412,o),
(621,412,cs),
(661,412,o),
(687,391,o),
(687,359,cs),
(687,0,l)
);
}
);
width = 916;
},
{
layerId = "0486BCA8-F793-4B15-B8A2-0882358C0736";
shapes = (
{
closed = 1;
nodes = (
(824,0,l),
(824,382,ls),
(824,487,o),
(760,549,o),
(652,549,cs),
(584,549,o),
(536,525,o),
(494,469,c),
(468,520,o),
(414,549,o),
(347,549,cs),
(285,549,o),
(245,528,o),
(199,473,c),
(199,540,l),
(60,540,l),
(60,0,l),
(200,0,l),
(200,324,ls),
(200,390,o),
(236,430,o),
(296,430,cs),
(343,430,o),
(372,403,o),
(372,360,cs),
(372,0,l),
(512,0,l),
(512,324,ls),
(512,390,o),
(548,430,o),
(608,430,cs),
(655,430,o),
(684,403,o),
(684,360,cs),
(684,0,l)
);
}
);
width = 889;
},
{
layerId = "B4AF9C66-4182-4BB3-8260-B15F342CB5AD";
shapes = (
{
closed = 1;
nodes = (
(760,0,l),
(760,393,ls),
(760,487,o),
(708,539,o),
(610,539,cs),
(540,539,o),
(498,518,o),
(449,459,c),
(418,515,o),
(376,539,o),
(308,539,cs),
(238,539,o),
(192,513,o),
(147,450,c),
(147,524,l),
(71,524,l),
(71,0,l),
(154,0,l),
(154,329,ls),
(154,405,o),
(209,466,o),
(277,466,cs),
(339,466,o),
(374,428,o),
(374,361,cs),
(374,0,l),
(457,0,l),
(457,329,ls),
(457,405,o),
(513,466,o),
(581,466,cs),
(642,466,o),
(677,427,o),
(677,361,cs),
(677,0,l)
);
}
);
width = 833;
},
{
layerId = "72302C92-9F48-4323-B731-8A9E50B35526";
shapes = (
{
closed = 1;
nodes = (
(734,0,l),
(734,398,ls),
(734,487,o),
(687,535,o),
(593,535,cs),
(522,535,o),
(483,516,o),
(431,455,c),
(398,513,o),
(360,535,o),
(292,535,cs),
(219,535,o),
(171,507,o),
(126,441,c),
(126,518,l),
(76,518,l),
(76,0,l),
(136,0,l),
(136,332,ls),
(136,412,o),
(198,481,o),
(270,481,cs),
(338,481,o),
(375,439,o),
(375,362,cs),
(375,0,l),
(435,0,l),
(435,332,ls),
(435,412,o),
(499,481,o),
(570,481,cs),
(637,481,o),
(674,437,o),
(674,362,cs),
(674,0,l)
);
}
);
width = 809;
}
);
unicode = 109;
},
{
glyphname = N;
layers = (
{
layerId = "68A22FE7-C8F3-439C-857C-EB17D6453AAF";
name = "#instance";
shapes = (
{
closed = 1;
nodes = (
(629.36,0,l),
(629.36,699.84,l),
(568.88,699.84,l),
(568.88,88.32,l),
(166.64,699.84,l),
(89.84,699.84,l),
(89.84,0,l),
(150.32,0,l),
(150.32,602.88,l),
(545.84,0,l)
);
}
);
width = 722;
},
{
layerId = "E4F5910F-7A79-4870-ADFC-893AC9D78200";
shapes = (
{
closed = 1;
nodes = (
(655.28,0,l),
(655.28,699.84,l),
(482.48,699.84,l),
(482.48,271.68,l),
(248.24,699.84,l),
(76.4,699.84,l),
(76.4,0,l),
(249.2,0,l),
(249.2,442.56,l),
(490.16,0,l)
);
}
);
width = 722;
},
{
layerId = "0486BCA8-F793-4B15-B8A2-0882358C0736";
shapes = (
{
closed = 1;
nodes = (
(648.56,0,l),
(648.56,699.84,l),
(504.56,699.84,l),
(504.56,223.68,l),
(227.12,699.84,l),
(79.28,699.84,l),
(79.28,0,l),
(223.28,0,l),
(223.28,483.84,l),
(504.56,0,l)
);
}
);
width = 722;
},
{
layerId = "B4AF9C66-4182-4BB3-8260-B15F342CB5AD";
shapes = (
{
closed = 1;
nodes = (
(634.16,0,l),
(634.16,699.84,l),
(549.68,699.84,l),
(549.68,127.68,l),
(183.92,699.84,l),
(86.96,699.84,l),
(86.96,0,l),
(171.44,0,l),
(171.44,567.36,l),
(533.36,0,l)
);
}
);
width = 722;
},
{
layerId = "72302C92-9F48-4323-B731-8A9E50B35526";
shapes = (
{
closed = 1;
nodes = (
(629.36,0,l),
(629.36,699.84,l),
(568.88,699.84,l),
(568.88,88.32,l),
(166.64,699.84,l),
(89.84,699.84,l),
(89.84,0,l),
(150.32,0,l),
(150.32,602.88,l),
(545.84,0,l)
);
}
);
width = 722;
}
);
unicode = 78;
},
{
glyphname = n;
layers = (
{
layerId = "68A22FE7-C8F3-439C-857C-EB17D6453AAF";
name = "#instance";
shapes = (
{
closed = 1;
nodes = (
(575,0,l),
(575,345,ls),
(575,480,o),
(508,554,o),
(387,554,cs),
(316,554,o),
(267,529,o),
(230,475,c),
(230,548,l),
(59,548,l),
(59,0,l),
(227,0,l),
(227,341,ls),
(227,384,o),
(265,412,o),
(326,412,cs),
(383,412,o),
(407,383,o),
(407,318,cs),
(407,0,l)
);
}
);
width = 639;
},
{
layerId = "E4F5910F-7A79-4870-ADFC-893AC9D78200";
shapes = (
{
closed = 1;
nodes = (
(575,0,l),
(575,345,ls),
(575,480,o),
(508,554,o),
(387,554,cs),
(316,554,o),
(267,529,o),
(230,475,c),
(230,548,l),
(59,548,l),
(59,0,l),
(227,0,l),
(227,341,ls),
(227,384,o),
(265,412,o),
(326,412,cs),
(383,412,o),
(407,383,o),
(407,318,cs),
(407,0,l)
);
}
);
width = 639;
},
{
layerId = "0486BCA8-F793-4B15-B8A2-0882358C0736";
shapes = (
{
closed = 1;
nodes = (
(546,0,l),
(546,362,ls),
(546,481,o),
(480,549,o),
(365,549,cs),
(292,549,o),
(243,522,o),
(203,462,c),
(203,540,l),
(63,540,l),
(63,0,l),
(203,0,l),
(203,324,ls),
(203,388,o),
(248,430,o),
(316,430,cs),
(376,430,o),
(406,397,o),
(406,333,cs),
(406,0,l)
);
}
);
width = 611;
},
{
layerId = "B4AF9C66-4182-4BB3-8260-B15F342CB5AD";
shapes = (
{
closed = 1;
nodes = (
(487,0,l),
(487,396,ls),
(487,483,o),
(422,539,o),
(321,539,cs),
(243,539,o),
(193,509,o),
(147,436,c),
(147,524,l),
(70,524,l),
(70,0,l),
(153,0,l),
(153,289,ls),
(153,396,o),
(211,466,o),
(296,466,cs),
(362,466,o),
(404,426,o),
(404,363,cs),
(404,0,l)
);
}
);
width = 556;
},
{
layerId = "72302C92-9F48-4323-B731-8A9E50B35526";
shapes = (
{
closed = 1;
nodes = (
(463,0,l),
(463,410,ls),
(463,484,o),
(398,535,o),
(302,535,cs),
(223,535,o),
(173,504,o),
(124,425,c),
(124,518,l),
(73,518,l),
(73,0,l),
(132,0,l),
(132,275,ls),
(132,399,o),
(196,481,o),
(287,481,cs),
(356,481,o),
(403,439,o),
(403,375,cs),
(403,0,l)
);
}
);
width = 534;
}
);
unicode = 110;
},
{
glyphname = nine;
layers = (
{
layerId = "68A22FE7-C8F3-439C-857C-EB17D6453AAF";
name = "#instance";
shapes = (
{
closed = 1;
nodes = (
(511,588,o),
(443,718,o),
(271,718,cs),
(136,718,o),
(37,619,o),
(37,479,cs),
(37,350,o),
(131,262,o),
(261,262,cs),
(332,262,o),
(393,292,o),
(437,347,c),
(436,155,o),
(373,44,o),
(260,44,cs),
(190,44,o),
(143,90,o),
(125,169,c),
(55,169,l),
(78,48,o),
(149,-17,o),
(253,-17,cs),
(417,-17,o),
(511,125,o),
(511,372,cs)
);
},
{
closed = 1;
nodes = (
(432,391,o),
(363,325,o),
(266,325,cs),
(170,325,o),
(112,387,o),
(112,490,cs),
(112,585,o),
(181,654,o),
(270,654,cs),
(361,654,o),
(432,581,o),
(432,482,cs)
);
}
);
width = 556;
},
{
layerId = "E4F5910F-7A79-4870-ADFC-893AC9D78200";
shapes = (
{
closed = 1;
nodes = (
(510,629,o),
(397,706,o),
(265,706,cs),
(125,706,o),
(31,616,o),
(31,469,cs),
(31,321,o),
(113,229,o),
(234,229,cs),
(292,229,o),
(303,240,o),
(351,293,c),
(352,179,o),
(325,129,o),
(259,129,cs),
(218,129,o),
(189,151,o),
(192,179,c),
(39,179,l),
(34,76,o),
(131,-6,o),
(256,-6,cs),
(433,-6,o),
(510,132,o),
(510,378,cs)
);
},
{
closed = 1;
nodes = (
(350,396,o),
(315,359,o),
(264,359,cs),
(212,359,o),
(181,396,o),
(181,468,cs),
(181,544,o),
(210,578,o),
(260,578,cs),
(318,578,o),
(350,543,o),
(350,467,cs)
);
}
);
width = 556;
},
{
layerId = "0486BCA8-F793-4B15-B8A2-0882358C0736";
shapes = (
{
closed = 1;
nodes = (
(510,621,o),
(409,710,o),
(266,710,cs),
(127,710,o),
(32,618,o),
(32,473,cs),
(32,330,o),
(116,238,o),
(239,238,cs),
(302,238,o),
(325,253,o),
(373,306,c),
(373,174,o),
(336,109,o),
(259,109,cs),
(211,109,o),
(177,135,o),
(174,176,c),
(41,176,l),
(44,69,o),
(135,-10,o),
(255,-10,cs),
(430,-10,o),
(510,131,o),
(510,378,cs)
);
},
{
closed = 1;
nodes = (
(371,396,o),
(327,352,o),
(264,352,cs),
(202,352,o),
(163,395,o),
(163,474,cs),
(163,554,o),
(202,598,o),
(262,598,cs),
(329,598,o),
(371,553,o),
(371,473,cs)
);
}
);
width = 556;
},
{
layerId = "B4AF9C66-4182-4BB3-8260-B15F342CB5AD";
shapes = (
{
closed = 1;
nodes = (
(511,597,o),
(433,715,o),
(269,715,cs),
(134,715,o),
(35,617,o),
(35,477,cs),
(35,344,o),
(126,255,o),
(256,255,cs),
(323,255,o),
(372,279,o),
(419,334,c),
(418,161,o),
(362,62,o),
(259,62,cs),
(197,62,o),
(153,103,o),
(139,171,c),
(51,171,l),
(68,54,o),
(144,-15,o),
(254,-15,cs),
(421,-15,o),
(511,127,o),
(511,374,cs)
);
},
{
closed = 1;
nodes = (
(413,391,o),
(352,333,o),
(265,333,cs),
(179,333,o),
(126,389,o),
(126,485,cs),
(126,575,o),
(186,637,o),
(268,637,cs),
(351,637,o),
(413,572,o),
(413,480,cs)
);
}
);
width = 556;
},
{
layerId = "72302C92-9F48-4323-B731-8A9E50B35526";
shapes = (
{
closed = 1;
nodes = (
(511,588,o),
(443,718,o),
(271,718,cs),
(136,718,o),
(37,619,o),
(37,479,cs),
(37,350,o),
(131,262,o),
(261,262,cs),
(332,262,o),
(393,292,o),
(437,347,c),
(436,155,o),
(373,44,o),
(260,44,cs),
(190,44,o),
(143,90,o),
(125,169,c),
(55,169,l),
(78,48,o),
(149,-17,o),
(253,-17,cs),
(417,-17,o),
(511,125,o),
(511,372,cs)
);
},
{
closed = 1;
nodes = (
(432,391,o),
(363,325,o),
(266,325,cs),
(170,325,o),
(112,387,o),
(112,490,cs),
(112,585,o),
(181,654,o),
(270,654,cs),
(361,654,o),
(432,581,o),
(432,482,cs)
);
}
);
width = 556;
}
);
unicode = 57;
},
{
glyphname = numbersign;
layers = (
{
layerId = "68A22FE7-C8F3-439C-857C-EB17D6453AAF";
name = "#instance";
shapes = (
{
closed = 1;
nodes = (
(538,437,l),
(538,493,l),
(443,493,l),
(480,697,l),
(415,697,l),
(380,493,l),
(246,493,l),
(282,697,l),
(218,697,l),
(181,493,l),
(59,493,l),
(59,437,l),
(171,437,l),
(140,255,l),
(19,255,l),
(19,199,l),
(130,199,l),
(93,-15,l),
(156,-15,l),
(194,199,l),
(328,199,l),
(290,-15,l),
(354,-15,l),
(393,199,l),
(509,199,l),
(509,255,l),
(402,255,l),
(433,437,l)
);
},
{
closed = 1;
nodes = (
(369,437,l),
(338,255,l),
(204,255,l),
(237,437,l)
);
}
);
width = 556;
},
{
layerId = "E4F5910F-7A79-4870-ADFC-893AC9D78200";
shapes = (
{
closed = 1;
nodes = (
(558,420,l),
(558,535,l),
(470,535,l),
(503,697,l),
(384,697,l),
(351,535,l),
(259,535,l),
(291,697,l),
(172,697,l),
(139,535,l),
(21,535,l),
(21,420,l),
(116,420,l),
(86,277,l),
(-2,277,l),
(-2,162,l),
(63,162,l),
(21,-38,l),
(142,-38,l),
(183,162,l),
(276,162,l),
(235,-38,l),
(354,-38,l),
(395,162,l),
(514,162,l),
(514,277,l),
(417,277,l),
(448,420,l)
);
},
{
closed = 1;
nodes = (
(327,420,l),
(298,277,l),
(206,277,l),
(234,420,l)
);
}
);
width = 556;
},
{
layerId = "0486BCA8-F793-4B15-B8A2-0882358C0736";
shapes = (
{
closed = 1;
nodes = (
(553,424,l),
(553,523,l),
(463,523,l),
(497,697,l),
(392,697,l),
(358,523,l),
(255,523,l),
(289,697,l),
(184,697,l),
(150,523,l),
(31,523,l),
(31,424,l),
(130,424,l),
(100,271,l),
(3,271,l),
(3,172,l),
(80,172,l),
(40,-32,l),
(146,-32,l),
(186,172,l),
(289,172,l),
(249,-32,l),
(354,-32,l),
(394,172,l),
(513,172,l),
(513,271,l),
(413,271,l),
(444,424,l)
);
},
{
closed = 1;
nodes = (
(338,424,l),
(308,271,l),
(205,271,l),
(235,424,l)
);
}
);
width = 556;
},
{
layerId = "B4AF9C66-4182-4BB3-8260-B15F342CB5AD";
shapes = (
{
closed = 1;
nodes = (
(542,433,l),
(542,501,l),
(449,501,l),
(485,697,l),
(408,697,l),
(373,501,l),
(248,501,l),
(284,697,l),
(208,697,l),
(172,501,l),
(51,501,l),
(51,433,l),
(159,433,l),
(128,259,l),
(14,259,l),
(14,191,l),
(115,191,l),
(77,-20,l),
(153,-20,l),
(192,191,l),
(316,191,l),
(278,-20,l),
(354,-20,l),
(393,191,l),
(510,191,l),
(510,259,l),
(405,259,l),
(436,433,l)
);
},
{
closed = 1;
nodes = (
(360,433,l),
(329,259,l),
(204,259,l),
(236,433,l)
);
}
);
width = 556;
},
{
layerId = "72302C92-9F48-4323-B731-8A9E50B35526";
shapes = (
{
closed = 1;
nodes = (
(538,437,l),
(538,493,l),
(443,493,l),
(480,697,l),
(415,697,l),
(380,493,l),
(246,493,l),
(282,697,l),
(218,697,l),
(181,493,l),
(59,493,l),
(59,437,l),
(171,437,l),
(140,255,l),
(19,255,l),
(19,199,l),
(130,199,l),
(93,-15,l),
(156,-15,l),
(194,199,l),
(328,199,l),
(290,-15,l),
(354,-15,l),
(393,199,l),
(509,199,l),
(509,255,l),
(402,255,l),
(433,437,l)
);
},
{
closed = 1;
nodes = (
(369,437,l),
(338,255,l),
(204,255,l),
(237,437,l)
);
}
);
width = 556;
}
);
unicode = 35;
},
{
glyphname = O;
layers = (
{
hints = (
{
horizontal = 1;
origin = (0,8);
target = (1,2);
type = Stem;
},
{
horizontal = 1;
origin = (1,8);
target = (0,2);
type = Stem;
},
{
origin = (0,5);
target = (1,5);
type = Stem;
},
{
origin = (1,11);
target = (0,11);
type = Stem;
}
);
layerId = "68A22FE7-C8F3-439C-857C-EB17D6453AAF";
name = "#instance";
shapes = (
{
closed = 1;
nodes = (
(729,568,o),
(596,720,o),
(389,720,cs),
(192,720,o),
(52,569,o),
(52,343,cs),
(52,120,o),
(191,-19,o),
(390,-19,cs),
(597,-19,o),
(729,131,o),
(729,337,cs)
);
},
{
closed = 1;
nodes = (
(662,159,o),
(552,41,o),
(390,41,cs),
(228,41,o),
(119,159,o),
(119,343,cs),
(119,529,o),
(228,659,o),
(389,659,cs),
(554,659,o),
(662,528,o),
(662,339,cs)
);
}
);
width = 778;
},
{
hints = (
{
horizontal = 1;
origin = (0,8);
target = (1,2);
type = Stem;
},
{
horizontal = 1;
origin = (1,8);
target = (0,2);
type = Stem;
},
{
origin = (0,5);
target = (1,5);
type = Stem;
},
{
origin = (1,11);
target = (0,11);
type = Stem;
}
);
layerId = "E4F5910F-7A79-4870-ADFC-893AC9D78200";
shapes = (
{
closed = 1;
nodes = (
(728,552,o),
(595,708,o),
(390,708,cs),
(183,708,o),
(55,544,o),
(55,353,cs),
(55,149,o),
(185,-9,o),
(392,-9,cs),
(594,-9,o),
(728,145,o),
(728,349,cs)
);
},
{
closed = 1;
nodes = (
(557,219,o),
(491,136,o),
(392,136,cs),
(292,136,o),
(227,219,o),
(227,353,cs),
(227,478,o),
(292,563,o),
(392,563,cs),
(493,563,o),
(557,479,o),
(557,349,cs)
);
}
);
width = 778;
},
{
hints = (
{
horizontal = 1;
origin = (0,8);
target = (1,2);
type = Stem;
},
{
horizontal = 1;
origin = (1,8);
target = (0,2);
type = Stem;
},
{
origin = (0,5);
target = (1,5);
type = Stem;
},
{
origin = (1,11);
target = (0,11);
type = Stem;
}
);
layerId = "0486BCA8-F793-4B15-B8A2-0882358C0736";
shapes = (
{
closed = 1;
nodes = (
(728,557,o),
(595,711,o),
(390,711,cs),
(185,711,o),
(54,551,o),
(54,350,cs),
(54,141,o),
(186,-12,o),
(391,-12,cs),
(595,-12,o),
(728,141,o),
(728,346,cs)
);
},
{
closed = 1;
nodes = (
(584,204,o),
(507,111,o),
(391,111,cs),
(275,111,o),
(198,204,o),
(198,350,cs),
(198,492,o),
(275,588,o),
(391,588,cs),
(509,588,o),
(584,492,o),
(584,347,cs)
);
}
);
width = 778;
},
{
hints = (
{
horizontal = 1;
origin = (0,8);
target = (1,2);
type = Stem;
},
{
horizontal = 1;
origin = (1,8);
target = (0,2);
type = Stem;
},
{
origin = (0,5);
target = (1,5);
type = Stem;
},
{
origin = (1,11);
target = (0,11);
type = Stem;
}
);
layerId = "B4AF9C66-4182-4BB3-8260-B15F342CB5AD";
shapes = (
{
closed = 1;
nodes = (
(728,564,o),
(595,717,o),
(389,717,cs),
(189,717,o),
(52,564,o),
(52,345,cs),
(52,126,o),
(189,-17,o),
(390,-17,cs),
(596,-17,o),
(728,133,o),
(728,339,cs)
);
},
{
closed = 1;
nodes = (
(639,172,o),
(538,61,o),
(390,61,cs),
(242,61,o),
(142,172,o),
(142,345,cs),
(142,517,o),
(242,638,o),
(389,638,cs),
(541,638,o),
(639,517,o),
(639,341,cs)
);
}
);
width = 778;
},
{
hints = (
{
horizontal = 1;
origin = (0,8);
target = (1,2);
type = Stem;
},
{
horizontal = 1;
origin = (1,8);
target = (0,2);
type = Stem;
},
{
origin = (0,5);
target = (1,5);
type = Stem;
},
{
origin = (1,11);
target = (0,11);
type = Stem;
}
);
layerId = "72302C92-9F48-4323-B731-8A9E50B35526";
shapes = (
{
closed = 1;
nodes = (
(729,568,o),
(596,720,o),
(389,720,cs),
(192,720,o),
(52,569,o),
(52,343,cs),
(52,120,o),
(191,-19,o),
(390,-19,cs),
(597,-19,o),
(729,131,o),
(729,337,cs)
);
},
{
closed = 1;
nodes = (
(662,159,o),
(552,41,o),
(390,41,cs),
(228,41,o),
(119,159,o),
(119,343,cs),
(119,529,o),
(228,659,o),
(389,659,cs),
(554,659,o),
(662,528,o),
(662,339,cs)
);
}
);
width = 778;
}
);
unicode = 79;
},
{
glyphname = o;
layers = (
{
hints = (
{
horizontal = 1;
origin = (0,8);
target = (1,2);
type = Stem;
},
{
horizontal = 1;
origin = (1,8);
target = (0,2);
type = Stem;
},
{
origin = (0,5);
target = (1,5);
type = Stem;
},
{
origin = (1,11);
target = (0,11);
type = Stem;
}
);
layerId = "68A22FE7-C8F3-439C-857C-EB17D6453AAF";
name = "#instance";
shapes = (
{
closed = 1;
nodes = (
(598,454,o),
(493,554,o),
(315,554,cs),
(141,554,o),
(34,451,o),
(34,274,cs),
(34,95,o),
(141,-6,o),
(316,-6,cs),
(489,-6,o),
(598,97,o),
(598,270,cs)
);
},
{
closed = 1;
nodes = (
(432,183,o),
(383,125,o),
(316,125,cs),
(248,125,o),
(200,183,o),
(200,274,cs),
(200,365,o),
(248,423,o),
(316,423,cs),
(385,423,o),
(432,366,o),
(432,272,cs)
);
}
);
width = 639;
},
{
hints = (
{
horizontal = 1;
origin = (0,8);
target = (1,2);
type = Stem;
},
{
horizontal = 1;
origin = (1,8);
target = (0,2);
type = Stem;
},
{
origin = (0,5);
target = (1,5);
type = Stem;
},
{
origin = (1,11);
target = (0,11);
type = Stem;
}
);
layerId = "E4F5910F-7A79-4870-ADFC-893AC9D78200";
shapes = (
{
closed = 1;
nodes = (
(598,454,o),
(493,554,o),
(315,554,cs),
(141,554,o),
(34,451,o),
(34,274,cs),
(34,95,o),
(141,-6,o),
(316,-6,cs),
(489,-6,o),
(598,97,o),
(598,270,cs)
);
},
{
closed = 1;
nodes = (
(432,183,o),
(383,125,o),
(316,125,cs),
(248,125,o),
(200,183,o),
(200,274,cs),
(200,365,o),
(248,423,o),
(316,423,cs),
(385,423,o),
(432,366,o),
(432,272,cs)
);
}
);
width = 639;
},
{
hints = (
{
horizontal = 1;
origin = (0,8);
target = (1,2);
type = Stem;
},
{
horizontal = 1;
origin = (1,8);
target = (0,2);
type = Stem;
},
{
origin = (0,5);
target = (1,5);
type = Stem;
},
{
origin = (1,11);
target = (0,11);
type = Stem;
}
);
layerId = "0486BCA8-F793-4B15-B8A2-0882358C0736";
shapes = (
{
closed = 1;
nodes = (
(569,449,o),
(470,549,o),
(301,549,cs),
(136,549,o),
(35,447,o),
(35,270,cs),
(35,92,o),
(136,-9,o),
(302,-9,cs),
(466,-9,o),
(569,93,o),
(569,266,cs)
);
},
{
closed = 1;
nodes = (
(429,167,o),
(377,104,o),
(302,104,cs),
(226,104,o),
(175,167,o),
(175,270,cs),
(175,373,o),
(226,436,o),
(302,436,cs),
(379,436,o),
(429,374,o),
(429,268,cs)
);
}
);
width = 611;
},
{
hints = (
{
horizontal = 1;
origin = (0,8);
target = (1,2);
type = Stem;
},
{
horizontal = 1;
origin = (1,8);
target = (0,2);
type = Stem;
},
{
origin = (0,5);
target = (1,5);
type = Stem;
},
{
origin = (1,11);
target = (0,11);
type = Stem;
}
);
layerId = "B4AF9C66-4182-4BB3-8260-B15F342CB5AD";
shapes = (
{
closed = 1;
nodes = (
(510,439,o),
(423,539,o),
(272,539,cs),
(125,539,o),
(36,438,o),
(36,262,cs),
(36,86,o),
(124,-15,o),
(273,-15,cs),
(420,-15,o),
(510,86,o),
(510,258,cs)
);
},
{
closed = 1;
nodes = (
(423,136,o),
(365,62,o),
(273,62,cs),
(180,62,o),
(123,135,o),
(123,262,cs),
(123,388,o),
(180,462,o),
(273,462,cs),
(367,462,o),
(423,389,o),
(423,259,cs)
);
}
);
width = 556;
},
{
hints = (
{
horizontal = 1;
origin = (0,8);
target = (1,2);
type = Stem;
},
{
horizontal = 1;
origin = (1,8);
target = (0,2);
type = Stem;
},
{
origin = (0,5);
target = (1,5);
type = Stem;
},
{
origin = (1,11);
target = (0,11);
type = Stem;
}
);
layerId = "72302C92-9F48-4323-B731-8A9E50B35526";
shapes = (
{
closed = 1;
nodes = (
(486,435,o),
(404,535,o),
(260,535,cs),
(121,535,o),
(37,435,o),
(37,259,cs),
(37,84,o),
(120,-17,o),
(262,-17,cs),
(401,-17,o),
(486,84,o),
(486,255,cs)
);
},
{
closed = 1;
nodes = (
(421,124,o),
(360,45,o),
(262,45,cs),
(162,45,o),
(102,122,o),
(102,259,cs),
(102,395,o),
(162,473,o),
(262,473,cs),
(362,473,o),
(421,396,o),
(421,256,cs)
);
}
);
width = 534;
}
);
unicode = 111;
},
{
glyphname = one;
layers = (
{
layerId = "68A22FE7-C8F3-439C-857C-EB17D6453AAF";
name = "#instance";
shapes = (
{
closed = 1;
nodes = (
(334,0,l),
(334,700,l),
(291,700,l),
(257,583,o),
(260,579,o),
(119,555,c),
(119,505,l),
(269,505,l),
(269,0,l)
);
}
);
width = 556;
},
{
layerId = "E4F5910F-7A79-4870-ADFC-893AC9D78200";
shapes = (
{
closed = 1;
nodes = (
(394,0,l),
(394,707,l),
(283,707,l),
(266,635,o),
(167,579,o),
(52,587,c),
(52,479,l),
(228,479,l),
(228,0,l)
);
}
);
width = 556;
},
{
layerId = "0486BCA8-F793-4B15-B8A2-0882358C0736";
shapes = (
{
closed = 1;
nodes = (
(377,0,l),
(377,700,l),
(285,700,l),
(264,617,o),
(192,575,o),
(71,575,c),
(71,483,l),
(239,483,l),
(239,0,l)
);
}
);
width = 556;
},
{
layerId = "B4AF9C66-4182-4BB3-8260-B15F342CB5AD";
shapes = (
{
closed = 1;
nodes = (
(347,0,l),
(347,700,l),
(289,700,l),
(259,592,o),
(239,578,o),
(105,561,c),
(105,499,l),
(260,499,l),
(260,0,l)
);
}
);
width = 556;
},
{
layerId = "72302C92-9F48-4323-B731-8A9E50B35526";
shapes = (
{
closed = 1;
nodes = (
(334,0,l),
(334,700,l),
(291,700,l),
(257,583,o),
(260,579,o),
(119,555,c),
(119,505,l),
(269,505,l),
(269,0,l)
);
}
);
width = 556;
}
);
unicode = 49;
},
